<svg xmlns="http://www.w3.org/2000/svg" xmlns:xlink="http://www.w3.org/1999/xlink" width="810" height="412.947" viewBox="0 0 810 412.947">
    <defs>
      <clipPath id="clip-path">
        <rect x="45" width="810" height="412.947" fill="none"/>
      </clipPath>
    </defs>
    <g id="Scroll_Group_1" data-name="Scroll Group 1" transform="translate(-45)" clip-path="url(#clip-path)" style="isolation: isolate">
      <path id="сайт_EG-15" data-name="сайт EG-15" d="M919.089,372.94c-7.291-18.13-1.182-38.428,1.774-56.755,1.774-12.218,6.109-35.078-6.306-41.581-6.7-3.547-15.371-1.774-22.466-1.774-10.05,0-20.3,0-30.348.2-19.313.2-38.625.591-57.938.591-39.808-.2-79.615-2.365-119.029-10.05-37.049-7.291-74.1-16.948-110.555-27.2-37.049-10.445-74.1-22.86-108.781-41.778C401.983,160.107,346.8,108.082,284.334,71.821,229.155,39.7,162.743,19.992,102.047,40.685A137.658,137.658,0,0,0,71.3,55.465c-1.182-.985-2.956-.985-4.533.394-25.028,22.072-37.64,57.15-41.581,93.607-4.533,42.567.394,87.1,4.533,129.473,1.971,20.692,4.73,41.384,9.262,61.485,4.138,18.327,9.262,38.231,18.918,53.8,9.262,14.78,21.874,21.48,37.246,22.86,18.524,1.577,84.936,6.9,103.46,6.7,79.221-.394,110.752-5.321,189.776-.788,77.842,4.533,155.289,13.795,232.934,19.51,75.871,5.518,151.742,3.744,225.642-18.918,18.524-5.715,36.852-12.218,55.179-18.919,5.912-2.168,15.174-3.547,19.313-9.853C925.789,387.72,921.847,379.641,919.089,372.94Z" transform="translate(-23.383 -32.189)" fill="#EFEFEB"/>
    </g>
  </svg>
  