<svg xmlns="http://www.w3.org/2000/svg" xmlns:xlink="http://www.w3.org/1999/xlink" width="1920" height="919" viewBox="0 0 1920 919">
    <defs>
      <clipPath id="clip-path">
        <rect id="Rectangle_2" data-name="Rectangle 2" width="1920" height="919"/>
      </clipPath>
    </defs>
    <g id="a" clip-path="url(#clip-path)">
      <rect id="Rectangle_1" data-name="Rectangle 1" width="1920" height="919" fill="#fff"/>
      <path id="Path_1" data-name="Path 1" d="M285.057,691.608c-32.106-32.451-109.6-310.044-130.367-347.388-6.744-12.194-12.514-24.975-13.95-37.951,6.077.431,12.976-4.62,9.411-10.256a100.185,100.185,0,0,1-6.667-12.389c.41-1.077.821-2.172,1.308-3.249a4.65,4.65,0,0,0-.445-4.9,7.844,7.844,0,0,0-5.171-2.927c-10.257-32.607-3.1-67.995,16.027-98.214,22.951-36.209,61.032-65.665,102.8-89.582C342.247,36.5,452.13-.137,559.243,16.539c45.927,7.144,89.88,23.487,123.525,48.637A158,158,0,0,1,722.1,106.689c11,17.38,15.771,37.051,32.8,51.965,33.644,29.537,96.958,32.216,144.322,31.688,60.442-.666,120.114-9.923,180.582-10.432,78.443-.666,183.454,23.232,202.045,90.248,5.873,21.06,2.565,43.059,10.129,63.926,5.539,15.521,15.668,29.828,26.156,43.705a956.893,956.893,0,0,1-137.167,13.7c-92.753,2.639-183.813-7.379-275.078-18.594-87.8-10.784-177.3-21.177-266.206-12.213-81.543,8.195-160.653,34.617-226.4,72.134-37.491,21.393-50.3,75.218-76.357,105.145-32.316-15.351-28.775,176.736-51.866,153.643Z" transform="translate(-321.755 -75.467)" fill="#e6e3db"/>
      <path id="Path_2" data-name="Path 2" d="M2111.772,198.532c-11.573-65.893-46.221-132.363-120.547-164.1C1920.24,4.13,1833.79,10.109,1770.486,50.49c-66.4,42.408-100.915,108.4-151.924,161.921-120.547,126.32-315.248,181.453-503.2,187.3-107.873,3.373-213.782-9.381-319.932-23.646-102.12-13.718-206.2-26.922-309.634-15.518-94.23,10.99-184.393,42.4-263.275,91.723C157.084,493.1,99.5,546.532,71.6,611.589a198.927,198.927,0,0,0-11.125,34.183,3.611,3.611,0,0,0-.551.193C27.411,660.487,22.038,693.16,23.553,721.11c2.273,42.731,10.333,85.811,17.7,128.091Q53.241,916.668,70.6,983.3c4.1,15.742,7.612,33.573,21.8,45.524s33.857,13.558,52.559,13.558c111.627.255,223.357-2.345,334.949-3.5l333.468-3.534,666.935-7,333.433-3.5,166.734-1.735c26.692-.289,53.97.8,80.56-1.028,18.84-1.285,30.344-9.22,32.238-25.22,5.339-45.749,5.821-92.3,8.3-138.146q3.823-70.679,6.889-141.359,5.889-138.821,8.611-277.739c.9-45.46,1.688-90.952,1.894-136.444C2119.039,268.119,2117.868,233.2,2111.772,198.532Z" transform="translate(-130.647 -98.478)" fill="#5b6b45"/>
    </g>
  </svg>
  