<svg xmlns="http://www.w3.org/2000/svg" xmlns:xlink="http://www.w3.org/1999/xlink" width="500"
    height="250" viewBox="0 0 500 150">
    <defs>
        <clipPath id="b">
            <rect width="500" height="250" />
        </clipPath>
    </defs>
    <g id="a" clip-path="url(#b)">
        <rect width="500" height="250" fill="#fff" />
        <path
            d="M578.027,256.824c-4.333-11.665-.667-24.751,1.008-36.707,1.108-7.888,3.642-22.674-3.692-26.9-3.933-2.249-9.1-1.173-13.283-1.195-6.008,0-12.016,0-18.024.075-11.466.14-22.933.366-34.4.334-23.674-.065-47.248-1.56-70.639-6.532-22.024-4.649-43.923-10.9-65.639-17.563-22.041-6.661-43.957-14.689-64.581-26.9-37.624-22.308-70.364-55.895-107.5-79.376-32.807-20.7-72.114-33.511-108.163-20.167a83.2,83.2,0,0,0-18.191,9.492,1.86,1.86,0,0,0-2.683.269C57.38,66.229,49.863,88.86,47.563,112.374c-2.7,27.5.2,56.3,2.658,83.681a356.366,356.366,0,0,0,5.466,39.763c2.45,11.891,5.5,24.751,11.233,34.716,5.458,9.545,13,13.9,22.049,14.722,10.941.979,22.133-.108,33.1-.172q70.472-.452,140.887,4.057c46.173,2.97,92.138,8.9,138.262,12.569,45.048,3.594,90,2.443,133.912-12.236,11.008-3.68,21.891-7.91,32.757-12.236,3.525-1.41,9.025-2.26,11.416-6.382C581.894,266.316,579.627,261.118,578.027,256.824Z"
            transform="translate(-74.479 -23.427)" fill="#e4dfd7" />
    </g>
</svg>