<svg xmlns="http://www.w3.org/2000/svg" xmlns:xlink="http://www.w3.org/1999/xlink" width="450"
    height="300" viewBox="0 0 450 300">
    <defs>
        <clipPath id="b">
            <rect width="450" height="300" />
        </clipPath>
    </defs>
    <g id="a" clip-path="url(#b)">
        <rect width="450" height="300" fill="#e5e4dd" />
        <path
            d="M537.7,186.644c-9.865-33.053-37.23-58.35-71.135-72.725-45.336-19.3-96.077-18.485-144.845-13.97-55.974,5.191-111.84,11.732-167.728,17.636a7.722,7.722,0,0,0-6.562,4.67,90.681,90.681,0,0,0-3.732-10.227c-3.474-8.008-18.036-4.65-14.519,3.435a75,75,0,0,1,.772,60.492c-7.1,16.71-18.551,31.625-25.349,48.49-13.94,34.636,5.533,64.428,36.822,84.611,18.25,11.77,38.967,20.241,56.3,33.188,14.24,10.651,26.314,23.386,38.946,35.523s25.735,23.676,41.562,31.9c18.551,9.648,39.374,12.446,60.434,13.6,41.948,2.3,82.009-1.312,111.625-30.873,13.983-13.951,25.52-30.082,37.23-45.6A381.51,381.51,0,0,0,521.7,294.7C539.2,261.4,548.554,223.036,537.7,186.644Z"
            transform="translate(-96.684 -123.833)" fill="#99c7db" />
    </g>
</svg>