<svg xmlns="http://www.w3.org/2000/svg" width="509.45" height="252.505" viewBox="0 0 509.45 252.505">
  <path id="сайт-09" d="M29.05,153.036a80.657,80.657,0,0,0,12.818,1.271c6,0,11.993,0,17.982-.093,11.448-.148,22.888-.4,34.336-.358,23.625.078,47.159,1.688,70.492,7.056,21.982,5.057,43.842,11.817,65.517,18.951,22,7.251,43.872,15.917,64.5,29.135,37.546,24.117,70.224,60.386,107.286,85.74,32.739,22.4,71.966,36.176,107.938,21.783a81.448,81.448,0,0,0,18.166-10.254,1.754,1.754,0,0,0,2.672-.3c14.842-15.754,3.056-220.6-2.672-231.417-5.451-10.308-490.974-.248-498.9-.213C29.106,79.661,27.785,152.439,29.05,153.036Z" transform="translate(-28.504 -69.911)" fill="#e6e3db"/>
</svg>
