<svg xmlns="http://www.w3.org/2000/svg" width="864.716" height="711.503" viewBox="0 0 864.716 711.503">
    <path id="сайт_EG-02" data-name="сайт EG-02" d="M913.336,248.024C894.2,176.06,840.63,120.731,774.046,89.269,685.268,47.32,586.158,49.128,490.874,58.892,381.432,70.1,405.608,72.273,296.166,84.93c-6.505.723-45.987-17.981-47.518-12.918-1.913-7.594-48.505-19.527-97.3,35.418-26.786,51.618-18.652,73.693-35.107,117.089C102.47,261.043,79.893,293.59,66.5,330.114c-27.169,75.58,10.715,140.674,71.941,184.431,35.588,25.676,76.15,44.119,110.207,72.326,27.935,23.144,51.277,50.99,76.15,77.389,24.491,26.037,50.129,51.713,81.125,69.433,36.353,20.975,76.916,27.122,118.243,29.654,81.89,5.063,160.336-2.893,218.119-67.263,27.169-30.377,49.746-65.455,72.706-99.448,24.491-36.525,48.216-73.772,66.966-113.552C916.015,411.119,934.383,327.583,913.336,248.024Z" transform="translate(-57.565 -53.098)" fill="#9ac9dc"/>
    <g id="logo" transform="translate(263.707 294.368)">
      <g id="Group_1" data-name="Group 1" transform="translate(0 0)">
        <path id="Path_1" data-name="Path 1" d="M191.8,119.22c9.054,0,11.428,10.835,12.17,12.912.148.3,1.039.3,1.039.3V116.4H144.9s0,.742.3.891c1.929.742,8.46,1.187,8.46,8.311V192.39c0,7.124-6.382,7.569-8.46,8.311-.3.148-.3,1.039-.3,1.039h61.445l7.421-20.927h-.148s-.742,0-.742.3c-.742,1.929-11.428,17.81-22.114,17.81h-19c-1.929-.148-8.46.594-8.46-6.382V160.332h23.3c7.124,0,8.905,9.053,9.647,10.983.148.3,1.039.3,1.039.3V146.38s-.891,0-1.039.3c-.742,1.929-2.523,10.835-9.647,10.835H163.3V119.22h28.5Z" transform="translate(-17.706 -40.732)" fill="#fff"/>
        <path id="Path_2" data-name="Path 2" d="M204.177,201.64h8.757s.148-.891-.3-1.039c-1.929-.742-7.866-.594-7.718-6.827l6.679-63.82c8.311,22.708,31.613,34.285,29.535,71.686h3.117l4.6-11.725.891-1.187v-1.039l23.747-59.664,6.827,65.6c.148,6.382-5.788,6.233-7.718,6.976-.3.148-.3,1.039-.3,1.039h27.606s0-.891-.3-1.039c-1.929-.742-8.311-.742-9.2-7.718l-7.124-67.975c0-6.085,4.453-6.976,6.234-7.718.3-.148.3-.891.3-.891H274.972l-25.379,63.671c-2.375-26.567-26.864-40.37-31.465-63.671H202.544s.148.742.445.891c1.929.742,6.976,1.484,6.085,9.053l.148-.445-6.976,67.085c-1.039,7.124-7.421,7.124-9.35,7.866-.3.148-.3,1.039-.3,1.039h11.577Z" transform="translate(5.389 -40.781)" fill="#fff"/>
        <path id="Path_3" data-name="Path 3" d="M195.6,267c-9.053,0-11.873-29.98-29.832-38.885C199.608,223.37,197.233,183,158.941,183H130s0,.742.3.891c1.929.742,8.46,1.187,8.46,8.311V258.99c0,7.124-6.382,7.569-8.46,8.311-.3.148-.3,1.039-.3,1.039h27.457s0-.891-.3-1.039c-1.929-.742-8.46-1.187-8.46-8.311V228.564h8.311c13.061,3.265,13.209,41.112,38.44,41.112,4.749,0,7.718-2.82,9.2-7.124l-2.375-1.039C200.944,264.63,199.014,267,195.6,267Zm-47.2-41.112V185.968h7.421c30.574,0,30.871,39.034.89,39.924-.594,0-1.187-.148-1.781-.148-.3,0-.594.148-1.039.148Z" transform="translate(-24.92 -8.486)" fill="#fff"/>
        <path id="Path_4" data-name="Path 4" d="M272.629,267.786c-1.929-.742-6.976-2.375-9.5-7.866L228.548,182h-2.82l-34.581,78.068a14.9,14.9,0,0,1-9.35,7.718c-.3.148-.3,1.039-.3,1.039h17.513s0-.891-.3-1.039c-1.929-.742-7.124-1.336-4.6-7.718l.594-1.187h.148c5.64-16.474,39.331-5.788,47.494-17.217a7.755,7.755,0,0,0,1.039-2.226l9.2,20.779c2.375,6.234-2.672,6.827-4.6,7.569-.3.148-.3,1.039-.3,1.039h25.528C273.074,268.824,272.925,267.934,272.629,267.786ZM240.867,237.36c0,6.679-11.28,7.272-16.029,7.866-3.117.3-6.382.445-9.647.891a81.974,81.974,0,0,0-10.538,1.633,22.9,22.9,0,0,0-6.234,2.523l24.786-55.805,16.623,37.55h-.148A13.913,13.913,0,0,1,240.867,237.36Z" transform="translate(0.015 -8.97)" fill="#fff"/>
        <path id="Path_5" data-name="Path 5" d="M307.3,183.891c1.781.742,7.569,1.039,8.46,6.679v60.7C302.844,226.486,272.27,213.426,260.4,183H246s0,.742.3.89c1.929.742,8.46,2.672,8.46,11.725V258.99c0,7.124-6.382,7.569-8.46,8.311-.3.148-.3,1.039-.3,1.039h20.482s0-.891-.3-1.039c-1.929-.742-8.46-1.187-8.46-8.311V196.951c15.139,29.09,45.119,41.705,58.18,71.389h2.82V192.2c0-7.124,6.382-7.569,8.46-8.311.3-.148.3-.891.3-.891H307.148C307,183.148,307,183.891,307.3,183.891Z" transform="translate(31.244 -8.486)" fill="#fff"/>
        <path id="Path_6" data-name="Path 6" d="M375.037,183.1H307.21l-3.71,16.474a3.775,3.775,0,0,0,1.039-.3c.742-2.078,7.124-13.209,17.365-13.209h14.248v73.17c0,7.124-6.382,7.569-8.46,8.311-.3.148-.3,1.039-.3,1.039H354.7s0-.891-.3-1.039c-1.929-.742-8.46-1.187-8.46-8.311V185.92H360.2c10.092,0,16.623,11.131,17.365,13.209.148.3.89.3.89.3Z" transform="translate(59.085 -8.438)" fill="#fff"/>
        <path id="Path_7" data-name="Path 7" d="M145.876,96.856l3.71-.148A57.419,57.419,0,0,1,181.2,100.27c-.594,2.375-1.781,5.64-2.523,7.866-.742,2.375-1.484,4.6-2.226,6.976-.742,2.226-1.484,4.6-2.078,6.827-.742,2.375-1.484,4.6-2.226,6.976a4.014,4.014,0,0,0,2.226.445,1.347,1.347,0,0,0,1.039-.445c.148-.3.445-.594.594-.89,1.336-1.781,2.82-3.562,4.156-5.343s2.82-3.562,4.156-5.343,2.672-3.414,4.007-5.195c.3-.445.742-.891,1.039-1.336.3,0,.594.148.891.148.445,0,.445.3.742.445h.3a13.111,13.111,0,0,0,4.156.3c.445,0,.742-.148.742-.742a3.268,3.268,0,0,1,.148-1.187v-.891c0-.445-.148-.594-.594-.594a7.254,7.254,0,0,0-3.562-.148,1.614,1.614,0,0,1-.742-.148,12.978,12.978,0,0,1,1.187-1.484c.891-1.187,1.781-2.226,2.672-3.414a2.039,2.039,0,0,1,1.187-.742,3.269,3.269,0,0,1,1.187-.148c3.265.148,6.382.445,9.647.445a32.28,32.28,0,0,0,3.859-.148,19.021,19.021,0,0,0,4.007-.742,7.873,7.873,0,0,0,2.523-1.187,3.935,3.935,0,0,0,.891-.742.278.278,0,0,0,0-.445l-.3-.3a10.365,10.365,0,0,0-3.562-1.929c-1.187-.445-2.375-.594-3.414-.89-1.633-.3-3.265-.594-4.9-.742-2.82-.148-5.491-.3-8.311-.445a4.333,4.333,0,0,1-1.336-.3,4,4,0,0,1-1.039-1.187c-.89-1.336-1.633-2.672-2.523-4.007l-.445-.891c.594.148,1.187.148,1.633.3a6.088,6.088,0,0,1,1.633.148,2.441,2.441,0,0,0,1.484-.3,4.517,4.517,0,0,0,.148-3.117c-.148,0-.3-.148-.445-.148a12.175,12.175,0,0,0-3.265-.3c-.594,0-1.336-.148-1.781.445H191a3.244,3.244,0,0,1-.445-.742c-.891-1.484-1.929-3.117-2.82-4.6-1.039-1.633-1.929-3.265-2.968-4.9s-1.929-3.265-2.968-4.749c-.891-1.484-1.929-3.117-2.82-4.6a1.482,1.482,0,0,0-.742-.594,3.255,3.255,0,0,0-2.375.3c1.781,9.5,3.414,18.4,5.195,27.754A112.689,112.689,0,0,0,165.17,92.4C106.842,92.4,59.2,137.523,59.2,193.031a97.243,97.243,0,0,0,24.341,64.117c-4.3,6.53-6.827,14.99-6.827,25.379,0,22.114,14.693,44.377,43.932,44.377a37.828,37.828,0,0,0,20.185-5.937c1.781-.3,7.124-1.929,7.124,2.672,0,1.336,1.781,1.187,1.781,1.187v-37.1c0-7.124,6.53-7.569,8.46-8.311.3-.148.3-1.039.3-1.039H131.628s0,.891.3,1.039c1.929.742,8.46,1.187,8.46,8.311v31.019a31.342,31.342,0,0,1-16.623,4.749c-27.309,0-43.635-36.808-35.175-61.445a29.2,29.2,0,0,0,3.71,3.71,40.966,40.966,0,0,0,10.092,5.937c7.421,3.117,17.662,5.195,25.676,3.414,11.873-2.672,23.747-20.482,13.061-30.723-4.6-5.195-11.28-6.679-20.185-6.679-12.764,0-27.012,5.195-35.769,16.771h-.148a94.743,94.743,0,0,1-23.153-61.89C61.723,145.24,98.085,105.316,145.876,96.856ZM121.535,240.822c7.718,0,14.545,2.523,18.107,6.234h0a2.05,2.05,0,0,1,.445.594c4.749,6.085,1.187,17.365-4.6,21.521-5.788,4.3-11.873,4.749-18.849,3.859a44.306,44.306,0,0,1-18.849-6.234,37.792,37.792,0,0,1-8.015-7.272C94.375,248.688,104.616,240.822,121.535,240.822Z" transform="translate(-59.2 -65.417)" fill="#fff"/>
        <path id="Path_8" data-name="Path 8" d="M271.7,201.1c-.3.148-.3,1.039-.3,1.039h27.309s0-.89-.3-1.039c-1.929-.742-8.46-1.187-8.46-8.311V125.7c0-7.124,6.53-7.569,8.46-8.311.3-.148.3-.891.3-.891H271.4s0,.742.3.891c1.929.742,8.46,1.187,8.46,8.311v67.085C280.157,199.762,273.626,200.356,271.7,201.1Z" transform="translate(43.543 -40.684)" fill="#fff"/>
      </g>
      <g id="Group_2" data-name="Group 2" transform="translate(98.253 291.319)">
        <path id="Path_9" data-name="Path 9" d="M125.548,262.445A28.236,28.236,0,0,1,131.04,262a10.6,10.6,0,0,1,6.382,1.633,4.883,4.883,0,0,1,1.929,4.156c0,2.226-1.484,4.156-4.007,5.195h0a5.958,5.958,0,0,1,4.749,5.788,6.356,6.356,0,0,1-1.929,4.749q-2.449,2.226-8.015,2.226a34.576,34.576,0,0,1-4.749-.3v-23Zm2.968,9.5h2.672c3.117,0,5.046-1.633,5.046-3.859,0-2.671-2.078-3.859-5.195-3.859-1.336,0-2.226.148-2.672.148v7.569Zm0,11.28a12.047,12.047,0,0,0,2.523.148c3.117,0,5.937-1.187,5.937-4.6,0-3.117-2.672-4.453-6.085-4.453h-2.523v8.905Z" transform="translate(-125.4 -261.555)" fill="#fff"/>
        <path id="Path_10" data-name="Path 10" d="M154.817,262.1v13.8c0,5.195,2.375,7.421,5.491,7.421,3.414,0,5.64-2.226,5.64-7.421V262.1h3.117v13.654c0,7.124-3.71,10.092-8.905,10.092-4.749,0-8.46-2.672-8.46-9.944V262.1Z" transform="translate(-112.666 -261.506)" fill="#fff"/>
        <path id="Path_11" data-name="Path 11" d="M180.539,281.885a9.861,9.861,0,0,0,5.343,1.484c3.117,0,4.9-1.633,4.9-4.007,0-2.226-1.187-3.414-4.453-4.6-3.859-1.336-6.234-3.265-6.234-6.679,0-3.71,2.968-6.382,7.569-6.382a10.679,10.679,0,0,1,5.195,1.187l-.891,2.523a9.238,9.238,0,0,0-4.453-1.039c-3.117,0-4.452,1.929-4.452,3.562,0,2.226,1.484,3.265,4.6,4.453,4.007,1.484,5.937,3.414,5.937,6.827,0,3.562-2.672,6.679-8.163,6.679a11.294,11.294,0,0,1-5.937-1.484Z" transform="translate(-99.206 -261.7)" fill="#fff"/>
        <path id="Path_12" data-name="Path 12" d="M208.568,262.1v23.3H205.6V262.1Z" transform="translate(-86.569 -261.506)" fill="#fff"/>
        <path id="Path_13" data-name="Path 13" d="M224.7,285.4V262.1h3.265l7.421,11.873a48.907,48.907,0,0,1,4.156,7.569h0c-.3-3.117-.3-5.937-.3-9.647v-9.8h2.82v23.3h-3.117l-7.421-11.873a83.9,83.9,0,0,1-4.3-7.866h-.148c.148,2.968.3,5.788.3,9.647v9.944H224.7Z" transform="translate(-77.321 -261.506)" fill="#fff"/>
        <path id="Path_14" data-name="Path 14" d="M265.77,274.419h-9.053v8.46h10.092V285.4H253.6V262.1h12.615v2.523h-9.647v7.421h9.054v2.375Z" transform="translate(-63.328 -261.506)" fill="#fff"/>
        <path id="Path_15" data-name="Path 15" d="M278.839,281.885a9.861,9.861,0,0,0,5.343,1.484c3.117,0,4.9-1.633,4.9-4.007,0-2.226-1.187-3.414-4.452-4.6-3.859-1.336-6.234-3.265-6.234-6.679,0-3.71,2.968-6.382,7.569-6.382a10.68,10.68,0,0,1,5.195,1.187l-.891,2.523a9.237,9.237,0,0,0-4.453-1.039c-3.117,0-4.453,1.929-4.453,3.562,0,2.226,1.484,3.265,4.6,4.453,4.007,1.484,5.937,3.414,5.937,6.827,0,3.562-2.672,6.679-8.163,6.679a11.294,11.294,0,0,1-5.937-1.484Z" transform="translate(-51.611 -261.7)" fill="#fff"/>
        <path id="Path_16" data-name="Path 16" d="M303.939,281.885a9.861,9.861,0,0,0,5.343,1.484c3.117,0,4.9-1.633,4.9-4.007,0-2.226-1.187-3.414-4.453-4.6-3.859-1.336-6.234-3.265-6.234-6.679,0-3.71,2.968-6.382,7.569-6.382a10.68,10.68,0,0,1,5.195,1.187l-.891,2.523a9.237,9.237,0,0,0-4.452-1.039c-3.117,0-4.453,1.929-4.453,3.562,0,2.226,1.484,3.265,4.6,4.453C315.07,273.87,317,275.8,317,279.213c0,3.562-2.671,6.679-8.163,6.679a11.294,11.294,0,0,1-5.937-1.484Z" transform="translate(-39.458 -261.7)" fill="#fff"/>
      </g>
    </g>
  </svg>
  