<svg xmlns="http://www.w3.org/2000/svg" xmlns:xlink="http://www.w3.org/1999/xlink" width="459.454" height="348.511" viewBox="0 0 459.454 348.511">
  <defs>
    <clipPath id="clip-path">
      <rect id="Rectangle_1" data-name="Rectangle 1" width="459.454" height="241.511" transform="translate(0 11)" fill="none"/>
    </clipPath>
    <clipPath id="clip-path-2">
      <rect id="Rectangle_1-2" data-name="Rectangle 1" width="459.454" height="252.511" transform="translate(25)" fill="none"/>
    </clipPath>
    <clipPath id="clip-path-3">
      <rect id="Rectangle_2" data-name="Rectangle 2" width="459.454" height="241.511" fill="none"/>
    </clipPath>
    <clipPath id="clip-path-4">
      <rect id="Rectangle_1-3" data-name="Rectangle 1" width="459.454" height="252.511" fill="none"/>
    </clipPath>
  </defs>
  <g id="Scroll_Group_1" data-name="Scroll Group 1" transform="translate(0 -11)" clip-path="url(#clip-path)" style="isolation: isolate">
    <g id="Scroll_Group_1-2" data-name="Scroll Group 1" transform="translate(-25)" clip-path="url(#clip-path-2)" style="isolation: isolate">
      <path id="сайт-09" d="M29.05,153.036a80.653,80.653,0,0,0,12.818,1.271c6,0,11.993,0,17.982-.093,11.448-.148,22.888-.4,34.336-.358,23.625.078,47.159,1.688,70.492,7.056,21.982,5.057,43.842,11.817,65.517,18.951,22,7.251,43.872,15.917,64.5,29.135,37.546,24.117,70.224,60.386,107.286,85.74,32.739,22.4,71.966,36.176,107.938,21.783a81.447,81.447,0,0,0,18.166-10.254,1.754,1.754,0,0,0,2.672-.3c14.842-15.754,3.056-220.6-2.672-231.417-5.451-10.308-490.974-.248-498.9-.213C29.106,79.661,27.785,152.439,29.05,153.036Z" transform="translate(-28.505 -69.905)" fill="#e6e3db"/>
    </g>
  </g>
  <g id="Scroll_Group_1-3" data-name="Scroll Group 1" transform="translate(0 107)" clip-path="url(#clip-path-3)" style="isolation: isolate">
    <g id="Scroll_Group_1-4" data-name="Scroll Group 1" clip-path="url(#clip-path-4)" style="isolation: isolate">
      <path id="сайт-09-2" data-name="сайт-09" d="M537.413,239.284a80.653,80.653,0,0,0-12.818-1.271c-6,0-11.993,0-17.982.093-11.448.148-22.888.4-34.336.358-23.625-.078-47.159-1.688-70.492-7.056-21.982-5.057-43.842-11.817-65.517-18.951-22-7.251-43.872-15.917-64.5-29.135-37.546-24.117-70.224-60.386-107.286-85.74C131.743,75.182,92.516,61.406,56.544,75.8A81.447,81.447,0,0,0,38.378,86.053a1.754,1.754,0,0,0-2.672.3c-14.842,15.754-3.056,220.6,2.672,231.417,5.451,10.308,490.974.248,498.9.213C537.357,312.659,538.678,239.881,537.413,239.284Z" transform="translate(-53.504 -69.904)" fill="#e6e3db"/>
    </g>
  </g>
</svg>
