<svg version="1.0" xmlns="http://www.w3.org/2000/svg" width="682.667" height="682.667" viewBox="0 0 512 512"><path d="M231.5 1.1C152.9 8.6 81.4 52.9 38.8 120.7c-48.7 77.4-51.6 177.7-7.5 257.8 19.8 36 49.3 68.2 83.3 90.8 32.6 21.6 68.6 35 109.9 40.9 11.7 1.6 51.2 1.7 63 0 63.1-8.8 115.2-36 157.7-82.1 34.9-37.8 57.3-86.2 65-140.6 2-13.9 1.7-50.3-.6-66-2.1-15.5-8-39.3-13.1-53.1-4.5-12.3-16.7-37.4-23.1-47.4-19.6-30.9-47-58.9-76.9-78.8-13.3-8.9-39.1-21.8-54-27.1-35.7-12.6-74.2-17.5-111-14zm53.2 26.4c35.1 4.6 69.8 17.4 97.8 36 51.1 34 87.2 87.2 98.9 145.7 4 19.8 4.9 31.3 4.3 53.3-.9 35.9-7.5 62.9-23.2 95C430.3 423.3 367.7 470.2 295 483c-15.8 2.8-47.7 3.8-63 2.1-45.7-5.2-89-23.5-123.1-52-45.2-37.8-73.6-89.6-81.4-148.4-1.9-14.8-1.9-41.7-.1-56.7C38.4 139.8 99.1 65.5 183 37.7c15.2-5.1 28.7-8.2 43.5-10.2 14.2-1.8 43.9-1.8 58.2 0z"/><path d="M210.8 155.7c-5.6 3.5-7.6 13.2-3.6 18 .7.9 21.8 19.6 46.8 41.5 25 21.9 45.5 40.3 45.5 40.8S279 274.9 254 296.8s-46.1 40.6-46.9 41.5c-.8 1-1.6 4-1.9 6.7-.4 4.7-.3 5.2 3.6 9 3.4 3.4 4.6 4 8.3 4 2.6 0 5.6-.8 7.4-1.9 4.1-2.6 103.4-89.7 105.9-92.9 2.8-3.6 2.8-10.8 0-14.4-2.5-3.2-101.8-90.3-105.9-92.9-3.7-2.3-10.1-2.4-13.7-.2z"/></svg>