<svg xmlns="http://www.w3.org/2000/svg" width="682.667" height="682.667" version="1.0" viewBox="0 0 512 512"><path d="M238 1.1c-75.5 8.6-137.9 69-147.9 143.4-1.9 14.3-2.2 24.8-1.1 37 2.5 27.9 11.5 54.8 25.7 76.5 2.7 4.1 10 16 16.2 26.5 6.2 10.4 12 19.6 12.9 20.2 5 4 13.9-.9 12.9-7-.5-3.1-20.4-37.5-28.1-48.7-8.5-12.3-16.5-32-20.8-51.2-2-8.8-2.3-13.1-2.3-29.8.1-16.5.4-21.1 2.3-29.9 9.5-43.6 36.4-80.2 74.7-101.9C205.6 23.1 229.2 17 256.8 17c33 0 63 10.1 90.7 30.6 8.1 5.9 10.7 6.8 14.5 4.9 3.2-1.6 4-3.3 4-8.1 0-2.9-.8-4-5.2-7.5C330.7 13.1 291.6-.4 254.3.1c-4.8.1-12.2.5-16.3 1z"/><path d="M244.5 63.5c-46.2 31.2-72.3 85.4-70.1 145.5.8 23.1 4.3 39.3 12.4 57.5 11.8 26.5 32.2 44.9 55 49.6l6.2 1.3V361h-63.7l-2.3-8.8c-3-11.7-8.9-26.2-11.7-29-3-3-7.7-2.9-10.8.3-1.4 1.3-2.5 3.5-2.5 4.8 0 1.3 1.8 7.1 4 13 2.2 5.8 4.7 13.5 5.5 17.1l1.5 6.5-4.5 4.2c-2.4 2.3-5.7 6.7-7.2 9.8-5 10.1-3.2 23.4 4.2 32.3l2.6 3.1-2.5 2.6c-8.5 8.9-9.6 24.9-2.4 36.3 6.1 9.7 14.3 13.7 29.8 14.5l10.9.6 1.2 3.6c5.7 17.6 20.7 31.7 39.8 37.6 12.5 3.9 31.2 2.5 36.4-2.6 3.3-3.4 3.5-6.9.3-10.6-2.1-2.4-3-2.7-6.8-2.4-2.3.3-9 .5-14.8.5-9.9.1-10.9-.1-17.1-3.1-7.6-3.8-15.4-11.1-19.3-18.3l-2.7-5H296l-1.9 3.8c-1.1 2-2.9 5-4 6.7-2.8 4-2.7 8 .4 11 3.8 3.9 8.5 3.4 12.5-1.2 3.1-3.5 10-16.5 10-18.9 0-.7 3.8-1.3 10.9-1.7 15.6-.8 23.8-4.8 30-14.5 7-11.1 5.9-27.6-2.5-36.3l-2.5-2.6 2.6-3.1c7.4-8.9 9.2-22.2 4.2-32.3-1.5-3.1-4.8-7.6-7.3-9.9l-4.5-4.1 2-8c3-11.7 8.4-24.7 16.9-40.4 8.3-15.5 26.2-45.9 34.2-58.1 31.1-47.5 35.1-110.2 10.4-162.4-5-10.5-8.1-15.8-16.2-27.2-7.3-10.3-12.1-12.1-17.2-6.5-3.3 3.4-2.5 7.3 2.8 14.6 15.1 20.8 24 41.8 28.3 66.9 3.9 23.1 1.6 50.5-6.1 73.2-3.3 9.5-11.1 25.5-16.2 33-5.3 7.7-24.7 40.6-34 57.5-8.6 15.6-15.1 31.1-18.4 43.5l-2.7 10H264v-43.6l6.3-1.3c22.7-4.7 43.1-23.1 54.9-49.6 8.1-18.2 11.6-34.4 12.4-57.5 2.2-60.1-24.1-114.7-70.2-145.6-10.6-7.1-12.4-7.1-22.9.1zm18.6 17.2c13 9.4 25.9 23.4 34.7 37.4 29.4 46.6 31.7 113.5 5.4 154.4-8.8 13.7-23.6 25-35.4 27.1l-3.8.6V275.5l14.4-9.3c10.8-6.9 14.7-10 15.6-12.3 1.6-3.6.3-7-3.5-9.5-3.6-2.4-7.2-1.3-16 4.6-11.3 7.7-10.5 8.2-10.5-6.8v-13l13.9-9c7.7-5 14.7-10.2 15.6-11.6 2.1-3.2 1.2-8-1.8-10.1-4.1-2.8-7.9-1.9-17.6 4.5-5 3.3-9.4 6-9.6 6-.3 0-.5-5.9-.5-13v-13.1l14.5-9.5c14.1-9.1 16.5-11.5 16.5-16 0-2.4-5.6-7.4-8.3-7.4-1.4 0-6.9 2.9-12.3 6.5l-9.9 6.4-.5-17.5c-.5-17-.6-17.6-2.9-19.5-1.3-1-3.6-1.9-5.1-1.9-1.5 0-3.8.9-5.1 1.9-2.3 1.9-2.4 2.5-2.9 19.5l-.5 17.5-9.9-6.4c-5.4-3.6-10.9-6.5-12.3-6.5-2.7 0-8.3 5-8.3 7.4 0 4.5 2.4 6.9 16.5 16l14.5 9.5V196c0 7.1-.2 13-.5 13-.2 0-4.6-2.7-9.6-6-9.7-6.4-13.5-7.3-17.6-4.5-3 2.1-3.9 6.9-1.8 10.1.9 1.4 7.9 6.6 15.6 11.6l13.9 9v13c0 15 .8 14.5-10.5 6.8-8.8-5.9-12.4-7-16-4.6-3.8 2.5-5.1 5.9-3.5 9.5.9 2.3 4.8 5.4 15.6 12.3l14.4 9.3V300.2l-3.7-.6c-6.1-1.1-17.4-7.1-23.5-12.6-6.1-5.4-15.1-18.1-18.8-26.5-9-20.4-13.2-46.5-11.1-69.7 3.8-41 18.7-73.9 44.7-98.9C242.4 85.4 254.5 76 256 76c.4 0 3.6 2.1 7.1 4.7zM334 378.8c10.5 5.2 10.6 20.1 0 25.4-3.2 1.7-9.1 1.8-78 1.8s-74.8-.1-78-1.8c-10.6-5.3-10.5-20.2 0-25.4 3.2-1.6 9.9-1.7 78-1.7s74.8.1 78 1.7zm.8 45.5c5.1 2.8 7.4 7.2 6.9 13.5-.3 3.8-1 5.9-2.8 7.8-5.2 5.6-1.7 5.4-82.9 5.4s-77.7.2-82.9-5.4c-4.5-4.8-3.8-15.3 1.3-19.5 4.8-4 6.4-4 83.1-3.8 69.1.2 74.2.3 77.3 2z"/></svg>