<svg version="1.0" xmlns="http://www.w3.org/2000/svg" width="682.667" height="682.667"
    viewBox="0 0 612 512">
	<path d="M246.775,208.281c-17.417,14.754-25.157,14.754-40.639,0-20.319,18.688-30.963,18.688-50.314,0-5.806,5.9-11.611,10.82-20.319,10.82s-14.514-4.918-20.319-11.8c-8.708,11.8-20.319,16.721-34.833,12.787V476.8c3.87,0,6.773.983,9.676.983H368.691c1.935,0,5.806.984,6.773,1.968a175.325,175.325,0,0,0,48.379,48.2H31.971c0-3.934-.968-7.868-.968-11.8V485.655c0-5.9.968-8.852,7.741-7.869,5.805.984,11.611,0,18.384,0V218.117c-1.935,0-3.87.984-5.805.984-15.481,2.951-27.092-6.885-29.028-23.606-1.935-19.672,4.838-34.426,15.481-50.163,25.157-37.377,49.347-74.753,74.5-112.13,1.935-2.951,6.773-5.9,10.643-5.9H422.876c2.9,0,7.741,1.967,9.676,4.918,28.06,42.295,56.12,84.589,84.18,127.867,9.676,14.754,7.741,31.475,1.935,48.2-2.9,8.852-14.514,12.787-24.19,10.82-1.935,0-3.871-.984-6.773-.984v39.344a190.9,190.9,0,0,0-23.222,3.934V221.068c-21.287.983-21.287.983-33.865-10.819-7.741,2.951-14.514,7.869-22.255,8.852-8.708,1.967-14.514-3.934-20.319-11.8a32.267,32.267,0,0,1-24.19,14.754c-10.643,0-18.384-4.918-24.19-13.77-19.352,14.754-24.189,14.754-41.606,0C281.608,225.986,264.192,226.97,246.775,208.281Zm71.6-166.227c.967,6.885,1.935,11.8,2.9,17.7,5.806,42.295,19.352,83.605,19.352,126.884,0,11.8,11.611,20.655,22.254,20.655s21.287-8.852,22.255-19.672c.967-8.852,0-18.688-1.935-27.54-5.806-22.623-13.546-44.262-19.352-65.9-4.838-14.754-8.708-30.491-13.546-45.245-.968-2.951-2.9-5.9-4.838-6.885Zm-60.958,0c0,3.934-.968,6.885-.968,10.82-1.935,27.541-3.87,55.081-4.838,81.638-.968,16.721-1.935,33.442-1.935,50.163,0,14.754,15.481,25.573,29.028,20.655,9.676-2.951,16.449-11.8,15.481-22.623-1.935-35.41-3.87-71.8-5.806-107.212-.968-10.82-.968-21.639-1.935-33.442Zm-30.963,0H203.234c-3.871,0-5.806.984-7.741,5.9-11.611,37.377-23.222,73.77-33.866,111.146-2.9,9.836-1.935,19.672-1.935,29.508a15.913,15.913,0,0,0,4.838,10.82c6.773,6.885,14.514,9.836,24.19,6.885s14.514-10.82,15.481-21.639a147.636,147.636,0,0,1,.968-20.656c3.87-22.623,7.741-46.229,12.579-68.851C220.651,77.463,223.553,60.742,226.456,42.054Zm151.911,0a8.993,8.993,0,0,1,.967,4.918c10.643,25.574,22.254,52.131,32.9,77.7,7.741,20.656,21.287,39.344,18.384,62.95v.984c1.935,10.82,9.676,17.7,20.319,19.672,7.741.984,19.352-4.918,22.255-12.787,3.87-10.82,4.838-21.639-.967-32.458-21.287-39.344-42.574-77.7-63.861-117.048a5.189,5.189,0,0,0-3.87-2.951C395.784,42.054,388.043,42.054,378.367,42.054Zm-211.9,0H143.244c-4.838,0-7.741,1.967-9.676,5.9-19.352,35.41-37.736,70.819-58.055,106.228-6.773,11.8-7.741,23.606-5.805,35.41.968,10.819,13.546,19.672,24.19,17.7,12.579-2.951,19.352-10.819,19.352-23.606,0-7.869,0-15.737,2.9-22.623,8.708-22.623,19.352-45.245,28.06-67.868C151.952,76.48,158.725,59.759,166.466,42.054Z" transform="translate(-21.966 -27.3)" fill="#5b6c46"/>
	<path  d="M58.312,180.778c1-73.095,58.075-129.168,131.17-128.166,68.088,1,126.164,59.077,123.16,132.171-2,67.087-56.073,124.161-130.169,123.16C114.385,307.943,57.31,248.866,58.312,180.778Zm83.108,22.029h-4.005c-14.018,0-17.022,3-12.016,17.022,0,1,1,2,1,3,7.009,18.023,21.027,27.035,39.051,29.038,6.008,1,10.013,3,10.013,10.013,0,9.012,7.009,8.01,12.016,8.01,6.008,1,8.01-2,8.01-8.01s3-10.013,10.013-10.013c5.007,0,9.012-2,14.018-3,16.021-6.008,27.035-17.022,29.038-34.044,2-16.021-2-30.039-15.019-39.051-7.009-5.006-15.02-8.01-23.03-11.014-13.017-5.007-27.035-8.01-40.052-12.016-5.007-2-8.01-5.007-7.009-11.014s4.005-10.013,9.012-10.013a96.5,96.5,0,0,1,24.031,0c7.009,0,12.016,4.005,14.018,12.016,1,5.007,4.005,6.008,8.01,6.008h20.026c6.008,0,8.01-3,8.01-8.01,0-3-1-6.008-2-9.012-7.009-15.019-18.023-24.031-34.044-26.034-6.008-1-10.013-2-11.014-9.012,0-2-5.007-5.007-7.009-5.007-4.005,0-11.014-2-12.016,4.005-2,8.01-7.009,9.012-13.017,10.013a19.319,19.319,0,0,0-10.013,3c-16.021,5.007-27.035,17.022-29.038,34.044-3,17.022,4.005,30.039,18.023,38.049,11.014,6.008,24.031,9.012,36.047,13.017,8.01,3,17.022,5.007,25.032,9.012,3,2,6.008,7.009,6.008,11.014,0,3-3,9.012-7.009,10.013-11.014,4.005-22.029,6.008-33.043,0-3-2-7.009-5.007-8.01-8.01-3-14.018-7.009-12.016-17.022-12.016C144.423,202.807,143.422,202.807,141.42,202.807Z" transform="translate(288.026 191.694)" fill="#5b6c46"/>
	<path  d="M29.9,222.223V195.188c3-1,7.009-1,11.014-2V50H210.134V194.187c4.005,0,7.009,1,11.014,1v24.031c0,1-4.005,3-6.008,3H29.9Zm157.2-28.036V71.027c-1,0-2-1-3-1H65.947c-5.007,0-5.007,3-5.007,6.008V187.178c0,5.007,2,7.009,7.009,7.009H187.1Z" transform="translate(49.544 171.224)" fill="#5b6c46"/>
	<path  d="M176.261,50V69.025c0,2-2,4.005-4.005,5.007-39.051,22.029-64.083,54.07-74.1,97.126a160.783,160.783,0,0,0,0,69.09c1,4.005,2,7.009,3,12.016H66.118c-14.018,0-14.018,0-14.018-14.018V50ZM76.131,133.108v30.039c0,5.006,3,5.006,6.008,4.005,2,0,6.008-2,6.008-4.005,1-10.013,0-20.026,0-30.039Z" transform="translate(238.96 170.631)" fill="#5b6c46"/>
  </svg>
  