<svg version="1.0" xmlns="http://www.w3.org/2000/svg" width="682.667" height="682.667" viewBox="0 0 512 512"><path d="M232.1 1c-49.7 4.8-99 25.1-137.6 56.5-11.4 9.2-29.4 27.4-38.4 38.7-22.9 28.7-41.7 67.5-49.5 102.3-4.9 21.8-6 32.5-6 57.5s1.1 35.7 6 57.5c7.9 35.5 27.2 74.9 50.9 104 9.2 11.4 27.4 29.4 38.7 38.4 28.7 22.9 67.5 41.7 102.3 49.5 21.8 4.9 32.5 6 57.5 6s35.7-1.1 57.5-6c26.1-5.8 60.3-20.4 82.8-35.3 38.9-25.9 68.8-59.9 89.3-101.6 12.5-25.5 19.6-48.4 24.1-77.5 2.4-16.1 2.4-53.9 0-70-4.5-29.1-11.6-52-24.1-77.5-13.4-27.2-28.3-48-49.8-69.2-21.1-20.9-40.4-34.6-67.3-47.8-25.2-12.4-48.6-19.7-76.5-24C279.4.6 245.2-.2 232.1 1z"/></svg>