<svg xmlns="http://www.w3.org/2000/svg" width="682.667" height="682.667" version="1.0" viewBox="0 0 512 512"><path d="M253 .7C245.4 3.6 13.5 99.6 10.4 101.1c-2.2 1.1-4.6 3.1-5.2 4.5-.9 1.8-1.2 40.8-1.2 150.5 0 126.5.2 148.4 1.4 150.8 1.3 2.4 15.1 8.4 125.5 54 82.1 34 124.8 51.2 126.3 50.9 1.3-.3 57.6-23.4 125.1-51.3 109.3-45.3 123-51.2 124.3-53.6 1.2-2.4 1.4-24.3 1.4-150.8 0-108.7-.3-148.7-1.1-150.5-.7-1.4-3-3.4-5.3-4.4C491 96.2 259.4.9 257.1.5c-1.4-.2-3.3-.2-4.1.2zm110.9 61.4c58.6 24.3 108.2 44.8 110.1 45.6l3.5 1.4-110.8 45.8L256 200.8 145.3 155C47.1 114.3 34.9 109 37 108.1 51.9 101.5 254.9 18 255.9 18c.7 0 49.3 19.8 108 44.1zm-233.2 105c58.8 24.3 109.2 45.2 112.1 46.5l5.2 2.3v137.5c0 75.7-.1 137.6-.3 137.6-.1 0-51.1-21-113.2-46.8l-113-46.7-.3-137.9c-.2-121.7 0-137.8 1.3-137.2.8.3 49.5 20.4 108.2 44.7zm360.1 92.6-.3 137.8-113 46.7C315.4 470 264.5 491 264.3 491c-.2 0-.3-61.9-.3-137.5V216l3.3-1.6c4.8-2.3 222.1-92.2 223-92.3.4-.1.6 61.9.5 137.6z"/></svg>