<svg xmlns="http://www.w3.org/2000/svg" width="682.667" height="682.667" version="1.0" viewBox="0 0 512 512"><path d="M257.7 36.7c-.3.4-6.4 13.6-13.7 29.3-7.2 15.7-13.5 28.8-13.8 29.2-.6.5-59 5.8-64.4 5.8-1.1 0-2.1 1.6-3.1 5l-1.5 5 7.2 6.8c3.9 3.8 14.5 13.8 23.6 22.3 9.1 8.4 16.6 15.6 16.8 16 .2.4-12.8 57.7-14.3 62.9-.2.9 1.3 2.7 3.9 4.7l4.3 3.1 22.4-12.5c12.3-6.8 25.3-14 28.9-15.9l6.5-3.5 28.3 17L317 229l4-2.8c2.1-1.5 3.9-3.4 4-4.2 0-.8-2.7-15.4-6-32.3-3.3-17-5.8-31.3-5.5-31.8.4-.5 11.6-10.4 24.9-21.9l24.4-21.1-1.6-4.9c-1.8-5.8 2.2-4.7-37.2-9.5-16.2-2-29.6-4-29.8-4.3-.2-.4-6-14-13-30.2l-12.7-29.5-5.2-.3c-2.8-.2-5.3.1-5.6.5zm15.8 50.9c8.8 21 10 23.2 12.4 23.7 1.4.3 13.1 1.7 25.9 3.3 12.8 1.5 23.1 3.1 23 3.5-.2.4-7.9 7.3-17.3 15.4-9.3 8.1-18 15.6-19.2 16.8l-2.3 2.2 5 25.4c2.8 14 4.9 25.5 4.8 25.6-.2.2-10.3-5.8-22.6-13.2l-22.3-13.5-22.6 12.6c-12.5 6.9-22.9 12.3-23.1 12.1-.4-.3 10.7-48.5 11.4-49.6.2-.4-8.3-8.7-19-18.5-10.7-9.9-19.2-18.1-19.1-18.2.2-.2 10.6-1.2 23.2-2.3 12.5-1.1 24.2-2.1 25.9-2.4 2.9-.5 3.5-1.6 13.9-24 6-12.9 11.2-23.2 11.6-22.8.4.5 5 11.2 10.4 23.9z"/><path d="M135.2 89.7c-1.5.3-2.8 1.7-3.8 4.1-.8 2-5.8 13.1-11.2 24.7l-9.9 21-13.4 1.2c-7.4.6-19.8 1.7-27.6 2.3L55 144.3l-1.7 5.4-1.7 5.4 3.4 2.7c1.9 1.5 10.5 9.2 19 17.1 8.5 7.9 16.1 15 16.9 15.7 1.1 1 .4 5.5-4.9 28.3l-6.3 27 2.4 2c5.8 4.8 4.6 5.2 30.2-9 20.2-11.1 24.2-13 26-12.2 1.2.6 12 7 24 14.2l21.8 13.2 4.3-3.1 4.2-3.1-5.3-27.1-5.2-27.2 4.1-3.5c2.3-2 4.8-4.1 5.7-4.7 1.3-1 .9-2-3.3-6.8-2.6-3.1-5.1-5.6-5.5-5.6-.5 0-4.5 3.2-9 7.1-5.2 4.5-8.1 7.7-8.1 9.1 0 1.1 1.6 10.3 3.5 20.5s3.5 18.7 3.5 19c0 .6-6.1-2.9-21.3-12.4-7.3-4.5-13-7.3-14.7-7.3-1.6 0-9.6 3.8-19.6 9.4-9.3 5.2-17 9.3-17.2 9.2-.1-.2 1.6-8.1 3.8-17.6 2.2-9.5 4-19 4-21 0-3.5-.9-4.5-14.5-17.1-11.3-10.4-14.1-13.5-12.8-14 1-.3 9.2-1.2 18.3-1.8 9.1-.7 17.6-1.6 19-2 2.7-.8 4.8-4.4 14.8-26l5.8-12.4 8.2 19.6 8.3 19.5 10.2 1.2c5.6.6 10.9 1.4 11.9 1.6 1.3.4 1.7-.6 2.3-4.8.3-2.9.8-6.5 1.1-8 .5-2.6.4-2.6-6.3-3.3-3.7-.4-7.2-.7-7.6-.9-.5-.1-4.6-9.1-9.3-20.1-13.3-31.6-13.2-31.5-16.8-31.4-1.7.1-4.1.4-5.4.6zM382.2 90.2c-.6.8-6.1 11.9-12.1 24.7-6 12.8-11.3 23.7-11.8 24.1-.4.5-3 1-5.8 1.2l-5 .3.3 7c.2 3.8.7 7.3 1 7.7 1.2 1.3 18.4-1 20-2.6.8-.8 5.2-9.4 9.8-19.1 4.5-9.7 8.4-17.3 8.7-16.8 2.4 4 13.7 32.9 13.7 35.1v2.7l20.3 2.4c11.1 1.3 20.9 2.7 21.9 3 1.2.4-2.3 4-13.8 14-8.5 7.3-15.4 14-15.4 14.8 0 .9 1.6 9.8 3.6 20 1.9 10.1 3.4 18.8 3.2 19.2-.2.5-7.7-3.6-16.7-9-9.9-5.9-17.6-9.9-19.2-9.9-1.4 0-6.4 2.2-11 4.8-20.4 11.7-26.1 14.6-25.5 12.6 1.3-4.5 8.6-36.6 8.6-38.2 0-1.5-6.9-8.8-16.8-17.7l-3.2-2.9-5 4.9c-2.8 2.7-5 5.4-5 5.9s3 3.8 6.7 7.1l6.8 6.2-6.3 26.9-6.2 26.9 3.7 3.2c2.1 1.8 4.2 3.3 4.6 3.3.5 0 11.4-5.9 24.4-13.1 19.8-11 23.9-13 25.7-12.1 1.1.5 11.9 6.9 24 14.1l21.9 13.2 3.9-2.7c2.1-1.5 4-3 4.2-3.3.2-.3-2-12.7-4.8-27.4l-5.3-26.9 19.3-16.9c10.6-9.3 19.8-17.8 20.5-19 .8-1.6.8-3.2-.1-6.4l-1.2-4.3-8.1-1c-4.5-.6-16.8-2.1-27.4-3.3l-19.2-2.3-10.1-24c-5.6-13.3-10.7-24.7-11.4-25.4-2-2.1-8.9-2.7-10.4-1zM11 282.5v7.5h78v165H11v15h41.3c39.3 0 41.3-.1 44.5-2 1.8-1.1 4.1-3.4 5.2-5.2 1.9-3.2 2-5.2 2-90.3s-.1-87.1-2-90.3c-1.1-1.8-3.4-4.1-5.2-5.2-3.2-1.9-5.2-2-44.5-2H11v7.5zM121.7 294.7c-.4.3-.7 3.9-.7 8v7.3h24.3c17.4 0 25.9.4 30.3 1.5 3.3.7 16.6 6.2 29.5 12.1 12.9 5.8 26.6 12 30.4 13.8l7 3.1 38 .5c36.9.5 38.1.6 41.5 2.7 4.7 2.9 7 7.1 7 12.8 0 5.7-2.3 9.9-7 12.8-3.4 2.2-4.3 2.2-46.2 2.5l-42.8.3v15l44.8-.3 44.7-.3L382 361l59.5-25.5h10c8.6 0 10.7.4 15 2.5 5.5 2.7 14.9 11.4 14.3 13.2-.5 1.5-188.2 101.2-197.6 105-9.8 3.9-20.9 5.3-30.4 3.9-4-.7-18.3-4.7-31.8-9-13.5-4.4-35.2-11.4-48.2-15.6l-23.7-7.6-14.1-.6-14-.6V443h24.2l46.7 15c25.7 8.3 50.1 15.7 54.2 16.6 8.9 1.9 25.3 1.4 34.4-1 8.4-2.2 17.7-7 125-63.9 87.4-46.4 95-50.6 94.7-52.8-.1-1.3-1.8-5.7-3.8-9.8-10.1-20.6-33.8-31.9-55.9-26.7-3.3.8-25.8 9.8-49.9 20-24.1 10.2-44.2 18.6-44.6 18.6-.4 0-1-2.5-1.4-5.6-1.2-10.3-8.1-20-17.5-24.6-4.5-2.2-5.6-2.3-42.6-2.8l-38-.5-28-12.8c-32.6-15-37-16.6-48.5-17.8-9.9-1-47.3-1.2-48.3-.2z"/><path d="M52.1 421.4c-3.2 1.8-5 5.3-5.1 9.7 0 7.3 7.5 12.4 14.3 9.6 4.5-1.9 6.7-5.2 6.7-10.2-.1-8.2-8.6-13.1-15.9-9.1z"/></svg>