<svg version="1.0" xmlns="http://www.w3.org/2000/svg" width="682.667" height="682.667" viewBox="0 0 512 512"><path d="M36.1 62.1C18.9 65.5 4.3 80.3 1 97.9c-1.4 7.4-1.4 308.8 0 316.2 3.4 18 17.9 32.5 35.9 35.9 7.4 1.4 430.8 1.4 438.2 0 18-3.4 32.5-17.9 35.9-35.9 1.4-7.4 1.4-308.8 0-316.2-3.4-18-17.9-32.5-35.9-35.9-6.7-1.2-432.5-1.2-439 .1zm322.7 130.6L257.1 294.4l-14.3-13.7c-7.9-7.6-54.1-53.3-102.8-101.7L51.5 91.1 256 91h204.5L358.8 192.7zm-252.4-4.9 67.8 67.5-72.1 72.1L30 399.5V112.8l4.3 3.8c2.3 2 34.7 34.1 72.1 71.2zM482 256.2v143.3l-71.7-71.7-71.8-71.8 71.5-71.5c39.3-39.3 71.6-71.5 71.7-71.5.2 0 .3 64.5.3 143.2zm-260.5 45.9c13.8 13.8 26.7 25.9 28.7 27 4.5 2.3 8.9 2.4 13.1.3 1.8-.9 14.6-12.9 28.5-26.7l25.2-25.2 71.8 71.8 71.7 71.7h-409l72-72c39.6-39.6 72.2-72 72.5-72 .3 0 11.8 11.3 25.5 25.1z"/></svg>