<svg xmlns="http://www.w3.org/2000/svg" width="682.667" height="682.667" version="1.0" viewBox="0 0 512 512"><path d="M367.9 1.5c-14.8 2.8-29.6 9.3-40.9 18.1-5 3.8-145.1 143.8-243.1 242.9-42.4 42.9-46.6 47.8-55.3 65.3-4.9 9.7-9.1 22.7-11.1 33.7-2.1 11.7-2.1 33.3 0 45 8.8 49.5 47.5 90.5 96 101.8 35.9 8.4 71 1.8 102.5-19.1 9.6-6.4 18.8-15.4 180.2-177.7 104.9-105.4 100.3-100.3 100-110.7-.2-9-7-17.5-15.9-19.7-5.4-1.4-10.5-.6-15.8 2.4-2.2 1.3-16.6 15.1-32 30.7-15.4 15.5-74.6 75-131.5 132.2-79.6 79.9-105.2 105-110.7 108.6-15.8 10.4-31.3 14.6-50.7 13.7-14.6-.6-23.7-3-35.5-9.3-39-20.7-55.8-65.5-40-106.4 6.5-17 3.1-13.3 148.7-159.8C287.4 118.2 350 55.6 352 54c16.1-12.7 40.6-14.6 58.6-4.5 11.1 6.2 20.2 17 24.5 29 1.8 4.8 2.2 8.2 2.2 17.5 0 13.1-1.8 19.5-7.9 29-2.2 3.4-47.3 49.2-116.3 118.2C202.7 353.7 200.4 355.9 195 357.4c-8.4 2.5-14.9.8-21-5.4-6.2-6.2-7.9-12.6-5.4-21 1.5-5.3 3.4-7.3 57.4-61.5 38.5-38.6 56.4-57.2 57.5-59.7 3-7.3 1.3-17.1-3.8-22.6-6.1-6.6-17.3-8.5-25.2-4.4-2.4 1.2-26.5 24.6-61.1 59.4-56.8 56.9-57.2 57.4-61.3 65.8-5.9 12.3-7.4 19.3-6.8 32 .8 17.5 6.4 30.6 18.3 42.4 11.6 11.6 24.8 17.4 41.6 18.3 12.7.7 20-.7 31.8-6.4l9.5-4.5 114.3-114.1c66.3-66.2 116.8-117.5 120.2-121.9 12.9-17 19.1-35.4 19.3-56.8.2-27.3-8.8-49.4-27.7-68.5C440.4 16.2 424.3 7 407.9 3c-11.1-2.8-29.8-3.5-40-1.5z"/></svg>