<svg xmlns="http://www.w3.org/2000/svg" width="682.667" height="682.667" version="1.0" viewBox="0 0 512 512"><path d="M80.3 22.1c-3.9 2.5-7.3 9.2-7.3 14.5 0 10.8 9.8 33.7 25.8 60.1 10 16.5 11 19.7 6.9 23.6-1.3 1.2-6.4 5-11.4 8.5-49.2 34.1-90.8 112-94 175.8-1.8 36 10.8 69.4 35.7 94.4 26.7 26.9 62 42.1 106.8 46.1 7.2.6 16.8.9 21.2.7 7.5-.3 8.4-.6 10.6-3.1 3.1-3.6 3.1-7.1-.1-10.2-2.2-2.3-3.2-2.5-11.7-2.5-63.9-.1-113.7-25.7-135.3-69.5-8.9-18.1-12.2-34.9-11.2-55.5 3.1-57.4 38.8-126.8 82.4-159.7 14.9-11.3 10.4-10.3 47.6-10.3 33 0 36.7-.4 39.3-3.8 2.1-2.8 1.7-7.6-.9-10-2.3-2.2-2.9-2.2-31.5-2.2H124v-5.3c0-6.1-1-8.3-11.9-26.1C99.7 67.5 89 44.4 89 37.8c0-1.5.8-1.8 5.1-1.8 7.5 0 17.9 1.8 32.9 5.7 23.2 6 43.3 5.8 70.4-.8 12.4-3.1 30.1-5.7 31.1-4.7 1.8 1.8-8.9 26.7-20.1 46.9L201.8 95h-63.9l-2.4 2.5c-3 2.9-3.2 7.4-.6 10.6l1.9 2.4 29.1.3 29.1.3v4.2c0 5.3 3.8 13.5 7.7 16.7 1.7 1.4 7.3 5.4 12.4 9 12.2 8.4 35.2 31.4 44.1 44 3.7 5.2 9 13.7 11.9 18.8 2.8 5.1 6 9.7 7 10.2 5.2 2.9 11.9-.8 11.9-6.5 0-4-10.3-21.8-20.4-35.2-10.2-13.8-28.1-31.7-41.6-41.6-5.8-4.3-12-8.9-13.7-10.3-5.3-4-4.6-7 4.9-23.6 15-26.1 24-47.1 25.4-59.1.8-6.8-1.9-13.2-6.7-16.1-2.8-1.7-4.5-1.8-14.3-1.3-6.1.4-16 1.8-22.1 3.2-25.8 6-25.5 6-42.5 5.9-15.5 0-17.2-.2-28.5-3.3-23.5-6.4-43.9-8.1-50.2-4zM388 159.1c-47.6 2-82.6 13.8-90.1 30.4-1.7 3.6-1.9 7.2-1.9 38.5 0 39.3 0 39.1 8.3 46.7 10.2 9.4 31.4 16.5 61.2 20.5 13.4 1.8 63.5 1.8 77 0 20.3-2.7 36.1-6.9 51.8-13.7 1.5-.6 1.7-.1 1.7 4.7 0 6.4-1.3 8-10.5 12.6-17.9 8.9-45.1 13.2-82.9 13.3-12 0-22.6.4-23.6.9-2.8 1.5-4.5 6.6-3.2 9.5 2.4 5.3 4.3 5.6 27.9 5.6 36.4 0 66.1-4.6 85.2-13.2 3.5-1.6 6.5-2.9 6.7-2.9.2 0 .4 2.4.4 5.4 0 4.9-.3 5.7-3.2 8.2-10.8 9-39.1 15.7-74.8 17.5-11.3.6-21.5 1.5-22.8 2-5.2 2.1-5.3 9.3 0 13.2 2.6 2 3.3 2 23.5.8 33.2-1.8 57-6.4 71.5-13.7 2.6-1.3 5-2.4 5.3-2.4.3 0 .5 2.4.5 5.3 0 6.5-2.3 9.2-12 13.5-15.6 7.1-38.3 11.2-69.4 12.8-12.8.6-14.2.9-16.3 3-3.2 3.2-2.9 6.9.6 10.5 3.4 3.4 4 3.4 26.1 1.9 26.9-1.9 46.1-5.7 62.5-12.3l8.5-3.4v5.8c0 5.4-.2 5.9-3.7 8.8-11 9.1-42 15.9-79.3 17.6-16 .7-18.4 1.5-19.5 6.5-.8 3.8 1.4 7.6 5.3 9.1 3.3 1.3 35.6-.4 50.6-2.7 30.5-4.5 52.1-13.7 59.1-24.9l3-4.8.3-97.6c.3-110.2.8-102.4-7.7-110.4-7.4-6.9-24.7-14.7-32.7-14.7-6.3 0-9.8 8.5-5.1 12.7 1.2 1.2 5.1 3.1 8.7 4.3 8.7 2.9 17.9 7.9 19.7 10.6 1.9 3 .5 5.6-5 8.8-15.5 9.1-42.1 14.4-76.7 15.3-40 1.1-76-4.6-93.8-14.8-6.5-3.7-8.3-7-5.6-10.1 5-5.6 26.3-12.9 47.5-16.3 14.7-2.4 55.9-3.2 73.2-1.4 7.3.8 14.1 1.3 15.2 1.1 2.7-.3 6.5-4.8 6.5-7.7 0-1.3-1-3.5-2.2-4.9-2.8-3.2-9.8-4.3-30.3-5.1-7.7-.3-15.3-.7-17-.8-1.6-.2-10 0-18.5.4zm-58.5 66.4c43.2 14.1 124.4 12.1 159.1-4l7.4-3.4v5.5c0 4.4-.5 5.9-2.4 7.9-7.4 7.4-32.9 14.8-60.5 17.5-13.3 1.3-44.9 1.3-58.2 0-27.6-2.7-53.1-10.1-60.5-17.5-2-2-2.4-3.5-2.4-8V218l5 2.5c2.7 1.4 8.3 3.6 12.5 5zm-11 27c21.6 9.6 54.4 14.2 94.4 13.2 36-.9 58.2-5 81.9-15.4 1-.4 1.2.8 1 5.3-.3 5.8-.4 6-5 9-8.8 5.9-24.2 10.7-45.3 14.1-15.8 2.6-67.2 2.6-83 0-21.1-3.4-36.5-8.2-45.3-14.1-4.6-3-4.7-3.2-5-8.9-.2-3.1-.1-5.7.1-5.7.3 0 3 1.1 6.2 2.5z"/><path d="M274 282.6c-1.4.2-5.6.9-9.5 1.5-12.4 2-31.2 9.5-35.5 14.1-2.7 3-2.6 7.3.5 10.3 3.3 3.4 6 3.1 15.7-1.5 13.5-6.5 22-8.3 38.3-8.3 17 0 25.1 1.9 40 9.2 17.7 8.7 30.6 21.6 39.5 39.6 7.1 14.2 9.2 23 9.3 39 .1 10.3-.3 14.8-2.1 21.8-8.4 33.5-34.9 59.2-68.3 66.2-10.3 2.2-28.5 1.9-38.8-.5-25.8-6.2-47.3-23.5-59.5-47.7-10-20-11.7-45.2-4.5-66.8 3.8-11.5 8.3-19.4 17-30.2 7.1-8.9 8.2-12 5.5-15.5-1.9-2.5-6.2-3.9-8.8-2.9-6.8 2.7-20.6 21.9-26.8 37.4-21 52.5 4.3 113.5 56.3 135.4 15.2 6.4 22.3 7.7 41.2 7.8 15.4 0 17.9-.3 26.7-2.7 36.7-10.2 63.7-36.9 74.3-73.3 4.5-15.8 4.9-36.1 1-53-7.5-32.5-32.9-61.3-64.5-73.1-4.9-1.9-12.2-4.1-16.2-4.9-7.3-1.6-26.1-2.7-30.8-1.9z"/><path d="M276.9 318.9c-2.8 2.8-2.9 3.3-2.9 12v9.1h-3.4c-9.2 0-18 6.1-22.7 15.6-2.9 5.8-3.1 7.1-2.7 13.1.8 11.2 6.3 19.3 16.3 23.9 4.5 2.1 6.4 2.4 19.1 2.4 13 0 14.4.2 17.5 2.3 1.8 1.2 4 3.4 4.7 4.7 2 3.9.8 9.8-2.7 13.4l-3.1 3.1-13.8.3c-13 .3-13.9.2-17.2-2-2.5-1.7-3.9-3.7-4.9-6.8-2.2-7.3-3.5-9.4-6.4-10.5-3.5-1.2-7.4.8-9.6 4.7-1.2 2.1-1.3 3.4-.2 8.2 2.6 11.5 11 19.6 22.9 21.9l6 1.1.4 9.4c.3 8.4.5 9.6 2.7 11.3 3.2 2.6 7.7 2.4 10.6-.6 2.3-2.2 2.5-3.2 2.5-11.3v-8.9l5.1-.7c9.8-1.3 17.4-6.7 22-15.6 1.8-3.5 2.4-6.1 2.4-12 0-6.6-.4-8.2-3.1-13-6.5-11.5-14.7-15-35.2-15h-13.4l-3.4-3.4c-2.9-2.9-3.4-4.1-3.4-8.1s.5-5.2 3.4-8.1l3.4-3.4h14.4c11.4 0 14.8.3 16.6 1.6 2.7 1.9 5.2 6.5 5.2 9.7 0 4.2 3.6 7.7 8 7.7 13.9 0 7.9-25.1-7.8-32.6-2-1-6.1-2-8.9-2.2l-5.3-.4V331c0-10.4-.4-11.6-4.1-13.5-4-2.1-5.7-1.9-9 1.4z"/></svg>