<svg xmlns="http://www.w3.org/2000/svg" width="682.667" height="682.667" version="1.0" viewBox="0 0 512 512"><path d="M240.8 45c-33.8 6.1-61.8 32-70.9 65.5-3 11-3.3 31.6-.5 42.5 5.6 21.8 18.6 40.9 36 53 7 4.8 20.3 10.8 29.1 13.1 11.3 3 31.7 3 43 0 8.8-2.3 22.1-8.3 29.1-13.1 17.4-12.1 30.4-31.2 36-53 2.8-10.9 2.5-31.5-.5-42.5-8.2-30.4-30.2-53.1-61.1-63-7.1-2.3-10.7-2.8-22-3.1-7.4-.1-15.6.1-18.2.6zm29.1 30.5c10.1 2.4 19.6 7.9 27.7 16 33 33.2 16 89.4-30.1 99-13.2 2.8-24.8 1.1-38.1-5.4-29.1-14.4-40.5-49.6-25.7-79.3 7-14 22.8-26.5 37.9-30.2 7.8-1.9 20.4-1.9 28.3-.1zM84.5 128.4c-13 3.2-23.5 9.6-33.3 20.1-26.3 28.1-22.4 74 8.1 97.1C66.4 251 77 256.1 85 258.1c7 1.7 22.9 1.7 30 0 7.8-1.9 20.5-8.2 27.3-13.6 10.2-8.1 19.6-23.2 22.8-36.5 1.8-7.7 1.6-23.1-.4-31-6-23.4-25.7-43-48.8-48.5-7.7-1.8-24.4-1.8-31.4-.1zm25.9 29.8c10.1 2.7 20.8 13 24.3 23.3 2.3 7.1 2 17.6-.7 25-3.2 8.3-12.3 17.4-20.5 20.5-13.1 4.9-27.7 2.2-37.8-7-19.9-18.1-14.1-50.3 10.9-60.5 6.7-2.8 16.4-3.3 23.8-1.3zM395.6 128.5c-22.9 5.8-42.3 25.3-48.3 48.5-2 7.9-2.2 23.3-.4 31 3.2 13.3 12.6 28.4 22.8 36.5 6.8 5.4 19.5 11.7 27.3 13.6 7.1 1.7 23 1.7 30 0 8-2 18.6-7.1 25.7-12.5 24.9-18.8 32.7-53.7 18.5-82.6-2.8-5.8-5.7-9.6-12.7-16.5-9.1-9.1-14.8-12.7-27-17-6.9-2.5-27.8-3-35.9-1zm29 30.6c25.4 9.5 31.8 42.5 11.7 60.9-10.1 9.2-24.7 11.9-37.8 7-8.2-3.1-17.3-12.2-20.5-20.5-2.7-7.4-3-17.9-.7-25 3.3-9.9 14.2-20.6 23.6-23.2 6.6-1.9 17.5-1.5 23.7.8z"/><path d="M194.4 231.9c-19.2 4.7-37.3 17.9-46.6 33.9-1.9 3.4-3.5 5.1-4.4 4.8-5.1-2-21.3-2.7-49.6-2.4-28.8.4-31.9.7-38.8 2.7-13 3.9-22.4 9.5-32.5 19.6-10 9.9-15.4 18.8-19.7 32.5-2.3 7.4-2.3 7.9-2.3 57.5 0 55 0 55.4 6.1 65.6 5.8 9.7 15.4 17.1 26.3 20.3 4.9 1.4 27.4 1.6 223.1 1.6s218.2-.2 223.1-1.6c10.9-3.2 20.5-10.6 26.3-20.3 6.1-10.2 6.1-10.6 6.1-65.6 0-49.6 0-50.1-2.3-57.5-4.3-13.7-9.7-22.6-19.7-32.5-10.1-10.1-19.5-15.7-32.5-19.6-6.9-2-10-2.3-38.8-2.7-28.3-.3-44.5.4-49.6 2.4-.9.3-2.5-1.4-4.4-4.8-6.9-11.9-18.7-22.4-32.5-28.8-14.9-6.9-16-7-76.4-6.9-47.7 0-54.6.2-60.9 1.8zm117.7 29.7c8.5 2.5 13.9 5.7 19.8 11.5 5.8 5.9 9 11.3 11.5 19.8 1.4 4.8 1.6 14 1.6 75.3V438H167v-69.8c0-75.6-.1-74.2 5.5-85.2 2.8-5.5 11.6-14.5 17-17.3 10.9-5.6 10.9-5.6 66.1-5.6 44.1-.1 51.8.1 56.5 1.5zm-176.3 37.7c.9.6 1.2 15.7 1.2 69.8V438H40.3l-3.4-2.3c-6.9-4.6-6.9-4.2-6.9-52.3 0-25.2.4-45.4 1-48.5 3.4-17.9 18.3-32.8 36-35.8 6.6-1.1 67-.9 68.8.2zm308.2-.2c18.5 2.9 33.5 17.4 37 35.8.6 3.1 1 23.3 1 48.5 0 48.1 0 47.7-6.9 52.3l-3.4 2.3H375l.2-69.3.3-69.2 3.5-.6c6-1.1 58.2-.9 65 .2z"/></svg>