<svg xmlns="http://www.w3.org/2000/svg" width="682.667" height="682.667" version="1.0" viewBox="0 0 512 512"><path d="M249.1 30.1c-1.9 1.2-57.9 41.9-124.4 90.6-78 57.2-121.6 89.7-122.8 91.7-6.5 10.6 6.1 24 17.1 18.3 1.4-.7 54.9-39.7 119-86.7 64.1-46.9 117.2-85.4 118-85.4.8 0 54.6 38.9 119.4 86.4 110.4 80.8 118.2 86.3 122.5 86.7 10.8.9 17.9-10.8 11.9-19.7-1.4-2.1-47-36.1-120.3-89.8C324.6 74.7 268.8 34 265.6 31.9c-6.9-4.5-11.3-5-16.5-1.8z"/><path d="M62.6 235c-6.5 4.2-6.1-3.6-6.4 119-.2 61.3 0 113.9.3 116.9.5 4.1 1.4 6.1 4 9l3.3 3.6 71.1.3c78.6.3 75.1.5 79.1-6.1 1.9-3.1 2-5.5 2-70.9 0-46.3.4-69.4 1.1-73 4.4-20.8 24.9-34.7 45.5-30.9 16.4 3 28.9 14.9 32.3 30.9.7 3.6 1.1 26.7 1.1 73 0 65.4.1 67.8 2 70.9 4 6.6.5 6.4 79.1 6.1l71.1-.3 3.3-3.6c2.6-2.9 3.5-4.9 4-9 .3-3 .5-55.6.3-116.9-.3-104.4-.4-111.7-2.1-114.7-4.8-8.9-18.5-8.4-23.2.7-1.3 2.5-1.5 17.5-1.5 110.5V458H323.1l-.4-62.8c-.4-70-.4-69.3-7.5-83.1-9-17.3-25.2-30.3-43.3-34.6-8.5-2-24.3-1.9-32.5.1-17.9 4.5-35.3 18.9-43.3 35.7-6.5 13.8-6.4 11.9-6.8 81.5l-.4 63.2H83V350.5c0-117.3.3-110.7-5.6-115.4-3.5-2.8-10.8-2.8-14.8-.1z"/></svg>