<svg version="1.0" xmlns="http://www.w3.org/2000/svg" width="682.667" height="682.667" viewBox="0 0 512 512"><path d="M68.5 33.4c-17.4 4.3-31.8 19.2-35.4 36.4-1.6 7.5-1.6 365 0 372.3 3.9 18.2 18.6 32.9 36.8 36.8 7.4 1.6 364.9 1.6 372.3 0 18.2-3.9 32.8-18.6 36.7-36.8 1.6-7.4 1.6-364.8 0-372.3-3.4-15.6-15.3-29.3-30.7-35.1l-5.7-2.2-184.5-.2c-144.2-.1-185.6.1-189.5 1.1zm372.1 33.2c1.5 1.1 3.7 3.3 4.8 4.8 2.1 2.7 2.1 3.1 2.4 146.4l.2 143.7-36.2-36.2c-39-38.9-38.6-38.5-47.1-36.9-2.2.4-13.6 8.3-33.2 23l-29.9 22.4-12-10.7c-6.5-5.8-25.4-22.7-42-37.4-16.6-14.8-31.7-27.6-33.6-28.4-4.8-2.1-11.1-1.2-15.7 2.3-2.1 1.6-32.9 26.1-68.6 54.6-35.6 28.5-65 51.8-65.2 51.8-1.1 0-.5-288.9.6-291.7 1.4-3.7 4.7-7.3 8.4-8.9 2.5-1.1 34.6-1.3 183.7-1.1l180.7.2 2.7 2.1zM278.4 356c35.6 31.6 66.2 58.1 67.9 58.9 9 3.8 20.1-2.7 21.4-12.6 1.1-8.1-.4-10.1-21.4-28.8-10.7-9.5-19.3-17.7-19.2-18.2.1-.4 9-7.4 19.8-15.5l19.6-14.7 40.8 40.7 40.8 40.7-.3 15.7c-.3 17.1-.7 18.4-7.2 23.2l-2.7 2.1H74.1l-2.7-2.1c-6.5-4.8-6.9-6.1-6.9-22.8v-15.3l71.4-57.1 71.5-57 3.1 2.6c1.8 1.5 32.4 28.6 67.9 60.2z"/><path d="M322.1 97.5c-17.7 3.9-34.7 17.1-42.9 33.5-9.5 18.9-9.5 39-.2 57.5 19.5 38.9 70.9 47.5 101.4 17 12.3-12.2 18.3-25.3 19.3-42 2.4-42-36.3-74.9-77.6-66zm29 34.6c6.7 3.6 9.8 6.8 13.7 14.3 2.2 4.3 2.6 6.4 2.6 13.6.1 7.8-.2 9-3.3 14.8-3.8 7-7 10-14.5 14-4.3 2.2-6.4 2.6-13.6 2.6-7.2 0-9.3-.4-13.6-2.6-7.5-4-10.7-7-14.5-14-3.1-5.8-3.4-7-3.3-14.8 0-9.3 1.8-14.3 7.3-21.1 3-3.6 11.3-8.7 16.5-10 6.3-1.7 16.2-.2 22.7 3.2z"/></svg>