<svg version="1.0" xmlns="http://www.w3.org/2000/svg" width="682.667" height="682.667" viewBox="0 0 512 512"><path d="M110 1.5C81.3 5.8 58.6 17.2 37.9 37.9 16.6 59.2 5 83 1.1 112.9c-1.5 11.7-1.5 274.5 0 286.2 3.9 29.9 15.5 53.7 36.8 75 21.3 21.3 45.1 32.9 75 36.8 11.7 1.5 274.5 1.5 286.2 0 29.9-3.9 53.7-15.5 75-36.8 21.3-21.3 32.9-45.1 36.8-75 1.5-11.7 1.5-274.5 0-286.2-3.9-29.9-15.5-53.7-36.8-75C452.8 16.6 429 5 399.1 1.1 386.3-.6 121.3-.2 110 1.5zm299.7 45.2c11.3 3.9 13.8 5.2 23.1 11.6 14.8 10.2 26.5 26.1 32.4 44l3.3 10.2V256c0 137.3-.1 143.8-1.9 149.5-6.7 21.7-18.3 37.8-35.4 49.4-7.4 5-13.8 7.9-24.2 11.2l-7.5 2.4h-287l-10.2-3.3c-28-9.2-47.6-29.7-56.9-59.7-1.8-5.7-1.9-12.2-1.9-149.5s.1-143.8 1.9-149.5c7.1-22.8 19.5-39.4 38-51 7.8-4.9 21.2-10.1 29.5-11.5 2.5-.4 68.3-.7 146.1-.6l141.5.1 9.2 3.2z"/><path d="M388 86.4c-7.1 1.6-11.2 3.8-16 8.7-6.5 6.7-8.5 12-8.5 22.4 0 7.8.4 9.7 2.7 14 5.5 10.4 14.8 16.5 26.4 17.3 8.5.5 13-.7 20.1-5.5 19.9-13.4 17.6-43.9-4-54.2-7.4-3.5-13.3-4.3-20.7-2.7zM239.6 129.1c-48.3 6.7-89.5 40.3-104.5 85.5-5.1 15.4-6.5 24.3-6.5 41.4 0 17.1 1.4 26 6.5 41.5 12.1 36.2 43.3 67.3 79.7 79.5 15.2 5 24.2 6.4 41.2 6.4 17 0 26-1.4 41.2-6.4 36.4-12.2 67.6-43.3 79.7-79.5 5.1-15.5 6.5-24.4 6.5-41.5 0-22.4-4.3-40.7-14-59-18.5-34.7-50.3-58.6-88.9-66.5-9.6-2-31.4-2.8-40.9-1.4zm42.1 45.8c10.7 3.5 13.6 4.9 21.8 10.4 16.8 11.3 28.1 27 34.6 47.7 2 6.5 2.4 9.6 2.4 23 0 16.5-1.2 22.6-7.1 35.7-7.4 16.8-24.9 34.3-41.8 41.8-13 5.8-19.1 7-35.6 7s-22.6-1.2-35.6-7c-16.9-7.5-34.4-25-41.8-41.8-5.9-13.1-7.1-19.2-7.1-35.7 0-13.4.4-16.5 2.4-23 3.4-10.8 6.4-17.1 12.1-25.4 11.3-16.4 27.1-27.7 46.5-33.4 9.9-2.9 11.4-3.1 26.5-2.7 11.9.3 14.6.7 22.7 3.4z"/></svg>