<svg xmlns="http://www.w3.org/2000/svg" width="682.667" height="682.667" version="1.0" viewBox="0 0 512 512"><path d="M128.6 94.9C37.5 129.8 3.2 143.3 1.8 145 .2 147 0 149.3 0 166.9c.1 15.1.4 20 1.4 21.4 1.7 2.1 4.3 3.2 47.8 19.7l32.6 12.5.4 14.7c.3 13.6.5 14.9 2.5 16.9 2.9 2.9 7.7 2.9 10.6 0 2-1.9 2.2-3.4 2.5-13.6.2-6.3.6-11.5.8-11.5.2 0 35.2 13.3 77.7 29.5 42.6 16.2 78.4 29.5 79.7 29.5 1.7 0 82.6-30.3 115.3-43.1l4.7-1.9V361.7l-9.7 4.5c-22 10.2-44.4 17.2-68.9 21.4-14.2 2.5-18.4 2.8-38.9 2.9-25.1 0-36.4-1.1-57-5.5-33.6-7.2-70.1-23.5-96.7-43.1L98 337v-29.4c0-18.8-.4-30.4-1.1-32.5-2.5-7-11.1-6.9-13.9.3-.6 1.7-1 14.7-1 33.8 0 25.8.3 31.5 1.5 34.1 1.7 3.4 16 14.1 32.1 24 31.9 19.5 71 32.6 111.4 37.3 19.2 2.2 52.7 1.5 71-1.6 23.1-3.8 45.2-10.2 65.7-19.1 6.4-2.7 11.7-4.9 11.9-4.9.2 0 .4 6.7.4 15v15l-4.2 2.1c-10.3 5.1-15.9 13.4-16.6 24.7-.4 6.6-.2 7.8 2.7 13.7 10.4 21 38.9 21.9 50.9 1.6 2.4-4.1 2.7-5.6 2.7-13.6 0-6.9-.5-9.9-2-13-2.6-5.3-8.1-10.7-13.8-13.4l-4.7-2.3v-38.3l7.3-4.4c14.2-8.6 28.6-19.5 30.2-22.8 1.3-2.7 1.5-11.3 1.5-63v-59.8l11.8-4.4c48.8-18.5 67.4-26 68.7-27.7 1.1-1.5 1.4-6.1 1.5-21.6 0-19-.1-19.8-2.2-22.1-1.7-1.8-24.2-10.8-84.1-33.6C380.7 94 343 80 341.9 80c-2.8 0-6.9 4.4-6.9 7.4 0 5.5 1.9 6.4 75 34.1 38.8 14.7 70.9 27.1 71.3 27.5.4.4-21.3 9.1-48.3 19.4l-49.1 18.7-61.2-27.7c-33.7-15.2-62.7-28.2-64.5-28.7-6.3-2-11.3 3.7-8.7 9.9 1.1 2.6 6.6 5.3 57.4 28.3 30.9 14 55.8 25.8 55.4 26.2-.5.3-24.5 9.7-53.6 20.7L256 235.9l-112.6-43C81.4 169.3 30.5 150 30.2 150c-2.8 0 15.4-7.1 113.5-44.5L256 62.7l27.9 10.7c15.3 5.8 29.2 10.6 31 10.6 5.6 0 8.9-5.8 6.1-10.9-.5-1-3.1-2.7-5.7-3.9-12.7-5.4-58.1-22.2-59.9-22.1-1 .1-58.1 21.6-126.8 47.8zm-3.9 107.2c59.3 22.6 111.3 42.4 115.6 44.1l7.7 2.9v9c0 4.9-.3 8.9-.7 8.9-.4 0-52.8-19.9-116.5-44.2L15 178.7v-8.9c0-4.9.4-8.8 1-8.8.5 0 49.4 18.5 108.7 41.1zM497 169.9v8.8l-51.2 19.6c-28.2 10.7-52.1 19.8-53.1 20.2-1.6.7-1.8 0-1.5-8.6l.3-9.4 51.5-19.7c28.3-10.8 52.1-19.7 52.8-19.7.9-.1 1.2 2.3 1.2 8.8zm-121 46c0 7.5-.3 9-1.7 9.6-10.7 4.2-107.2 40.9-108.5 41.2-1.6.5-1.8-.4-1.8-8.5v-9l9.3-3.6c50.2-19.4 100.4-38.4 101.5-38.5.9-.1 1.2 2.3 1.2 8.8zm38 66v54.9l-3.7 3c-5 3.8-15.9 11.1-17.8 11.8-1.3.5-1.5-6-1.5-57.8v-58.5l10.8-4.1c5.9-2.2 11-4.1 11.5-4.1.4-.1.7 24.6.7 54.8zm-20.7 145.9c2.1 2.2 3.1 4.2 3.5 7.7 1.6 14.9-17 21-24.8 8.2-8.2-13.3 10.2-27 21.3-15.9z"/></svg>