<svg version="1.0" xmlns="http://www.w3.org/2000/svg" width="682.667" height="682.667" viewBox="0 0 512 512"><path d="M249.5 1.5c-22.7 5-40.5 20.9-47.6 42.7-2 6.2-2.4 9.2-2.3 19.8 0 13.5.8 16.7 6.7 29 4.3 8.8 16.7 21.2 26.2 26.2 10.2 5.3 18.1 7.2 30.5 7.1 8.8 0 11.8-.4 18.5-2.7 10.5-3.6 18.6-8.7 26.1-16.2 6.4-6.5 13.2-18.2 15.4-26.4 5-18.2 2-37.4-8.2-52.5-14.4-21.6-40.7-32.4-65.3-27zM123.5 53.7c-19.3 2.3-36.6 14.5-45 31.7-14.7 29.7-2.9 63.7 27.1 78.4 7.9 3.9 15.1 5.5 24.8 5.4 26.6-.1 48.6-16.9 56.2-42.8 2.1-7.1 2.3-20.6.5-28.4-6.7-28.4-34.6-47.9-63.6-44.3zM381 72.7c-10.3 3.6-18.9 11.2-23.5 20.9-7.4 15.6-4.9 32.2 6.8 45 8.2 9 17.7 13.4 29.3 13.4 11.9 0 22.1-4.6 30.5-13.8 10.6-11.6 13.5-26.7 7.9-41.3-4.2-11.1-12.4-19.2-23.8-23.6-7-2.7-20.3-3-27.2-.6zM53 177.6c-22.8 4.1-39.8 18.7-46.1 39.7-2.5 8.3-2.7 21.7-.4 30.1 4.9 18.3 20.2 33.7 38.7 39.1 7 2 20.6 2.2 27.9.5 13.7-3.2 29.7-15.4 36.2-27.7 6.1-11.4 8.1-26.7 5.2-39.2-5.6-23.8-26.2-41-50.6-42.5-4.6-.2-9.5-.2-10.9 0zM459 190.1c-10.8 1.4-17.8 4.8-25.4 12.5-23.1 23.5-12.9 62.2 19.1 71.9 13.6 4.2 31.1-.4 41.6-10.9 9.4-9.4 13.1-19.3 12.5-33.1-.3-8.2-.8-10.1-4.1-16.7-8.1-16.5-25.5-25.9-43.7-23.7zM71.3 319.5c-23.6 6.4-39.7 27.3-39.7 51.5 0 39.6 41.2 64.8 77.3 47.3 8.3-4 18.4-14.2 22.6-22.7 5.2-10.4 7.2-21.6 5.7-32-3.1-21.3-18.7-38.6-39.8-44.1-7.2-1.9-19.2-1.8-26.1 0zM429.1 326.6c-21.8 5.8-36.6 26.2-34.8 47.8 1.9 21.1 17.3 37.9 38.6 41.8 13.2 2.5 28.7-2.7 39-12.9 17.7-17.8 17.8-46.7.2-64.4-11.6-11.5-28.2-16.3-43-12.3zM185 411.1c-11.9 1.7-24.6 8.7-31.8 17.4-16.9 20.6-15.1 51.4 4.2 69.2 31.3 29 80.4 10.4 85.1-32.2 2.1-18.9-9.5-40-27-49.1-9.2-4.8-20.7-6.8-30.5-5.3zM320.3 414.5c-30.3 8.2-44.9 41.9-30.2 69.5 8.3 15.6 24.4 25.1 42.4 25.1 35.6-.1 58.5-37.1 42.8-69.1-10-20.4-33.5-31.3-55-25.5z"/></svg>