<svg version="1.0" xmlns="http://www.w3.org/2000/svg" width="682.667" height="682.667"
    viewBox="0 0 650 650">
	  <path id="Path_1" data-name="Path 1" d="M377.81,445.607c5.927-4.221,10.16-8.442,16.087-13.507-9.314-8.442-16.934-16.04-24.554-23.638l-23.707-23.638c-3.387-3.377-5.927-3.377-9.314-.844-63.5,43.055-130.39,51.5-199.819,18.573C68.767,371.317,30.666,315.6,24.739,241.308,18.813,165.329,49.293,103.7,113.642,61.49c117.69-75.979,274.328-7.6,298.882,130.009,10.16,54.874-2.54,104.682-34.714,150.27-.847,1.688-1.693,2.533-2.54,4.221v.844c16.934,16.884,34.714,33.769,52.495,52.341,3.387-4.221,7.62-9.286,11.007-13.507A23.147,23.147,0,0,1,443,389.045L610.65,556.2c12.7,12.663,16.934,28.7,10.16,45.588-5.927,16.884-18.627,26.171-35.561,27.859-14.394,1.688-26.247-3.377-36.408-13.507L396.437,464.18C391.357,457.426,385.43,452.361,377.81,445.607ZM219.478,385.668c87.209.844,159.178-70.914,160.025-157.024C380.35,140,309.228,68.244,221.172,67.4A159.858,159.858,0,0,0,59.454,226.112C59.454,313.91,131.422,384.824,219.478,385.668Z" transform="translate(0 0)" fill="#5b6c46"/>
	  <path id="Path_2" data-name="Path 2" d="M256.985,128.98c4.239,15.261-4.239,23.74-14.413,32.218C183.222,212.07,92.5,206.983,38.239,151.025,35.7,148.481,34.848,144.242,34,140.85c0-9.326,0-19.5.848-28.827C37.391,84.044,59.436,59.457,87.415,54.37c4.239-.848,5.935,0,8.479,3.391,26.283,33.914,73.763,33.914,100.046,0,2.544-3.391,4.239-4.239,8.478-3.391,29.675,5.935,51.719,32.218,53.415,61.893A64.17,64.17,0,0,0,256.985,128.98Z" transform="translate(74.678 179.071)" fill="#5b6c46"/>
	  <path id="Path_3" data-name="Path 3" d="M102.441,162.034c-34.762,0-62.741-27.131-62.741-61.893,0-35.61,27.979-62.741,62.741-62.741s62.741,27.979,61.893,62.741C165.182,134.055,137.2,162.034,102.441,162.034Z" transform="translate(117.076 55.597)" fill="#5b6c46"/>
  </svg>
  