
<svg version="1.0" xmlns="http://www.w3.org/2000/svg" width="600" height="600"
    viewBox="0 0 640 640">
	  <path id="Path_1" data-name="Path 1" d="M282.125,180.9c10.469,3.141,12.562,6.281,13.609,17.8a90.533,90.533,0,0,1-13.609,50.25C270.609,263.6,267.469,281.4,259.094,297.1a115.721,115.721,0,0,1-52.344,50.25c-32.453,14.656-61.766,8.375-88.984-12.562A121.28,121.28,0,0,1,74.844,266.74a8,8,0,0,0-2.094-5.234A44.22,44.22,0,0,1,56,233.24a162.738,162.738,0,0,1-7.328-32.453c-1.047-12.563,2.094-15.7,12.563-19.891a298.506,298.506,0,0,1-4.188-41.875A96.386,96.386,0,0,1,84.266,69.928a121.28,121.28,0,0,1,68.047-42.922A97.82,97.82,0,0,1,253.859,61.553c1.047,1.047,2.094,3.141,4.188,3.141,17.8,5.234,25.125,19.891,30.359,35.594a128.828,128.828,0,0,1,1.047,56.531,105.739,105.739,0,0,0-7.328,24.078Z" transform="translate(100.8 0)"/>
	  <path id="Path_2" data-name="Path 2" d="M167.081,221.312l-64.906,64.906-16.75,16.75a18.844,18.844,0,0,1-29.312-2.094,18.331,18.331,0,0,1-1.047-28.265l97.359-97.359a19.2,19.2,0,0,1,30.359,1.047c32.453,32.453,64.906,64.906,96.312,97.359,1.047,1.047,2.094,2.094,2.094,3.141,58.625-58.625,117.25-116.2,176.921-175.875-7.328-7.328-15.7-14.656-23.031-21.984a19.085,19.085,0,0,1-5.234-11.516c1.047-6.281,7.328-6.281,11.516-6.281,27.219-1.047,53.39-2.094,80.609-3.141,9.422,0,12.562,3.141,12.562,12.562-1.047,26.172-2.094,53.39-3.141,79.562a19.419,19.419,0,0,1-7.328,12.562c-2.094,1.047-8.375-2.094-11.516-4.188-8.375-7.328-15.7-15.7-24.078-24.078-14.656,15.7-29.312,30.359-43.969,45.016L300.033,323.905c-11.516,11.516-19.891,11.516-32.453,0l-94.218-94.219a28.9,28.9,0,0,0-6.281-8.375Z" transform="translate(103.223 291.362)"/>
	  <path id="Path_3" data-name="Path 3" d="M192.111,55.3c10.469,32.453,20.937,65.953,31.406,99.453,2.094,6.281,4.187,13.609,6.281,19.891,2.094,4.188,0,7.328-3.141,10.469C199.439,212.331,172.22,239.549,145,265.721a12.929,12.929,0,0,1-8.375,4.188H40.315c-1.047,0-1.047,0-2.094-1.047,0-21.984-1.047-42.922,0-64.906A263.575,263.575,0,0,1,46.6,147.425c6.281-25.125,23.031-39.781,47.109-50.25C127.2,85.659,158.611,69.956,192.111,55.3Z" transform="translate(0 265.796)"/>
	  <path id="Path_4" data-name="Path 4" d="M135.55,256.2c-19.891-19.891-37.687-39.781-58.625-57.578a28.266,28.266,0,0,1-8.375-37.687c11.515-32.453,20.937-64.906,31.406-97.359C101,60.434,102.05,58.341,103.1,55.2c16.75,8.375,33.5,17.8,51.3,26.172,18.844,9.422,38.734,16.75,57.578,25.125a74.234,74.234,0,0,1,32.453,34.547,8.2,8.2,0,0,1-1.047,8.375C206.737,185.012,171.144,219.559,135.55,256.2Z" transform="translate(252.809 272.372)"/>
	  <path id="Path_5" data-name="Path 5" d="M134.942,261.918c-14.656,0-14.656,0-14.656-14.656,0-11.516,0-11.516-11.516-13.609a235.544,235.544,0,0,1-25.125-8.375,8.176,8.176,0,0,1-5.234-10.469,87.216,87.216,0,0,0,4.187-15.7c2.094-6.281,4.187-7.328,11.516-5.234a100.627,100.627,0,0,0,30.359,8.375,37.593,37.593,0,0,0,18.844-2.094,14.96,14.96,0,0,0,4.188-27.219,239.751,239.751,0,0,0-28.266-14.656,181.9,181.9,0,0,1-19.891-10.469A43.885,43.885,0,0,1,78.411,103.84a43.016,43.016,0,0,1,29.312-37.687,17.8,17.8,0,0,0,13.609-20.937c-1.047-9.422,1.047-10.469,10.469-11.516h6.281c9.422,0,10.469,1.047,11.516,11.516,0,12.562,0,12.562,12.562,15.7,1.047,0,1.047,0,2.094,1.047,29.312,8.375,23.031,7.328,16.75,31.406-1.047,6.281-5.234,6.281-10.469,5.234a161.942,161.942,0,0,0-32.453-6.281,35.593,35.593,0,0,0-10.469,1.047,12.96,12.96,0,0,0-5.234,23.031,41.078,41.078,0,0,0,14.656,8.375c10.469,5.234,21.984,9.422,31.406,14.656A47.214,47.214,0,0,1,192.52,187.59a48.46,48.46,0,0,1-33.5,41.875c-8.375,3.141-12.562,7.328-11.516,15.7v2.094C149.6,261.918,149.6,261.918,134.942,261.918Z" transform="translate(378.236 84.752)"/>
	  <path id="Path_6" data-name="Path 6" d="M100.87,131.123H76.792c-1.047-3.141-3.141-7.328-4.188-10.469-4.187-10.469-10.469-19.891-13.609-30.359A21.45,21.45,0,0,1,74.7,60.982a42.43,42.43,0,0,1,35.594,3.141,21.89,21.89,0,0,1,8.375,28.266A201.351,201.351,0,0,1,106.1,118.56,64.03,64.03,0,0,0,100.87,131.123Z" transform="translate(184.54 306.811)"/>
  </svg>
  