<svg version="1.0" xmlns="http://www.w3.org/2000/svg" width="682.667" height="682.667" viewBox="0 0 512 512"><path d="m394.5 32-51 15.9h-29.3l-29.3.1-2.4 2.5c-2.1 2-2.5 3.4-2.5 8V64h-9.5c-8.8 0-9.8.2-12 2.5-2.5 2.4-2.5 2.6-2.5 21.5s0 19.1 2.5 21.5c2.2 2.3 3.2 2.5 12 2.5h9.5v8h-48V44.9l-2.5-2.4-2.4-2.5H60.9l-2.4 2.5-2.5 2.4V120h-9.6c-5.3 0-11.5.5-13.8 1.2-5.5 1.6-13.8 9.9-15.4 15.4-1.7 6-1.7 264.8 0 270.8 1.6 5.5 9.9 13.8 15.4 15.4 3.1.9 27.2 1.2 97.8 1.2H224v24h-51.1l-2.4 2.5c-2.5 2.4-2.5 2.6-2.5 21.5s0 19.1 2.5 21.5l2.4 2.5h166.2l2.4-2.5c2.5-2.4 2.5-2.6 2.5-21.5s0-19.1-2.5-21.5l-2.4-2.5H288v-24h93.6c70.6 0 94.7-.3 97.8-1.2 5.5-1.6 13.8-9.9 15.4-15.4 1.7-6 1.7-264.8 0-270.8-1.6-5.5-9.9-13.8-15.4-15.4-2.3-.7-8.5-1.2-13.8-1.2H456v-8h5.6c8.7 0 13.3-1.8 18.9-7.5 10.2-10.1 10.2-22.9 0-33-5.6-5.7-10.2-7.5-18.9-7.5H456V42.5c0-21.6 0-21.6-2.5-24-1.5-1.6-3.5-2.5-5.2-2.4-1.5 0-25.7 7.2-53.8 15.9zM440 88.1c0 50-.1 53-1.7 52.5-3.7-1.1-83.9-25.7-85.1-26.1-1-.4-1.2-6.2-1-26.6l.3-26.1 43-13.3c23.7-7.4 43.3-13.4 43.8-13.4.4-.1.7 23.8.7 53zM216 112v56H72V56h144v56zm120-24v24h-40V64h40v24zm-56 0v8h-8V80h8v8zm189.5-5.5c1.6 1.5 2.5 3.6 2.5 5.5 0 5.1-3.8 8-10.5 8H456V80h5.5c4.6 0 6 .4 8 2.5zm-151 47.7c-.2 1.3-1.4 9-2.5 17.3-3.1 22.3-2.4 20.5-7.6 20.5H304v-40h7.5c7.3 0 7.5.1 7 2.2zm76.3 13.8c28.5 8.8 52.9 16 54.1 16 1.2 0 3.3-1.1 4.6-2.5 2.3-2.2 2.5-3.2 2.5-12V136h9.5c8.8 0 9.8.2 12 2.5l2.5 2.4V376H32V140.9l2.5-2.4c2.2-2.3 3.2-2.5 12-2.5H56v21.5c0 21.6 0 21.6 2.5 24l2.4 2.5h166.2l2.4-2.5c2.5-2.4 2.5-2.4 2.5-24V136h56v21.5c0 28.2-1.2 26.5 20 26.5 20.4 0 18.7 2.1 22.9-28 4.3-30.5 3.5-28 8.1-28 2.1 0 27.2 7.2 55.8 16zM480 397.5c0 4.6-.4 6-2.5 8l-2.4 2.5H36.9l-2.4-2.5c-2.1-2-2.5-3.4-2.5-8V392h448v5.5zM272 436v12h-32v-24h32v12zm56 36v8H184v-16h144v8z"/><path d="m122.5 82.5-2.5 2.4v54.2l2.5 2.4c1.4 1.5 3.5 2.5 5.2 2.5 1.5-.1 14.5-6 28.8-13.3 28.1-14.2 29.1-15.1 26.9-21.5-.8-2.3-4.8-4.7-26.9-15.9-14.3-7.3-27.3-13.2-28.8-13.3-1.7 0-3.8 1-5.2 2.5zM157 112c0 .3-4.7 2.9-10.5 5.8L136 123v-22l10.5 5.2c5.8 2.9 10.5 5.5 10.5 5.8zM290.5 202.5l-2.5 2.4v102.2l2.5 2.4c2.2 2.3 3.2 2.5 12 2.5h9.5v13.5c0 13.1.1 13.7 2.5 16l2.4 2.5h142.2l2.4-2.5 2.5-2.4V236.9l-2.5-2.4c-2-2.1-3.4-2.5-8-2.5H448v-13.5c0-13.1-.1-13.7-2.5-16l-2.4-2.5H292.9l-2.4 2.5zM432 224v8H316.9l-2.4 2.5-2.5 2.4V296h-8v-80h128v8zm16 64v40H328v-80h120v40z"/><path d="M344 272v8h16v-16h-16v8zM376 272v8h56v-16h-56v8zM344 304v8h32v-16h-32v8zM392 304v8h40v-16h-40v8zM50.5 218.5l-2.5 2.4v134.2l2.5 2.4 2.4 2.5h214.2l2.4-2.5 2.5-2.4V220.9l-2.5-2.4-2.4-2.5H52.9l-2.4 2.5zm184.4 13.9c-1.4 1.3-74.1 45.6-74.8 45.6-.8 0-73.4-44.2-75-45.6-.2-.2 33.5-.4 74.9-.4 41.4 0 75.1.2 74.9.4zm-123.5 35.1C137 283.2 158.8 296 160 296c1.3 0 23.1-12.8 48.7-28.5 25.5-15.7 46.5-28.5 46.8-28.5.3 0 .5 23.6.5 52.5V344H64v-52.5c0-28.9.3-52.5.6-52.5s21.4 12.8 46.8 28.5z"/></svg>