<svg xmlns="http://www.w3.org/2000/svg" width="682.667" height="682.667" version="1.0" viewBox="0 0 512 512"><path d="M243.5 83.8c-5.6 3.1-10.9 9.5-12.5 15-.5 2-1 6.2-1 9.3 0 5.5-.1 5.7-7.8 15-25.3 30.4-61.8 57.3-99.7 73.6-7.3 3.1-8.1 3.3-9 1.7-.5-.9-2.1-3-3.4-4.6-4.8-5.8-4.5-5.8-46.9-5.8H24.3l-6.1 3c-6.9 3.5-12.5 9.2-15.6 15.9-2 4.5-2.1 5.8-2.1 49.1v44.5l2.8 5.7c3.2 6.6 9.8 12.8 16.2 15.5l4.5 1.8v32.6c0 36.4.4 39.2 6.5 47.2 2.5 3.2 5.5 5.5 10.2 7.9 6.6 3.2 7 3.3 19.8 3.3 7.9 0 14.8-.5 17.6-1.3 6.6-2 13.7-7.8 17.3-14.2 3.1-5.5 3.1-5.6 3.4-22.6l.4-17.1 7.3-.6c8.7-.8 12-1.9 15.9-5.5 4.8-4.5 6.6-9.6 6.6-19.2 0-6.3-.5-9.6-2-12.8l-2-4.3 12.8 6.6c31.6 16.5 61.7 40 84.4 66 7.7 8.8 7.8 9 7.8 14.5 0 11.4 4.7 19.6 13.9 24.2 14 7.1 32-.4 36.1-15 .5-2 1-12.8 1-24 0-20.2 0-20.3-2.5-22.7-1.3-1.4-3.6-2.5-5-2.5s-3.7 1.1-5 2.5c-2.5 2.4-2.5 2.5-2.5 22 0 20.7-.6 24.2-4.9 26.5-2.5 1.3-8.7 1.3-11.2 0-5.1-2.8-4.9 5-4.9-159 0-133.7.2-152.5 1.5-155 1.9-3.7 4.3-5 9-5s7.1 1.3 9 5c1.3 2.5 1.5 17.4 1.5 119.3 0 115.7 0 116.3 2 118.5 1.4 1.4 3.3 2.2 5.5 2.2s4.1-.8 5.5-2.2c1.9-2 2-3.4 2-23.3v-21.1l5.8-1.8c25.9-8.1 33-15.1 34-33.5.6-10.2-.9-17.5-4.9-23.4-4.1-6.3-9.7-9.7-23.3-14.3l-11.6-3.9V160c0-36.5-.4-58.9-1-61.2-1.6-5.5-6.9-11.9-12.5-15-4.1-2.3-6.3-2.8-12-2.8s-7.9.5-12 2.8zM230 256.5v118.4l-10.9-10.8c-24.8-24.6-56.7-46.5-89.8-61.6-6.7-3-12.7-5.5-13.3-5.5-.7 0-.9-12.9-.8-40.5l.3-40.5 14.5-6.3c34-14.8 64.7-35.7 89-60.8 5.8-5.9 10.6-10.8 10.8-10.9.1 0 .2 53.3.2 118.5zM99.8 214.2c.3 10.5.2 10.8-2 11.3-29.9 6.9-30.6 7.2-34.5 14.1-2 3.5-2.3 5.3-2.3 16.4 0 11.1.3 12.9 2.3 16.4 3.9 6.9 4.7 7.2 34.5 14.1 2.1.5 2.2 1 2.2 11 0 9.5-.2 10.5-2.1 11.5-1.4.8-12.6 1-36.3.8l-34.3-.3-4.2-2.8c-8-5.3-8.1-5.6-8.1-50.7 0-39.1 0-39.6 2.3-44 1.2-2.5 3.7-5.5 5.6-6.8 3.4-2.2 3.4-2.2 40-2l36.6.3.3 10.7zM290 236.5c13.3 4.5 16 7.8 16 19.5 0 8.2-1.8 12.5-6.3 15.4-2.2 1.5-16.1 6.6-17.9 6.6-.4 0-.8-9.9-.8-22s.4-22 .8-22c.5 0 4.2 1.1 8.2 2.5zM100 256c0 12.4-.3 15-1.4 15-1.5 0-11.8-2.3-18.8-4.1l-3.8-1v-19.8l3.8-1c22-5.9 20.2-6.9 20.2 10.9zM84 356.6c0 35.4-.2 36.5-6.9 40.6-3.2 2.1-4.9 2.3-15.8 2.3-13.5 0-15.4-.7-20-7.5-2.3-3.2-2.3-3.8-2.3-35.1V325h45v31.6zm28.8-30.4c.7.7 1.2 4 1.2 7.9 0 8.2-1.1 9.4-8.9 9.4h-5.6l-.3-9.3-.3-9.2h6.4c3.6 0 6.8.5 7.5 1.2zM373.5 85.4c-2.7 1.2-6.7 4.1-8.7 6.4-6.4 7.1-7.1 9.6-7.6 29.4l-.4 17.7L346 146c-13.7 9-14.5 10-14.5 16s.8 7 14.5 16l10.8 7.1.4 17.7c.5 19.9 1.2 22.4 7.9 29.7 2.2 2.3 6.3 5.3 9.2 6.6l5.2 2.4H435c50.5 0 55.8-.2 59.3-1.7 6.2-2.8 11.1-7.3 14.3-13l2.9-5.3.3-57.3c.2-37.5-.1-58.6-.8-61.1-1.6-6.1-7-13.2-12.4-16.6-4.8-2.9-5.4-3-18.7-3.3-12.8-.3-13.9-.2-15.8 1.7-2.2 2.2-2.7 6.1-1.1 9.1 1.5 2.8 6.4 4 16.2 4 6.7 0 9.7.4 11.9 1.7 6 3.5 5.9 2.9 5.9 62.3 0 59.8.1 58.7-6.3 62.5-3.1 1.9-5.4 2-56.2 2-49 0-53.3-.1-55.8-1.8-5.7-3.7-6.2-5.5-6.7-26.2-.3-12-.9-19.8-1.7-21.1-.7-1.1-5.5-4.9-10.7-8.4-5.3-3.4-9.6-6.6-9.6-7 0-.4 4.3-3.6 9.6-7 5.4-3.6 10.1-7.5 11-9.1 1-2.1 1.4-6.9 1.4-19.1 0-18.5.8-22.6 5.1-26.2l3.1-2.6h25.7c26.6 0 31.3-.6 33.1-4 1.6-3 1.2-6.8-1-9-1.9-1.9-3.3-2-30.7-2-28.1 0-28.9.1-33.8 2.4z"/><path d="M399.2 123.3c-3.1 3.3-2.9 8 .4 10.6 2.5 2 4 2.1 21.9 2.1s19.4-.1 21.9-2.1c3.3-2.6 3.6-7.9.6-10.9-1.9-1.9-3.3-2-22.3-2-20 0-20.4 0-22.5 2.3zM399.2 153.3c-3.1 3.3-2.9 8 .4 10.6 2.6 2 3.8 2.1 33.4 2.1 34.2 0 34.3 0 35.6-6.7.5-2.6.1-3.7-1.9-5.7l-2.6-2.6h-62.8l-2.1 2.3zM399.2 183.3c-3.1 3.3-2.9 8 .4 10.6 2.6 2 3.8 2.1 33.4 2.1 34.2 0 34.3 0 35.6-6.7.5-2.6.1-3.7-1.9-5.7l-2.6-2.6h-62.8l-2.1 2.3zM373.5 273.4c-2.7 1.2-6.7 4.1-8.7 6.4-6.4 7.1-7.1 9.6-7.6 29.4l-.4 17.7L346 334c-13.7 9-14.5 10-14.5 16s.8 7 14.5 16l10.8 7.1.4 17.7c.5 19.9 1.2 22.4 7.9 29.7 2.2 2.3 6.3 5.3 9.2 6.6l5.2 2.4H435c50.5 0 55.8-.2 59.3-1.7 6.2-2.8 11.1-7.3 14.3-13l2.9-5.3V350c0-59.4 0-59.5-2.2-63.6-3.5-6.5-6.9-10-12.5-12.8l-5.2-2.6H378.5l-5 2.4zm117.6 14.3c6 3.5 5.9 2.9 5.9 62.3 0 59.8.1 58.7-6.3 62.5-3.1 1.9-5.4 2-56.2 2-49 0-53.3-.1-55.8-1.8-5.7-3.7-6.2-5.5-6.7-26.2-.3-12-.9-19.8-1.7-21.1-.7-1.1-5.5-4.9-10.7-8.4-5.3-3.4-9.6-6.6-9.6-7 0-.4 4.3-3.6 9.6-7 5.4-3.6 10.1-7.5 11-9.1 1-2.1 1.4-6.9 1.4-19.1 0-18.5.8-22.6 5.1-26.2l3.1-2.6h54c49.1 0 54.3.2 56.9 1.7z"/><path d="M399 315c-2.5 2.5-2.6 7.4-.1 9.9 2.9 2.9 6.9 3.3 25.9 2.9 19.5-.3 21.2-1 21.2-7.8 0-6.7-.9-7-24.3-7-19.4 0-20.8.1-22.7 2zM399 345c-4.3 4.3-1.4 11.3 5.2 12.5 1.8.3 16.1.5 31.6.3l28.4-.3 2.4-2.8c2.9-3.4 3-5.6.3-9.1l-2-2.6h-32c-30.6 0-32 .1-33.9 2zM399 375c-4.3 4.3-1.4 11.3 5.2 12.5 1.8.3 16.1.5 31.6.3l28.4-.3 2.4-2.8c2.9-3.4 3-5.6.3-9.1l-2-2.6h-32c-30.6 0-32 .1-33.9 2z"/></svg>