<svg xmlns="http://www.w3.org/2000/svg" width="682.667" height="682.667" version="1.0" viewBox="0 0 512 512"><path d="M227.5 43.1C101.9 80.1 81.2 86.4 79.2 88.6L77 91.1v207.7c.1 161.7.3 208.1 1.3 209.3.7.9 2.2 2.1 3.4 2.7 3.1 1.7 345.5 1.7 348.6 0 1.2-.6 2.7-1.8 3.4-2.7 1-1.2 1.2-47.6 1.3-209.3V91.1l-2.4-2.8-2.4-2.8-23.1-.3-23.1-.3V5.8l-2.9-2.9c-1.7-1.6-4-2.9-5.3-2.8-1.3 0-68 19.3-148.3 43zM367 52.5V85l-110.2-.1H146.5L256 52.5c60.2-17.8 109.8-32.4 110.3-32.4.4-.1.7 14.5.7 32.4zm51 246V495H94V102h324v196.5z"/><path d="M271 136.8c-.8.2-2.5 1.4-3.7 2.5l-2.3 2v37.4c0 22.1.4 38.2 1 39.2 1.6 3.1 6.5 4.6 10.1 3 5-2 5.9-5.7 5.9-23.1l.1-15.3 9.4 18.6c7.8 15.4 10 18.9 12.3 19.8 3.5 1.5 7.4.6 9.9-2.1 1.7-1.8 1.8-4.8 2.1-36.7.2-19 0-36.1-.3-37.9-.8-4.5-4.1-7.2-8.5-7.2-6.8 0-7.4 1.7-8 21.9l-.5 17.6-9.2-18c-5.1-9.9-9.6-18.6-10.1-19.3-1-1.5-6.2-3.1-8.2-2.4zM139.2 139.3c-2.2 2.3-2.2 2.7-2.2 39.6 0 21.9.4 38 1 39 1.6 3.1 6.5 4.6 10.1 3 5.1-2.1 5.9-5.4 5.9-26.1v-18.3l4.5 7.5c9.4 15.8 14.7 16.1 23.8 1.1l5.2-8.6.5 20.2c.4 17.2.8 20.5 2.2 22.2 3.7 4.3 10.9 3.3 13.5-1.9 1.7-3.3 1.9-70.1.2-74.9-1.3-3.7-3.5-5.1-8.2-5.1-4.4 0-5.6 1.4-16.2 19.3-4.8 8.1-8.9 14.6-9 14.5-.2-.2-4.2-6.8-9-14.8s-9.6-15.5-10.8-16.8c-2.8-3-8.6-3-11.5.1zM215.9 139.6l-2.4 2.6-.3 34.6c-.4 38.2 0 41.2 4.8 43.7 3.8 1.9 29.2 2.1 33 .2 3.4-1.7 5.5-5.7 4.6-9.1-1.2-4.9-3.7-6.1-14.9-6.6l-10.2-.5-.3-8.3-.3-8.2h9.3c5.4 0 10.3-.6 11.8-1.3 5.1-2.6 6.2-8.3 2.6-13.2-1.2-1.7-2.9-2.1-12.3-2.5l-10.8-.5-.3-8.3-.3-8.2h8.6c9.8 0 14.9-1.7 16.6-5.4 1.4-3 .5-7-2.1-9.6-1.8-1.8-3.4-2-18.3-2-16.3 0-16.4 0-18.8 2.6zM327.2 139c-1.1 1.1-2.4 3.5-2.7 5.3-.4 1.8-.5 15.6-.3 30.7.3 27 .3 27.6 2.8 32.4 10 19.7 38 18.7 46.5-1.7 1.2-3 1.5-9 1.5-34v-30.4l-2.3-2.1c-3.3-3.1-8.7-2.9-11.8.4l-2.4 2.6-.3 28.1c-.1 18.6-.6 29-1.4 30.4-1.7 3.4-7 4.8-10.6 2.9-4.8-2.5-5.2-5.4-5.2-34.6 0-25.5-.1-26.8-2.1-29.4-2.6-3.3-8.4-3.6-11.7-.6zM113.5 301.6c-3.2 3.4-3.2 7.5-.1 11.1l2.4 2.8h280.4l2.4-2.8c3.1-3.6 3.1-7.7-.1-11.1l-2.4-2.6H115.9l-2.4 2.6zM114.9 351.3c-4.6 3.5-5 8.8-1 12.8l2.9 2.9h278.4l2.9-2.9c4-4 3.6-9.3-1-12.8-2.3-1.8-279.9-1.8-282.2 0zM113.9 403.9c-4 4-3.6 9.3 1 12.8 2.3 1.8 279.9 1.8 282.2 0 4.6-3.5 5-8.8 1-12.8l-2.9-2.9H116.8l-2.9 2.9z"/></svg>