<svg version="1.0" xmlns="http://www.w3.org/2000/svg" width="682.667" height="682.667" viewBox="0 0 512 512"><path d="M40.5 64.9c-9 2.2-17.3 9-21.5 17.6-3.4 6.9-3.5 19.8-.2 26.5 3.4 7.1 7.5 11.3 14.4 15.1l6.3 3.4h433l5.1-2.7c7.6-4 10.7-7 14.5-14 3.1-5.8 3.4-7 3.4-14.8 0-7.8-.3-9-3.4-14.8-3.7-6.9-7.9-10.9-15.1-14.4l-4.5-2.3-214.5-.2c-118 0-215.8.2-217.5.6zM40.5 224.9c-9 2.2-17.3 9-21.5 17.6-3.4 6.9-3.5 19.8-.2 26.5 3.4 7.1 7.5 11.3 14.4 15.1l6.3 3.4h433l5.1-2.7c7.6-4 10.7-7 14.5-14 3.1-5.8 3.4-7 3.4-14.8 0-7.8-.3-9-3.4-14.8-3.7-6.9-7.9-10.9-15.1-14.4l-4.5-2.3-214.5-.2c-118 0-215.8.2-217.5.6zM40.5 384.9c-9 2.2-17.3 9-21.5 17.6-3.4 6.9-3.5 19.8-.2 26.5 3.4 7.1 7.5 11.3 14.4 15.1l6.3 3.4h433l5.1-2.7c7.6-4 10.7-7 14.5-14 3.1-5.8 3.4-7 3.4-14.8 0-7.8-.3-9-3.4-14.8-3.7-6.9-7.9-10.9-15.1-14.4l-4.5-2.3-214.5-.2c-118 0-215.8.2-217.5.6z"/></svg>