<svg version="1.0" xmlns="http://www.w3.org/2000/svg"
 width="512.000000pt" height="512.000000pt" viewBox="0 0 512.000000 512.000000"
 preserveAspectRatio="xMidYMid meet">

<g transform="translate(0.000000,512.000000) scale(0.100000,-0.100000)"
fill="#000000" stroke="none">
<path d="M4420 4629 c-14 -5 -185 -170 -381 -365 l-356 -356 -98 43 c-355 151
-713 219 -1090 206 -197 -7 -327 -25 -509 -71 -655 -166 -1280 -645 -1727
-1325 -90 -136 -106 -175 -95 -235 8 -42 176 -296 293 -441 166 -208 402 -437
614 -597 l109 -83 -344 -345 c-373 -373 -368 -367 -351 -457 9 -48 70 -108
119 -117 89 -17 81 -23 486 379 l375 373 65 -34 c395 -204 919 -287 1369 -219
657 101 1271 484 1769 1105 114 142 280 393 288 436 10 56 -2 92 -77 224 -217
380 -477 674 -822 929 l-88 65 330 330 c286 287 330 336 336 369 14 76 -20
148 -86 182 -32 17 -92 19 -129 4z m-1645 -799 c195 -18 410 -67 578 -132 42
-16 77 -32 77 -36 0 -4 -70 -77 -156 -163 l-157 -157 -46 28 c-79 49 -193 99
-276 121 -106 29 -344 32 -447 6 -186 -46 -348 -138 -474 -269 -125 -129 -206
-276 -251 -456 -26 -103 -23 -341 6 -447 22 -83 72 -197 121 -276 l28 -46
-182 -182 -182 -182 -81 58 c-191 137 -423 350 -578 533 -79 93 -245 317 -245
330 0 4 40 63 89 130 383 526 860 895 1361 1054 265 84 531 112 815 86z m1054
-380 c278 -190 558 -490 730 -781 l61 -102 -47 -66 c-417 -590 -903 -970
-1451 -1137 -196 -59 -329 -78 -557 -78 -218 0 -312 12 -511 64 -99 25 -326
108 -342 125 -3 3 61 73 142 154 l149 149 46 -28 c79 -49 193 -99 276 -121
106 -29 344 -32 447 -6 367 92 633 358 725 725 26 103 23 341 -5 447 -21 76
-88 226 -130 290 l-20 30 196 198 c108 108 198 197 200 197 2 0 43 -27 91 -60z
m-1074 -285 c44 -14 90 -34 103 -43 22 -17 21 -18 -411 -450 l-434 -434 -16
26 c-33 50 -68 178 -74 265 -7 113 14 211 68 321 81 163 249 295 429 335 96
22 235 14 335 -20z m410 -410 c17 -49 29 -112 32 -165 22 -371 -296 -689 -668
-667 -87 6 -215 41 -265 74 l-26 16 434 434 c432 432 433 433 450 411 9 -13
29 -59 43 -103z"/>
</g>
</svg>
