<svg xmlns="http://www.w3.org/2000/svg" width="682.667" height="682.667" version="1.0" viewBox="0 0 512 512"><path d="M193.2 3c-1.8.4-4.2 1.6-5.4 2.6-4.2 3.8-4.8 7.2-4.8 28.9 0 11.3-.3 20.5-.7 20.5-2.6 0-84.4 14.3-86.6 15.2-1.5.6-3.9 2.4-5.2 4-3.1 3.7-3.2 8.2-.5 23.2 1.1 6.1 1.7 11.3 1.3 11.6-.5.4-17.4 6.4-37.8 13.3C5 138.9 5 138.9 2.3 143 1 144.8 0 147.6 0 149.2c0 3.1 54.1 154.8 56.6 158.5 1.9 3 6.1 4 9.3 2.2 5.8-3.3 6.5-.8-22.7-82.2-15-41.5-27.2-75.7-27.2-76 0-.3 2.6-1.4 5.8-2.5 16.4-5.8 72.7-25 72.8-24.9.1.1 12.6 73.1 27.8 162.2 18.3 106.7 28.3 163 29.5 165 .9 1.6 3.4 3.9 5.5 4.9 3.4 1.7 4.5 1.8 10.5.7 46.1-8 135.4-23.1 135.7-22.9.3.4-163.2 59.2-164.2 59.1-.5-.1-13.7-36-29.5-79.9-15.8-43.9-29.2-80.6-29.8-81.6-4.5-7.3-15.4-2.1-13.1 6.2 1.2 4.3 57.1 159.3 59 163.7 1.1 2.5 3 4.8 4.9 5.7 6.2 3.3 2 4.6 93.1-28.2 67.9-24.4 88.3-31.7 127-45.7 38.3-13.8 41.4-14.8 57.5-17.5 16.8-2.9 17.5-3 55-3 42.6 0 43.3-.1 46.7-7 1.7-3.3 1.8-13.5 1.8-169.6V70.3l-2.2-3.1c-2.3-3.2-62.1-60.3-66.1-63.1-2-1.4-15.6-1.6-124.7-1.8-67.4 0-124 .2-125.8.7zM427 43.5c.6 29.7.9 30.9 8.9 35.2 4.3 2.2 5 2.3 32.8 2.3H497v317H198V248.1l-2.6-2c-1.5-1.2-3.3-2.1-4-2.1-2.6 0-6.2 2.3-7.3 4.7-.8 1.7-1.1 24.6-1.1 77.5 0 73.7 0 75.3 2 79.4 3.8 7.8-.1 7.4 79.2 7.5l70.3.1-84.7 14.6c-46.6 8-84.9 14.4-85.2 14.1-.5-.5-60.4-350.1-60.8-354.8l-.3-3.4 36.5-6.3c20.1-3.5 38-6.6 39.8-6.9l3.2-.6v74.4c0 73.8 0 74.5 2.1 77.1 2.6 3.3 7.9 3.6 10.9.6 2-2 2-3.3 2-102.8 0-55.5.3-101.2.7-101.5.3-.4 51.8-.6 114.2-.5l113.6.3.5 26zm50.8 13.2 9.7 9.2-22.5-.2-22.5-.2-.3-21.4-.2-21.4 13 12.4c7.2 6.8 17.5 16.5 22.8 21.6z"/><path d="M239.5 111.9c-4.9 2-6.4 8.3-3 12.1 1.8 2 2.8 2 112.6 2h110.8l2-2.6c2.7-3.5 2.6-5.7-.3-9.1l-2.4-2.8-108.9-.2c-59.8-.1-109.7.2-110.8.6zM236.9 166.8c-3.3 2.7-3 7.8.5 10.9l2.7 2.3h108.4c77.3 0 109.1-.3 110.8-1.1 2.4-1.1 4.7-4.7 4.7-7.3 0-.7-.9-2.5-2.1-4l-2-2.6H349.5c-105.7 0-110.4.1-112.6 1.8zM237.7 219.2c-4 3.1-3.6 11.5.8 13.2.9.3 50.9.6 111.1.6h109.5l2.4-2.5c3.2-3.1 3.2-6.9 0-10l-2.4-2.5H349.2c-86.3 0-110.2.3-111.5 1.2zM237.4 273.3c-3.5 3.1-3.8 8.2-.5 10.9 2.2 1.7 6.9 1.8 112.6 1.8h110.4l2-2.6c1.2-1.5 2.1-3.3 2.1-4 0-2.6-2.3-6.2-4.7-7.3-1.7-.8-33.5-1.1-110.8-1.1H240.1l-2.7 2.3zM236.5 327c-2.5 2.8-2.3 7.6.4 10.3l2.2 2.2h220.1l2.4-2.8c2.9-3.4 3-5.6.3-9.1l-2-2.6H349.1c-109.8 0-110.8 0-112.6 2z"/></svg>