<svg version="1.0" xmlns="http://www.w3.org/2000/svg" width="682.667" height="682.667" viewBox="0 0 512 512"><path d="M25.7 14.3-.1 28.5.2 34l.3 5.5L26 52.7l25.5 13.2 151-.2 151-.2 4-2.2c5.1-2.7 7.9-5.7 10.4-11.3 1.8-3.8 2.1-6.6 2.1-18.4 0-7.6-.5-15.6-1.1-17.7-1.7-5.5-6.5-10.8-12.3-13.5L351.5 0h-300L25.7 14.3zM303 33v18l-117.2-.2-117.3-.3-.3-17.8L68 15h235v18zm47.3-16.9c1.4.6 3 2.2 3.6 3.6 1.4 3.2 1.4 23.5 0 26.7-1.7 3.7-5.8 4.6-21.5 4.6H318V15h15c8.8 0 15.9.5 17.3 1.1zM53 33c0 8.8-.3 16-.6 16-1.5 0-29.5-15.3-28.9-15.8.9-.9 27.9-16.1 28.8-16.1.4-.1.7 7.1.7 15.9z"/><path d="M432.8 48c-14.8 2.7-26.8 8.9-37.4 19.5-6.8 6.7-9 9.8-12.8 17.6-2.5 5.2-5.1 12.4-5.8 16.1l-1.3 6.8H0v404l228.3-.2c218.9-.3 228.4-.4 233.7-2.1 19.2-6.5 34.3-19.2 42.3-35.7 8.2-16.8 7.7-3.6 7.7-194.5 0-190.8.5-177.4-7.7-194.4-8.2-17.1-24.7-30.6-43.3-35.6-6.9-1.9-21.9-2.7-28.2-1.5zM458 64.6c19.4 5.5 34.8 22.8 38 42.4.6 4.2 1 56.4 1 149.8v143.4l-7-6.5c-7.8-7.3-17-12.4-28-15.8-10.6-3.3-26.4-3.3-37 0-11 3.4-20.2 8.5-28 15.8l-7 6.5V256.8c0-91.3.4-145.7 1-149.8 1.4-8.9 7.6-21.2 13.9-27.7 14.7-14.9 33.7-20.2 53.1-14.7zm-83 219.8c0 105.5.4 163.2 1 166.7 2.5 13.3 11.8 25.6 23.5 31.1 6.2 2.9 21.8 5.7 24.9 4.5 1.4-.6 1.6-6 1.6-47.1v-46.4l5.2-1.3c23.9-5.7 48.9 6.2 59.9 28.6 13 26.6 1.9 58.1-25.2 71.1-11.6 5.6-.6 5.4-234.6 5.4H15V123h360v161.4zm35.5 185.4c-1.2 1.2-9-3.6-12.9-7.9-5.2-5.8-7.2-11.9-6.9-21.1.3-12.4 5.7-24.7 14.6-33.8l5.2-5.3.3 33.8c.1 18.6 0 34-.3 34.3z"/><path d="M85 182v33h71v15H51v212h58v-15H66v-56h43v-15H66V245l96.3.2 96.2.3v15l-35.2.3-35.3.2v65h157v-65h-71v-31H171v-15h71v-66H85v33zm142 0v18l-63.2-.2-63.3-.3-.3-16.5c-.1-9 0-17 .2-17.7.4-1 13.1-1.3 63.6-1.3h63v18zm103 111.5V311H203v-35h127v17.5z"/><path d="M139 363.5v7.5h142v-15H139v7.5zM139.4 387.4c-.3.7-.4 4.2-.2 7.7l.3 6.4 20.3.3 20.2.2v-16h-20c-16 0-20.2.3-20.6 1.4zM195.2 393.7l.3 7.8 7.3.3 7.2.3V386h-15.1l.3 7.7zM226 394v8.1l7.3-.3 7.2-.3.3-7.8.3-7.7H226v8zM139 434.5v7.5h142v-15H139v7.5zM139.7 457.7c-.4.3-.7 3.7-.7 7.5v6.8h41v-15h-19.8c-10.9 0-20.2.3-20.5.7zM195 464.5v7.5h15v-15h-15v7.5zM226 464.5v7.5h15v-15h-15v7.5z"/></svg>