<svg xmlns="http://www.w3.org/2000/svg" width="682.667" height="682.667" version="1.0" viewBox="0 0 512 512"><path d="M248.5 40.7c-41.1 1.4-83.4 16-118 40.9-4.3 3-7.8 5.4-7.9 5.2-.1-.2-1.4-6.3-2.8-13.6-3-15.4-5.3-19.8-12-23.1-11.6-5.6-24.6.4-27.9 12.9-1 3.9-.6 9.9 3 42.5 2.3 20.9 4.7 39.2 5.3 40.7 2 5.2 3.7 5.6 42 9.9 40.9 4.6 46.6 4.6 52.7.6 8.6-5.7 11.1-17.3 5.6-26.2-3.7-5.9-7.5-8-18.9-10.3l-8.9-1.7 5.6-3.7c9-6 25.3-13.7 37.7-17.9C236.8 86 275.3 86 308.2 97c50.6 16.9 89 54.8 106.2 104.9 6.8 19.6 8 27.7 8.1 53.6 0 21.7-.2 23.7-2.9 35.9-2.5 11.6-2.7 13.6-1.7 18.2 4.7 20.7 30.8 25.7 43.1 8.3 7.6-10.5 12.6-59.2 9-87.4-4.8-38.7-20-75.7-43.9-107-6.4-8.4-25.2-27.5-34.1-34.8-40.3-32.5-91.6-49.7-143.5-48zM63 184.9c-8.2 2.9-13.2 8.8-15.8 18.8-12.9 48.5-7.4 101.4 15.5 148 27.4 55.8 78.4 97.2 138.8 112.8 18.4 4.7 33.1 6.6 53 6.6 26.1 0 44.4-2.8 68.4-10.7 21.1-6.9 46.8-20.3 62.4-32.7 2.1-1.6 3.9-2.8 4.1-2.6.1.2 1.4 6.4 2.8 13.7 3 15.6 5.3 19.8 12.3 23.2 10.1 4.9 21.5.7 26.3-9.8l2.6-5.7L429 407c-2.3-21.7-4.7-40.5-5.3-41.7-2.1-4.7-4.4-5.2-41.9-9.4-40.8-4.6-46.6-4.6-52.7-.6-8.1 5.4-11 16.9-6.2 25.4 3.9 6.9 8.3 9.1 24.1 12l4.4.8-6.5 4.2c-10.7 6.7-24.5 13.2-36.9 17.4-32.8 10.9-71.3 10.9-104.3-.1-57.4-19.2-99-65.7-111.9-125.4-1.9-8.7-2.2-13.3-2.3-32.6 0-21.1.2-23.4 2.9-36.5 2.8-13.7 2.9-14.1 1.3-19.5-4-13.6-17.5-20.7-30.7-16.1z"/></svg>