<svg version="1.0" xmlns="http://www.w3.org/2000/svg" width="682.667" height="682.667" viewBox="0 0 512 512"><path d="M250.5 77.5c-2.4 2.3-2.5 2.8-2.5 17.6v15.1l-5.9 6.3c-10.6 11.4-10.6 11.2-10.9 46.2l-.3 30.3H184v-11.8l.1-11.7 4.3-2.6c6.8-4.2 9.7-10.1 10.4-20.8.5-10.3-.7-15.2-4.8-18.1-2.5-1.8-4.4-2-17.4-2-15.4 0-18.5.7-21.1 4.7-2.1 3.2-3 13.5-1.7 20.5 1.4 7.2 4.9 12.6 10.7 16.2l4.5 2.9V193h-15c-16.6 0-22.9 1-31 4.9-12.4 6-23.4 20.4-23.4 30.7 0 6.9 4.2 13.8 10.3 17.1l4.4 2.3H215v10.1c0 11.7 1.1 16.4 5.1 21.3 4.6 5.4 10.1 7.6 19.7 7.6h8.2v101.5l-17.5 13.9c-9.6 7.6-18.4 14.9-19.6 16.2-4.2 4.5-2.4 14 3.3 17 4.1 2.1 78.6 2.1 82.7-.1 3.8-1.9 6.5-7.7 5.7-12-.8-4-4-7-24.9-23.5l-14.6-11.5-.1-50.8V287h8c12.1 0 19-3.7 23.1-12.5 1.6-3.4 1.9-6.6 1.9-20.7v-16.7l-2.6-2c-2.7-2.1-3.2-2.1-89-2.1-47.4 0-86.9-.3-87.8-.6-4.5-1.7.2-12 8.2-18.1 8.7-6.6 2.4-6.4 132.8-6.1l117.9.3 5 2.3c6 2.7 9.8 6.1 13.6 12.1 3.3 5.1 3.5 6.4 1.3 8.5-1.3 1.4-6.1 1.6-37.5 1.6h-36l-2.4 2.5c-1.4 1.3-2.5 3.6-2.5 5s1.1 3.7 2.5 5l2.4 2.5h37.3c34 0 37.7-.2 41.3-1.9 7.4-3.3 12.4-12.1 11.2-19.6-1.5-8.9-12-22.7-21.5-27.8-8.3-4.5-15-5.7-32.4-5.7H342v-22.9l2.8-1.5c3.9-2.1 8.9-7.5 10.6-11.8 1.1-2.5 1.6-7 1.6-13.9v-10.1l-3.4-3.4-3.4-3.4h-15.4c-12.3 0-15.8.3-17.6 1.6-3.9 2.7-5.2 6.7-5.2 16.1 0 7.1.5 9.8 2.4 13.8 2.3 5.1 6.9 9.8 10.6 11 1.9.6 2 1.5 2 12.6V193h-46.9l-.3-30.3-.3-30.2-2.9-5.3c-1.6-2.9-5.3-7.9-8.3-11.1l-5.3-5.9V95c0-14.7-.1-15.2-2.5-17.5-1.3-1.4-3.6-2.5-5-2.5s-3.7 1.1-5 2.5zm8.7 50.2c4.6 5.3 4.8 6.8 4.8 36.8V193h-18v-26.9c0-21.6.3-27.7 1.5-31.2 2.8-7.9 8.2-11.2 11.7-7.2zM184 145c0 5.1-1.6 8.5-4.7 9.9-3.4 1.6-4.7 1.4-7.7-1-2.2-1.8-2.6-2.8-2.6-7.5V141h15v4zm158 1.4c0 4.7-.4 5.7-2.7 7.6-2 1.6-3.6 2-5.8 1.6-4.4-.9-6.5-4-6.5-9.7V141h15v5.4zM281 258c0 14.7 1.2 14-25.5 14s-25.5.7-25.5-14v-10h51v10zm-12.8 153.7 12.2 9.8-12.2.3c-6.6.1-17.8.1-24.7 0l-12.6-.3 11.8-9.7c6.5-5.3 12.2-9.7 12.6-9.7.4-.1 6.2 4.3 12.9 9.6z"/><path d="M16.3 139.4c-6 1.9-9.9 5.1-13 10.4l-2.8 4.7L.2 225c-.2 50.1 0 72.2.8 76.5 3.3 16.9 16.1 30.7 32.7 35.1 3.7.9 6.9 1.8 7 1.9.2.1-6.5 20.3-14.7 45.1-8.3 24.7-15 45.7-15 46.7 0 2.6 4.5 6.7 7.4 6.7 5.7 0 6.7-2.2 21.2-46.5 7.5-23.1 14.5-43.6 15.5-45.6 3-6 6.2-6.9 25.3-6.9 17.4 0 21.3.7 24.8 4.6.9 1.1 9.1 21.9 18.2 46.4 17 45.8 18 48 23.3 48 2.8 0 7.3-4.1 7.3-6.8 0-1-7.3-21.4-16.1-45.2-8.9-23.9-16.4-44.3-16.6-45.3-.5-1.5.2-1.7 4.6-1.7 9.1 0 16.9-5 21.3-13.4 2.6-5.1 2.6-14.1-.1-19.4-2.6-5.1-9.1-10.8-13.8-12.1-2.4-.7-19.2-1.1-45.5-1.1H46v-41.5c0-40.2-.1-41.6-2-43.5-2.8-2.8-7.5-2.6-10.5.5l-2.5 2.4v42.8c0 47.2 0 47.1 6.3 51.7 2.8 2 4.3 2.1 47.7 2.6 42.3.5 44.9.6 46.9 2.4 3 2.7 2.8 8.6-.3 11.5l-2.3 2.2-46.4-.3c-46-.3-46.4-.3-50.6-2.6-6.6-3.5-11-7.9-14-14l-2.8-5.7-.3-70.4c-.2-61.7-.1-70.7 1.3-72.7 3.2-4.9 8.4-5.5 12.5-1.4 1.7 1.7 2 3.4 2 12.4 0 8.9.3 10.7 2.1 13 2.6 3.3 7.9 3.6 10.9.6 1.8-1.8 2-3.3 2-13.4 0-6.2-.5-12.8-1.1-14.7-3.9-11.4-17.2-18.2-28.6-14.5zM483.2 139c-4.9 1.1-10.8 5.5-13.9 10.2l-2.8 4.2-.3 69.3-.2 69.3h-41.8c-26.3 0-43.1.4-45.5 1.1-4.8 1.3-11.2 7-13.9 12.2-2.5 5.1-2.7 14-.3 19.1 2.3 4.8 9.4 10.9 14.3 12.4 2.2.7 5.8 1.2 8.2 1.2 3.6 0 4.2.3 3.7 1.7-.2 1-7.7 21.4-16.6 45.3-8.8 23.8-16.1 44.2-16.1 45.2 0 2.7 4.5 6.8 7.3 6.8 5.3 0 6.3-2.2 23.3-48 9.1-24.5 17.3-45.3 18.2-46.4 3.5-3.9 7.4-4.6 24.8-4.6 18.6 0 22.3.9 25.1 6.3.8 1.7 7.8 22.2 15.5 45.6 14.6 44.6 15.7 47.1 21.1 47.1 3.3 0 6.5-2.6 7.1-5.8.5-1.9-3.5-15.1-14.4-47.6-8.2-24.7-14.9-45-14.7-45.1.1-.1 3.3-1 7-1.9 13.1-3.5 23-12.1 29.6-25.6l3.6-7.5v-149l-2.7-4.6c-3-5.1-8.4-9.2-14.3-10.8-4.5-1.2-6.5-1.2-11.3-.1zm10.9 16.9 3 3-.3 70.8-.3 70.8-2.4 4.9c-2.9 6-8.5 11.7-14.3 14.8-4.3 2.3-4.5 2.3-50.9 2.6l-46.7.3-2.1-2.7c-2.6-3.3-2.7-7.5-.2-10.5l1.9-2.4 45-.5c43.6-.5 45.1-.6 47.9-2.6 6.5-4.8 6.3-1.7 6.3-77.5 0-72.2-.1-70.2 4.5-72.7 3.3-1.8 5.5-1.4 8.6 1.7z"/></svg>