<svg version="1.0" xmlns="http://www.w3.org/2000/svg" width="682.667" height="682.667" viewBox="0 0 512 512"><path d="M481.7 1.4c-4.6 1.7-3.6 1-45.7 35-49.7 40.3-109.8 90.2-154.8 128.7l-7.3 6.2-76.2-76c-65.2-65-77-76.4-81.9-78.7-10.6-5.1-23.1-5.1-33.6 0-4.7 2.2-12.3 9.3-43.9 40.8C4.7 90.8 0 95.9 0 98.5c.1 5.5 5.1 9.1 10 7.3 1.4-.5 13.6-12 27.2-25.6L62 55.5l5.2 5.3 5.3 5.2-25.2 25.3c-13.8 13.8-25.4 26.2-25.7 27.3-1.3 4.3 3.1 9.4 8.2 9.4.9 0 13.2-11.6 27.4-25.7L83 76.6l5.5 5.4 5.5 5.5L68.5 113C45.7 135.9 43 138.9 43 141.8c0 4.2 3 7.2 7.2 7.2 2.9 0 6-2.8 28.8-25.5L104.5 98l5.3 5.2 5.2 5.2-25.5 25.7c-21.8 21.8-25.5 26-25.5 28.5.1 5.4 5.1 9 10 7.2 1.4-.5 13.6-12 27.2-25.6l24.8-24.7 5.2 5.3 5.3 5.2-25.2 25.3c-13.8 13.8-25.4 26.2-25.7 27.3-1.3 4.3 3.1 9.4 8.2 9.4.9 0 13.2-11.6 27.4-25.7l25.8-25.7 5.5 5.4 5.5 5.5-25.5 25.5c-22.8 22.9-25.5 25.9-25.5 28.8 0 4.2 3 7.2 7.2 7.2 2.9 0 6-2.8 28.8-25.5l25.6-25.5 5.4 5.5 5.4 5.5-25.7 25.8c-26.6 26.7-27.6 28.1-24.3 32.4 1.9 2.5 5.7 3.7 8.6 2.6 1.4-.5 13.6-12 27.2-25.6l24.8-24.7 5.2 5.3 5.3 5.2-25.2 25.2c-13.8 13.9-25.4 26.3-25.7 27.5-.8 2.4.8 6.1 3.3 8 4.2 3.2 5.7 2.1 32.3-24.4l25.8-25.8 5.7 5.7c3.1 3.2 5.5 5.9 5.3 6.1-6.4 5-76.6 67.3-86.2 76.4-8.3 7.8-8.2 7.5-1 19.4 9.1 15.1 9.6 33.4 1.5 49.8-4 8.1-35.3 39.4-43.9 43.9-17.4 9-38.1 7.8-54.7-3.2-27.2-18.1-30.3-57.9-6.2-80.9 6.6-6.3 14.2-10.5 23.5-12.8 18.5-4.7 37.3.9 51.3 15.3 4.2 4.3 5.2 4.9 8.4 4.6 4.6-.4 7.9-4.3 6.9-8.2-.9-3.6-6.8-9.9-14.2-15.2-16.2-11.6-34.6-15.6-53.2-11.8C21.3 300.4-1.6 329.9.4 363c.6 11.4 2.4 17.9 7.9 28.5C21.5 417 52.6 431.6 81 425.6c3.6-.8 6.6-1.3 6.7-1.2.1 0-.5 3-1.4 6.6-2.2 9.6-1.3 25.2 2.2 35.4 6.8 19.6 22.6 35.1 43 42.2 7.1 2.5 9.4 2.8 20.5 2.8 14 0 19.9-1.3 30.9-6.9 17.4-8.9 30.5-25.5 35.2-44.5 1.7-7.1 1.7-23.9 0-31-2-8-7.1-18.6-12.5-25.8l-4.8-6.2 6.9-7.8c17.9-19.9 65-73.1 75.8-85.5 6.6-7.5 12.2-13.7 12.5-13.7.3 0 3 2.5 6 5.5l5.4 5.5-25.7 25.8c-26.5 26.6-27.6 28.1-24.4 32.3 1.9 2.5 5.6 4.1 8 3.3 1.2-.3 13.6-11.9 27.5-25.7l25.2-25.2 5.2 5.3 5.3 5.2-24.7 24.8c-13.6 13.6-25.1 25.8-25.6 27.2-1.1 2.9 0 6.7 2.6 8.6 4.3 3.3 5.7 2.3 32.4-24.3l25.8-25.7 5.5 5.4 5.5 5.4-25.5 25.6c-22.7 22.8-25.5 25.9-25.5 28.8 0 4.2 3 7.2 7.2 7.2 2.9 0 5.9-2.7 28.8-25.5l25.5-25.5 5.5 5.5 5.4 5.5-25.7 25.8C331.6 405 320 417.3 320 418.2c0 5.1 5.1 9.5 9.4 8.2 1.1-.3 13.5-11.9 27.3-25.7l25.3-25.2 5.2 5.3 5.3 5.2-24.7 24.8c-13.6 13.6-25.1 25.8-25.6 27.2-2 5.5 2.8 11 8.5 9.6 1.8-.5 11.3-9.2 27.8-25.7l25-24.9 5.3 5.2 5.2 5.3-25.5 25.5c-22.7 22.8-25.5 25.9-25.5 28.8 0 4.2 3 7.2 7.2 7.2 2.9 0 5.9-2.7 28.8-25.5l25.5-25.5 5.5 5.5 5.4 5.5-25.7 25.8C395.6 469 384 481.3 384 482.2c0 5.1 5.1 9.5 9.4 8.2 1.1-.3 13.5-11.9 27.3-25.7l25.3-25.2 5.2 5.3 5.3 5.2-24.7 24.8c-13.6 13.6-25.1 25.8-25.6 27.2-1.8 4.9 1.8 9.9 7.3 10 2.6 0 7.7-4.7 41.1-38.3 41.1-41.2 42.4-42.8 44.4-55 .5-3.5.5-7.9 0-11.4-2.1-12.9-.1-10.6-82.3-93-69.7-69.8-75.9-76.3-74.6-78 .8-1 10.2-12.1 20.9-24.8 59.3-69.9 141.2-169.6 146-177.8 5-8.5 3.4-19.4-3.9-26.7-6.7-6.6-14.9-8.6-23.4-5.6zm-146 164.4C197 304.5 188 313.7 188 316.9c0 4.6 2.4 7.1 6.9 7.1 3.4 0 9.9-6.3 151.5-147.8C427.8 95 493.7 29.4 492.9 30.5c-19.9 25.8-97.5 119.8-145.3 176-48.4 57-136.6 157.5-138.8 158.4-.6.2-3.6-2.3-6.7-5.5-4.4-4.5-6-7.1-7-10.9-2-7.8-2.9-9.5-5.7-10.5-3.2-1.3-5.8-.6-8.4 2.3-2.5 2.6-2.5 4.9 0 12.9 2.3 7.5 8.3 16.4 13.9 20.5l3.9 2.9-7.9 8.9c-10 11.4-10.2 13.3-2.8 20.8 19.8 20.1 22.2 48.1 6 69.7-11.4 15.2-30.4 23-49.3 20.2-35.9-5.2-55.6-44.4-38.5-76.6 2.3-4.4 8.2-11.2 21.2-24.6 14.5-14.9 18.8-19.9 21.8-25.7 9.8-18.8 10.3-41.3 1.2-59.8l-3.5-7 2.9-2.5c1.5-1.4 10.8-9.7 20.7-18.5C254.6 206.3 368 110.4 473 25.7c5.2-4.2 9.7-7.7 10-7.7.3 0-66 66.5-147.3 147.8zM109 30.1c1.9 1 37.1 35.4 78.3 76.6l74.7 74.8-14.2 12.3-14.3 12.2-80.5-80.5L72.5 45l6.5-6.6c3.6-3.6 7.9-7.3 9.5-8.2 6.3-3.3 14.1-3.4 20.5-.1zm373.2 373.4c2.8 5.3 2.8 13.7 0 19.1-1.1 2.1-5 6.8-8.6 10.4l-6.6 6.5-80.7-80.7-80.6-80.6L318 264l12.4-14.1 74.8 74.8c45.6 45.5 75.7 76.4 77 78.8z"/><path d="M140.8 408.9c-10.5 3.5-17.8 10.3-23 21.6-1.9 4.1-2.3 6.7-2.3 14.5 0 8.4.3 10.2 2.8 15.3 3.7 7.4 11 14.7 18.4 18.3 5.1 2.5 6.9 2.8 15.3 2.9 8.2 0 10.3-.4 15.3-2.7 8-3.8 15.8-11.5 19.3-19.1 3.8-8.2 4-20.1.5-28.9-3.1-7.9-10.6-15.9-18.6-19.9-8.3-4.1-19.2-4.9-27.7-2zm18.3 14.2c14.7 4.5 20.5 23.5 10.6 35.4-8.1 9.9-22.6 11.1-31.9 2.7-9.9-8.9-10.5-22.4-1.5-31.9 6.3-6.6 14.2-8.7 22.8-6.2zM56.8 323.9C46 327.4 38 334.5 33.3 344.5c-2.4 5.2-2.8 7.2-2.8 15 0 8 .4 9.7 3.1 15.5 10 21.1 35.6 28.3 54.9 15.5 6-4.1 9.7-8.6 13.3-16.3 2.3-4.8 2.7-7.1 2.7-14.7 0-7.7-.4-9.9-2.7-14.8-8.1-17.4-27.8-26.5-45-20.8zm17.6 14.3c5.4 1.6 12.8 9 14.4 14.4 2.6 8.9.8 16-5.7 22.5-9.2 9.3-22 9.3-31.2 0-9.3-9.2-9.2-21.8.1-31.1 6.5-6.5 13.6-8.4 22.4-5.8z"/></svg>