<svg version="1.0" xmlns="http://www.w3.org/2000/svg" width="682.667" height="682.667" viewBox="0 0 512 512"><path d="M15.6 1C8.2 3.3 1.6 10.9.4 18.5c-.8 5.4 10 66.2 12.7 71.6 3.6 7.2 11.4 11.9 19.7 11.9 5.2 0 13.5-3.5 16.7-7.1 1.8-1.9 2.1-1.7 18.4 14.5C82.1 123.4 85.2 126 89 127c9.8 2.6 15.9-.1 27.7-12.3 11-11.4 12.9-16.3 10.2-26.2-.9-3.2-4.4-7.3-17.4-20.5L93.2 51.5l2.9-3.5c4.1-4.8 5.9-9.3 5.9-15.2 0-8.8-5.1-16.8-12.8-20.2C85.2 10.9 25.9-.1 21.3.1c-1.5 0-4.1.5-5.7.9zm36.7 21.5c16.4 2.9 30.5 5.9 31.3 6.6 2.9 2.4 1.6 5.9-4.5 12.2-5.6 5.9-6.5 7.6-6.2 12.1 0 1.1 8.5 10.4 19.2 21.2 15.3 15.4 19 19.6 18.5 21.1-.8 2.6-14 15.3-15.8 15.3-.7 0-9.4-8.1-19.3-18.1-9.9-9.9-19.3-18.7-20.8-19.5-3.9-2.1-6.2-1.1-13.4 5.7-6.3 6.1-9.8 7.4-12.3 4.5-.6-.8-3.6-15.3-6.7-32.1-5.3-29.3-5.4-30.7-3.7-32.6.9-1 2.2-1.9 2.8-1.9.6 0 14.5 2.5 30.9 5.5zM455 5.9c-16.8 3.1-31.9 6.4-33.6 7.4-6.8 3.6-11.4 11.5-11.4 19.5 0 5.2 3.5 13.5 7.1 16.7 1.9 1.8 1.7 2.1-14.5 18.4C388.6 82.1 386 85.2 385 89c-2.6 9.8.1 15.9 12.3 27.7 11.4 11 16.3 12.9 26.2 10.2 3.2-.9 7.3-4.4 20.5-17.4l16.5-16.3 3.5 3c4.8 4.2 9.1 5.8 15 5.8 8.7 0 16.1-4.4 20-12 2.6-5.3 13.4-66.1 12.6-71.5C510 8 499.9-.2 489 .1c-1.9.1-17.2 2.7-34 5.8zm38.4 13c1.7 1.9 1.6 3.3-3.7 32.6-3.1 16.8-6.1 31.3-6.7 32.1-2.5 2.9-6 1.6-12.3-4.5-5.9-5.6-7.6-6.5-12.1-6.2-1.1 0-10.3 8.4-21.1 19.1-10.5 10.4-19.7 19-20.5 19-2 0-16-14-16-16 0-.8 8.1-9.6 18.1-19.5 17.7-17.6 21.5-22.6 20.2-26.2-.3-1-3.2-4.6-6.5-8-6-6.3-7.2-9.9-4.4-12.2 1.3-1.1 55.5-11.7 61.2-12 1.1 0 2.9.8 3.8 1.8zM240.4 86.1c-42.4 3.8-84.9 25.4-112.5 57.2-50.7 58.5-56.5 141.6-14.5 206.2 16.3 25 39.3 45.3 66.9 59.2 83.7 41.9 186.2 7.5 228.2-76.5 24-47.9 24-104.5 0-152.4-26.7-53.5-78.4-88.4-138.6-93.8-12.7-1.1-16.3-1.1-29.5.1zm28.1 16.9c14.2 1.4 23.6 3.3 36.3 7.6 37.3 12.4 69.1 39.5 87.1 74.4 19.6 37.9 22.9 79.6 9.5 119.9-12.3 37.2-39.6 69-74.4 87-49.8 25.8-107.5 23-154.8-7.3-16.3-10.4-34.3-28.3-44.8-44.6-25.5-39.7-31.7-88-16.9-132.6 19.2-57.9 72.1-99.4 132.8-104.4 13.6-1.1 13.3-1.1 25.2 0z"/><path d="M209.2 138.5c-10.1 4.4-13.7 10.2-17.3 27.5l-2.5 12.5-17 .5c-16.4.5-17 .6-22.3 3.5-2.9 1.6-6.4 4.3-7.7 6-5.2 6.8-5.4 8.5-5.4 37.7 0 15 .5 28.9 1 30.8.5 2 2.3 5.7 3.9 8.2l3 4.7.3 30.8c.3 27.8.5 31.1 2.2 34.3 2.6 4.9 7.4 9.8 12.1 12.3l4 2.2h185l4-2.2c4.7-2.5 9.5-7.4 12.1-12.3 1.7-3.2 1.9-6.5 2.2-34.3l.3-30.8 3-4.7c1.6-2.5 3.4-6.2 3.9-8.2.5-1.9 1-15.8 1-30.8 0-29.2-.2-30.9-5.4-37.7-1.3-1.7-4.8-4.4-7.7-6-5.3-2.9-5.9-3-22.3-3.5l-17-.5-2.6-12.6c-3.1-15.1-6.1-20.8-13.4-25.4l-4.9-3-44.6-.2c-37.2-.2-45.1 0-47.9 1.2zm88.7 16.5c1 .5 2.3 2.2 2.9 3.7 1 2.6 4.2 17.4 4.2 19.4 0 .5-20.9.9-49 .9-29.7 0-49-.4-49-.9 0-.9 2.4-12.9 3.5-17.9.3-1.2 1.4-3.1 2.5-4.2 1.9-1.9 3.5-2 42.6-2 24 0 41.3.4 42.3 1zm56 42.5c1.6.8 3.1 2.2 3.5 3 .3.9.6 13 .6 26.9 0 24.6-.1 25.4-2.2 28.6-4.2 6.1-10.1 8.9-19 9-3 0-3.8-.4-3.8-1.8-.1-3.9-4-10.1-8.1-12.9l-4.3-2.8h-17.5c-14.8 0-18.1.3-20.8 1.7-4.2 2.4-7.2 6.3-8.6 11.5l-1.1 4.3h-33.2l-1.1-4.3c-1.4-5.2-4.4-9.1-8.6-11.5-2.7-1.4-6-1.7-20.8-1.7h-17.5l-4.3 2.8c-4.1 2.8-8 9-8.1 12.9 0 1.4-.8 1.8-3.7 1.8-9-.1-14.9-2.9-19-9-2.2-3.2-2.3-4-2.3-29 0-26.8.1-27.4 4.5-29.8 1.4-.8 30.3-1.1 97.3-1.2 81.7 0 95.7.2 98.1 1.5zm-131.9 76v8.6l-12.7-.3-12.8-.3-.3-8.3-.3-8.2H222v8.5zm93.8-.3-.3 8.3-12.7.3-12.8.3V265h26.1l-.3 8.2zM175.5 282c2.7 0 3.2.5 4.8 4.9 2 5.6 6.1 9.6 11.5 11.1 4.8 1.3 29.6 1.3 34.4 0 5.4-1.5 9.5-5.5 11.5-11.1l1.8-4.9h33l1.8 4.9c2 5.6 6.1 9.6 11.5 11.1 4.8 1.3 29.6 1.3 34.4 0 5.4-1.5 9.5-5.5 11.5-11.1 1.6-4.4 2.1-4.9 4.8-4.9 1.6 0 5.4-.3 8.3-.6l5.2-.7v23.1c0 23 0 23.1-2.4 25.9l-2.4 2.8H166.8l-2.4-2.8c-2.4-2.8-2.4-2.9-2.4-25.9v-23.1l5.3.7c2.8.3 6.6.6 8.2.6zM87.6 385.5c-2.9 1-8.5 5.9-20 17.4l-16.1 16-3.5-3.1c-4.8-4.2-9-5.8-15-5.8-8.7 0-16.1 4.4-20 12-2.6 5.2-13.4 66.1-12.6 71.5 1.4 8.8 9.4 16.7 18.2 18.1 3.2.4 12.3-.8 33.1-4.5 15.9-2.9 31.2-5.9 34-6.7 13.7-3.8 20.1-18.3 13.8-31.1-1.4-2.8-3.4-5.8-4.6-6.8-1.9-1.8-1.7-2.1 14.5-18.4 14-14.2 16.6-17.3 17.6-21.1 2.6-9.8-.1-15.9-12.3-27.7-11.6-11.2-17.4-13.3-27.1-9.8zm16 22.7c4.1 3.9 7.4 7.9 7.4 8.7 0 .9-8.1 9.7-18.1 19.6-9.9 9.9-18.7 19.3-19.5 20.8-2.1 3.9-1.1 6.2 5.7 13.4 6.1 6.3 7.4 9.8 4.5 12.3-.8.6-15.3 3.6-32.2 6.7-30.6 5.5-30.6 5.5-32.6 3.5s-2-2 3.5-32.6c3.1-16.9 6.1-31.4 6.7-32.2 2.5-2.9 6-1.6 12.5 4.7 6.5 6.3 9.8 7.5 14 5.1 1.1-.6 10.1-9.2 20-19.1 9.9-10 18.6-18.1 19.3-18.1.8 0 4.7 3.2 8.8 7.2zM410 385.3c-4.3 1.4-21.1 17.4-23.5 22.4-2.4 5-2.9 10.1-1.5 15.3 1 3.8 3.6 6.9 17.5 21l16.3 16.5-3 3.5c-4.2 4.8-5.8 9.1-5.8 15 0 8.7 4.4 16.1 12 20 5.3 2.6 66.1 13.4 71.5 12.6 8.7-1.4 16.7-9.4 18.1-18.2.7-5.1-9.7-64.6-12.5-70.9-3.3-7.4-11.3-12.5-19.9-12.5-5.2 0-13.5 3.5-16.7 7.1-1.8 1.9-2.1 1.7-18.4-14.5-13.3-13.1-17.4-16.6-20.6-17.5-4.9-1.3-8.8-1.3-13.5.2zm26.5 33.8c17.6 17.7 22.6 21.5 26.2 20.2 1-.3 4.6-3.2 8-6.5 6.3-6 9.9-7.2 12.3-4.4.6.8 3.6 15.3 6.7 32.2 5.5 30.6 5.5 30.6 3.5 32.6s-2 2-32.7-3.5c-16.9-3.1-31.3-6.1-32.1-6.8-2.9-2.4-1.6-5.9 4.5-12.2 5.6-5.9 6.5-7.6 6.2-12.1 0-1.1-8.4-10.3-19.1-21.1-10.4-10.5-19-19.7-19-20.5 0-2 14-16 16-16 .8 0 9.6 8.1 19.5 18.1z"/></svg>