<svg xmlns="http://www.w3.org/2000/svg" width="682.667" height="682.667" version="1.0" viewBox="0 0 512 512"><path d="M336.4 2c-11 4.4-17.3 13.1-19.5 27-.6 4.1-1.7 8-2.3 8.7-.6.6-3.9 2.3-7.4 3.7l-6.3 2.7-6.3-4.6c-9.1-6.5-14-8.5-21.2-8.5-10.6 0-14.6 2-27.1 14.2-13 12.8-15.6 17.4-15.7 27.8 0 7.5 2.1 13 8.3 21.7 2.3 3.1 4.1 6.1 4.1 6.7 0 .6-1.2 4-2.6 7.7l-2.6 6.7-7.7 1.2c-14 2.3-21.4 6.7-26.6 16.1-2.9 5.2-3 5.9-3.3 21.1-.4 18.5.6 23 6.9 30.2 5.1 5.7 12.3 9.2 22.3 10.8l7.9 1.2 2.9 6.3c1.5 3.4 2.8 7 2.8 7.8 0 .9-2 4.4-4.4 7.8-6.1 8.6-7.8 13.1-7.9 20.7-.1 9.9 3.2 16.2 14.6 27.5 9.7 9.8 14.5 12.8 22.6 14.6 7.8 1.7 14.6-.2 24.3-6.7 4.5-3 8.7-5.4 9.4-5.4.6 0 4.1 1.3 7.6 2.9l6.4 2.8 1.2 7.9c1.6 10 5.1 17.2 10.8 22.3 6.9 6 11.3 7.1 28.9 7.1 14.9 0 15.3 0 21.3-3.1 10.2-5.1 14.8-12.4 17.2-27l1.2-7.6 7.2-3 7.3-3 5.4 3.9c9 6.6 15.5 9.2 22.9 9.2 10.4-.1 15-2.7 27.8-15.7 12.2-12.5 14.2-16.5 14.2-27.1 0-7.1-2-11.9-8.4-21.2l-4.5-6.3 2.5-6.3c1.4-3.5 3-6.7 3.5-7.2.5-.6 5-1.8 10-2.8 5-1 10.5-2.6 12.1-3.4 5.5-2.8 11.4-9.8 13.8-16 1.9-5.3 2.1-7.4 1.8-20.9-.3-13.4-.6-15.5-2.7-19.9-4.9-10-11.9-14.6-26-17.3l-9-1.7-2.7-6.3c-1.5-3.5-2.7-6.9-2.7-7.6 0-.7 2.2-4.6 5-8.7s5.6-9.2 6.3-11.3c1.6-5.2.9-16.2-1.5-21.2-2.4-5.2-21.8-24.6-27-27-5-2.4-16-3.1-21.2-1.5-2.1.7-7.2 3.5-11.3 6.3-4.1 2.8-8 5-8.7 5-.7 0-4.1-1.2-7.6-2.7l-6.3-2.7-1.7-9c-2.7-14.1-7.3-21.1-17.3-26C373 .7 371 .5 357 .3 343.5 0 340.8.3 336.4 2zm30.4 24.9c.7.4 2.2 5.7 3.3 11.7 3.3 18.5 4 19.6 15.7 23.5 3.7 1.2 10.3 3.9 14.6 6.1 12.5 6 13.4 5.7 33-8.4 2.1-1.5 4.6-2.8 5.5-2.8C441 57 455 71 455 73.1c0 .9-1.3 3.4-2.8 5.5-14.1 19.6-14.4 20.5-8.4 33 2.2 4.3 4.9 10.9 6.1 14.6 3.9 11.7 5.2 12.6 23 15.7 6.3 1.1 11.8 2.6 12.2 3.3.5.7.9 5.9.9 11.5 0 12.1.6 11.5-13.1 13.8-11.6 1.9-17.3 3.9-19.2 6.8-.8 1.2-2.9 6.2-4.7 11.2-1.8 4.9-4.6 11.6-6.1 14.7-4.5 8.9-4.1 11 4.7 23.9 5.5 8.2 7.4 11.7 7 13.3-.3 1.2-3.7 5.2-7.5 8.9-5.2 5.1-7.4 6.5-8.8 6-1-.3-5.6-3.3-10.3-6.6-8.7-6.2-13.6-8.7-16.8-8.7-1 0-5.4 1.7-9.8 3.8-4.3 2.2-10.4 4.7-13.4 5.7-8.2 2.6-12.8 5.5-14.4 8.9-.7 1.7-2.1 7.6-3.1 13.1-2.6 15.5-1.5 14.5-14.4 14.5-7.5 0-11.2-.4-11.9-1.3-.5-.6-1.7-5.7-2.6-11.2-.9-5.5-2.1-11.4-2.7-13.2-1.4-4.3-5.6-7.7-12.1-9.8-2.9-.9-9.7-3.7-15.1-6.2-12.1-5.6-13.5-5.4-26 3.1-14.6 10-12.7 9.8-20.8 1.9-3.9-3.7-7.5-7.6-8-8.5-.7-1.2.9-4.3 6.6-12.7 4.1-6.2 7.7-12.7 8.1-14.6.5-2.8-.2-5.3-3.9-13.2-2.5-5.4-5.3-12.2-6.2-15.1-2.1-6.5-5.5-10.7-9.8-12.1-1.8-.6-7.7-1.8-13.2-2.7-5.5-.9-10.6-2.1-11.2-2.6-.9-.7-1.3-4.4-1.3-11.9 0-12.9-1-11.8 14.5-14.4 5.5-1 11.4-2.4 13.1-3.1 3.4-1.6 6.3-6.2 8.9-14.4 1-3 3.5-9.1 5.7-13.4 2.1-4.4 3.8-8.8 3.8-9.8 0-3.2-2.5-8.1-8.7-16.8-3.3-4.7-6.3-9.3-6.6-10.3-.5-1.4.9-3.6 6-8.8 7.7-8 10.2-9.1 14.3-6 1.6 1.1 6.5 4.6 11 7.6 9.6 6.6 12.3 6.9 21.1 2.5 3.3-1.7 9.2-4.2 13.2-5.6 15.7-5.6 16-6 18.7-21.7C344 25 343.1 26 355.2 26c5.7 0 10.9.4 11.6.9z"/><path d="M343.5 95.5c-14 3-23.9 8.8-33.5 19.3-22.2 24.1-21.2 61.7 2.2 85 18.9 18.9 47.8 23.6 71.7 11.6 8.4-4.2 18.7-13.4 24.1-21.7 8.2-12.6 11.7-31 8.6-45.7-7.1-33.6-40.4-55.7-73.1-48.5zm20.6 25.9c22.4 5.2 33.9 29.4 24 50.2-8.5 17.6-29.5 25.3-47.2 17.2-26.8-12.3-27.8-51-1.7-64.4 8.6-4.4 15.6-5.2 24.9-3zM156.3 142c-4.8 2.9-6 5.5-8 17-2.1 11.8-.9 10.5-15.2 16.5l-8.5 3.5-5.6-4c-16.9-11.8-21.6-13.6-32.6-12.8-10.1.7-16.1 4.3-29.4 17.5-13.3 13.2-16.8 19-17.7 29.2-.9 9.4 1.1 15.2 9.4 27.5l7.5 11-3.5 8.1c-2 4.4-3.9 9.3-4.2 10.8-.4 1.5-.8 2.7-.9 2.7-3.7 0-24.5 4.8-28.2 6.4-6.7 3.1-12.9 9.4-16.3 16.5C.6 297.4.5 298 .5 317.5c0 19.9 0 20 2.8 25.7 3.5 7.1 11.6 14.7 18.3 17.1 2.7.9 9.5 2.5 15.2 3.6 5.7 1 10.4 2 10.6 2.2.1.2 1.7 4 3.5 8.4s3.7 9.1 4.3 10.5c.9 2.3.4 3.5-5.5 11.8-8.5 12-10.2 16.5-10.1 26.7 0 11.9 2 15.4 17.2 30.7 15.6 15.9 19.7 18.2 31.7 18.3 10.2 0 14.7-1.7 26.7-10.2l9.2-6.5 5.1 2.2c2.7 1.2 7.5 3.1 10.5 4.3 3 1.1 5.7 2.2 5.9 2.3.2.2 1.1 4.8 2.1 10.4 1 5.5 2.6 12.3 3.5 15 2.2 6.7 10 15.1 17.3 18.7 5.7 2.8 5.8 2.8 25.7 2.8 19.5 0 20.1-.1 25.6-2.6 7.1-3.4 13.4-9.6 16.5-16.3 1.2-2.8 3.2-10.2 4.3-16.5 1.2-6.3 2.2-11.5 2.3-11.5.2-.1 5.1-2.1 10.9-4.4l10.7-4.3 11 7.4c12.1 8.3 18.3 10.4 27.9 9.4 9.6-1 15.3-4.6 28.3-17.4 14-14.1 17.1-19.2 17.8-30 .7-10.2-1-15.1-9.5-27.6L333 387l1.6-3.3c1-1.7 3-6.3 4.4-10.2 1.5-3.8 3.3-7.2 4.1-7.7.8-.4 5.9-1.4 11.4-2.4 8.8-1.5 10.4-2.1 13.2-4.9 5.5-5.5 5.6-12.9.2-18.1-2.8-2.7-3.6-2.9-10.2-2.9-4 0-12.7 1.1-19.5 2.4-15.4 2.9-16.6 3.9-21.1 17.7-1.8 5.4-5.3 13.7-7.7 18.6-6.6 13.1-6.5 13.4 6.6 32.1 11 15.7 11 15.4-2.4 28.5-8.3 8.2-10.9 10.2-13.2 10.2-2 0-6.1-2.3-12.9-7.1-13.9-9.8-18-12.1-21.8-12.1-1.9 0-7.8 2.2-13.7 5-5.8 2.7-14.1 6.1-18.5 7.6-12.9 4.3-13.5 5.2-17 25.1-1.5 8.2-3.1 15.7-3.6 16.7-1.7 3.2-4.7 3.8-18.6 3.8-12.5 0-14.1-.2-16-2-2.7-2.4-2.7-2.5-5.7-19.7-1.4-7.9-2.9-15.1-3.5-16.1-1.8-3.3-4.6-5-13.9-8.1-5.2-1.8-13.5-5.2-18.4-7.7-9.5-4.8-14.6-5.7-18.9-3.4-1.3.8-7.8 5.1-14.3 9.7-8.5 5.9-12.8 8.3-14.9 8.3-2.5 0-4.8-1.8-13.4-10.3-8.5-8.6-10.3-10.9-10.3-13.4 0-2.1 2.4-6.4 8.3-14.9 4.6-6.5 8.9-13 9.7-14.3 2.3-4.3 1.4-9.4-3.4-18.9-2.5-4.9-5.9-13.2-7.7-18.4C67.2 342.7 67 342.6 46 339c-15.4-2.6-15.6-2.7-18-5.3-1.8-1.9-2-3.5-2-16 0-13.9.6-16.9 3.8-18.6 1-.5 8.4-2.1 16.6-3.6 8.2-1.4 16.2-3.3 17.7-4.1 3.3-1.7 4.8-4.3 7.9-13.9 1.2-3.9 4.5-11.7 7.2-17.4 7.3-15 7.3-15.1-6.1-34.1-5.8-8.1-8.1-12.3-8.1-14.4 0-2.5 1.8-4.8 10.3-13.3 13.4-13.4 12.5-13.3 30.4-.8 16.2 11.3 17.3 11.5 29.1 5.7 7-3.6 13.2-6 26.4-10.7 7-2.4 8.5-5.2 11.3-21.2 3.7-20.8 3.3-24.5-3.4-29-4.2-2.8-8.6-2.9-12.8-.3z"/><path d="M186.3 231c-36.5 3.9-66 29-75.8 64.5-2.6 9.4-3.1 28.4-1.1 38.6 3.5 17.1 11.3 31.6 24.1 44.4 17 17 37.4 25.5 61 25.5 41.1 0 76.8-28.8 85-68.6 2.2-10.9 2.3-21.3.1-24.6-5.4-8.2-17.8-8.2-22.1.1-.7 1.5-1.8 6.7-2.4 11.7-1.6 13.9-5.6 23.8-13.7 33.5C229.9 370 213 378 194.8 378c-10.5 0-16.8-1.5-26.8-6.2-6.7-3.2-10.1-5.7-16.1-11.7C139.8 348 134 334 134 317.2c0-18.2 8-35.1 21.9-46.6 9.7-8.1 19.6-12.1 33.5-13.7 5-.6 10.2-1.7 11.7-2.4 8-4.2 8.4-16.7.6-21.8-3.2-2.1-7.3-2.5-15.4-1.7z"/></svg>