<svg version="1.0" xmlns="http://www.w3.org/2000/svg" width="682.667" height="682.667" viewBox="0 0 512 512"><path d="M432 1.1c-17 1.3-44.1 5.3-60.2 8.9-30.6 6.9-53.3 14.8-80.3 28-63.2 30.8-125.9 91.8-163.4 158.9l-5.3 9.4 91.4 91.4 91.4 91.4 11.7-6.5c65.1-36.5 126.1-99.5 156.7-162.1 14.2-28.9 22.8-54.6 29.6-88.2 5.8-29 7.7-48.6 7.8-81.8l.1-29-2.8-5.7c-3.1-6.4-7-10.1-13.7-13.2-4.1-1.8-6.8-2-27.5-2.2-12.6-.1-28.6.2-35.5.7zm-63 87.6c26.7 6.5 48.1 28.1 54.7 55.1 2.5 10.2 2.2 26.7-.6 36.6-7.1 25.3-26 44.9-50.6 52.6-10.8 3.4-27.6 3.9-38.5 1.1-15-3.8-28.1-11.2-37.7-21.3-34-36.1-24.2-95 19.6-117.7 16.9-8.7 34.9-10.9 53.1-6.4z"/><path d="M340.8 117.6c-16.4 3.9-29.1 16.1-33.3 31.8-7.4 27.3 12 54.6 40 56.4 23.8 1.4 43.5-14.2 47.7-37.8 4-22.9-13-46.6-36.6-50.9-7.5-1.4-10.6-1.3-17.8.5zM105.6 140c-23.1 1.9-28.4 2.9-34.8 6.1-8.3 4.3-12.9 10-39.5 50.3-14.6 22-27.4 41.8-28.6 44C1.1 243.5.5 246.3.5 252c0 6.5.4 8.2 2.9 12.8 3.5 6.2 8.7 10.7 14.8 12.7 3.4 1.2 41.2 7.5 44.6 7.5.5 0 2.4-6.2 4.2-13.8 9.9-41.4 27.6-80.7 54.2-119.9 9.5-14 9.1-13.3 7.6-13.2-.7.1-11.1 1-23.2 1.9zM105.7 245.9c-7.7 21.4-14.3 49.9-13.4 57.7 1 8.9 2.9 11.2 54.9 63.1 49 48.8 50.5 50.1 56.1 51.9 5.2 1.6 6.7 1.7 14.4.5 11.6-1.6 32.3-7 46.2-12 6.3-2.3 11.7-4.3 12-4.6.5-.6-164.9-166.5-166-166.5-.4 0-2.3 4.4-4.2 9.9zM58.5 344.1c-1.1.6-14.3 13.3-29.3 28.3C-.4 401.9-1.2 402.9 1 410.9c1.3 4.8 6.6 9.7 11.4 10.6 7.6 1.5 8.5.8 37-27.4 14.8-14.6 27.4-28 28.2-29.8 3.3-7.6.4-16-6.6-19.5-3.9-2-9.5-2.3-12.5-.7zM362.5 389.7c-40.7 27.7-82.2 46.3-125.7 56.3-5.4 1.2-9.8 2.7-9.8 3.2 0 3.4 6.3 41.1 7.5 44.6 2 6.1 6.5 11.3 12.7 14.8 4.6 2.5 6.3 2.9 12.8 2.9 5.7 0 8.5-.6 11.6-2.2 2.3-1.2 22.1-14.1 44-28.6 46.2-30.5 49.6-33.6 53.3-47.4.9-3.4 5.2-50.3 4.7-51-.1-.1-5.1 3.2-11.1 7.4zM102.5 389.6c-4.3 2.2-98.3 96.2-100.6 100.6-1 2.1-1.9 5.1-1.9 6.8 0 5 3.5 10.7 8 13 4.9 2.5 9 2.5 13.8.1 2-1.1 25.6-23.9 52.4-50.8 52.5-52.6 51-50.9 49.4-59.7-1.7-9.2-12.7-14.4-21.1-10zM146.5 434.9c-1.6 1-14.8 13.7-29.2 28.2-22.1 22.4-26.2 27-26.8 30.1-2.1 11.1 7.7 20.7 18.2 17.9 5.4-1.5 58.7-54.9 59.8-59.9 1.4-6.9-1.6-13.6-7.5-16.7-4-2.1-10.9-1.9-14.5.4z"/></svg>