<svg version="1.0" xmlns="http://www.w3.org/2000/svg" width="682.667" height="682.667" viewBox="0 0 512 512"><path d="M250.6 10.3c-2.5 2.6-2.6 2.9-2.6 16.1v13.5l-5.7.6c-16.7 1.8-23.8 2.8-33.9 5.1C134.7 62 73.9 117.5 50.7 189.7c-5.4 16.6-7.6 28.2-10.2 52.5l-.6 5.8H26.4c-13.2 0-13.5.1-16.1 2.6l-2.6 2.6.6 13.5C13.6 376.4 88.7 469 194.5 496c23.3 6 35.4 7.4 61.5 7.4 26 0 37.9-1.4 61.7-7.4 87.1-22.1 156.2-91.2 178.3-178.3 6-23.8 7.4-35.7 7.4-61.7 0-26.1-1.4-38.2-7.4-61.5-15.2-59.7-51.7-111-103.2-145.1-37.6-25-80.1-38.8-125.9-41l-13.7-.7-2.6 2.6zm38.8 16.3c29.1 4 59.4 14.8 86.3 30.9 29.6 17.6 61.3 49.2 78.8 78.8 19.1 32 29.6 65.4 33 104.4l.6 7.3H264V23.9l7.3.6c3.9.3 12.1 1.3 18.1 2.1zM248 154.3v98.2L178.4 322l-69.5 69.5-3.1-3.5C52.7 326.7 41.1 241.4 76 169.1c23.6-48.8 66-85.9 117.5-102.9 15.8-5.2 36-9.1 52.3-10.1l2.2-.1v98.3zM40.4 269.7c3.3 31.2 8 50.6 18.2 73.8 49 111.4 182.6 160.2 291.9 106.5 58.1-28.6 99.1-79.1 115-142 2.2-8.6 4.5-23.2 6-38.3l.6-5.7h16l-.6 6.7c-3.4 38.6-12.8 69.5-30.4 100.3-11 19.3-23.2 35-39.7 51-59.5 57.8-143 79.3-223.1 57.5-37.1-10.1-71.5-30-99.7-57.4-13.8-13.5-21.9-23.2-32.2-38.8-21.7-32.7-34.3-69.9-37.9-112.1l-.6-7.2h16l.5 5.7zm415 1c-4.1 45-20.4 83.9-49.3 117.3l-3 3.5-63.8-63.8-63.8-63.7h180.6l-.7 6.7zM324 335.6l67.5 67.5-3 2.5c-9.3 7.8-20 15.8-27.5 20.4-8.1 5.1-25.9 14-30.7 15.5l-2.3.6v-61.2l-2.5-2.4c-2.3-2.4-2.9-2.5-16-2.5H296v-13.5c0-13.1-.1-13.7-2.5-16-2.3-2.4-2.9-2.5-16-2.5H264v-13.5c0-13.1-.1-13.7-2.5-16-2.4-2.5-2.6-2.5-21.5-2.5s-19.1 0-21.5 2.5l-2.5 2.4V376h-13.5c-13.1 0-13.7.1-16 2.5l-2.5 2.4v61.2l-2.2-.6c-4.9-1.5-22.7-10.4-30.8-15.5-8.1-5.1-19.4-13.4-27-19.9l-3.5-3 67.5-67.6c37.1-37.1 67.7-67.5 68-67.5.3 0 30.9 30.4 68 67.6zm-76 56.5v64.2l-3.7-.7c-2.1-.3-5.7-.6-8-.6H232V328h16v64.1zm32 15.4V455h-4.2c-2.4 0-6 .3-8 .6l-3.8.7V360h16v47.5zM216 422v30l-2.7-.6c-1.6-.3-5.2-1.3-8-2.1l-5.3-1.4V392h16v30zm96-2v27.9l-5.2 1.5c-2.9.8-6.5 1.7-8 2l-2.8.6v-60h16v28z"/><path d="M338 89.4c-15.5 3.4-25.6 8.9-37 20.5-6.7 6.7-9.5 10.5-12.8 17.1-6.2 12.5-7.7 19.2-7.6 34 .1 10.7.5 13.7 2.7 20.5 3.8 11.5 9 19.9 18.2 29 9.3 9.3 16 13.5 28.2 17.8 8 2.8 10 3.1 21.3 3.1 14.8.1 21.6-1.4 33.8-7.6 25.1-12.5 40.9-40.5 38.9-68.9-1.3-17.7-8.1-32.3-21.2-45.4-13.9-13.9-28.3-20.3-47.5-21-6.7-.3-12.8.1-17 .9zm32.1 17.8c14.9 5.5 25.4 14.7 31.9 28.2 15.1 31.4-.3 66.8-34 78.2-8.1 2.8-25.4 2.5-33.4-.4-17.9-6.5-30.1-19.1-36.2-37.2-1.4-4-1.9-8.4-1.9-16 0-15.8 5-28.2 15.6-39 8-8.1 18-13.6 29.4-16.1 7-1.5 21.3-.3 28.6 2.3z"/><path d="M344 116c0 3-.4 4-1.6 4-10.8 0-22.4 12.5-22.4 24s11.6 24 22.4 24c1.3 0 1.6 1.3 1.6 8 0 6.5-.3 8-1.5 8-2 0-6.5-4.5-6.5-6.5 0-1.2-1.5-1.5-8-1.5-6.7 0-8 .3-8 1.6 0 10 12.4 22.4 22.4 22.4 1.2 0 1.6 1 1.6 4v4h16v-4c0-3.2.4-4 1.8-4 4.8 0 11.3-3.4 15.5-8 9.3-10.3 9-22.8-.8-32.5-4.7-4.7-10.2-7.5-14.9-7.5-1.3 0-1.6-1.3-1.6-8 0-9 1.1-10 5.5-5.5 1.4 1.3 2.5 3.1 2.5 4 0 1.2 1.5 1.5 8 1.5 6.7 0 8-.3 8-1.6 0-7.6-8-18.2-15.7-20.8-2.6-.9-5.5-1.6-6.5-1.6-1.4 0-1.8-.8-1.8-4v-4h-16v4zm0 28c0 6.5-.3 8-1.5 8-2.7 0-6.5-4.7-6.5-8s3.8-8 6.5-8c1.2 0 1.5 1.5 1.5 8zm21.5 26.5c1.6 1.5 2.5 3.6 2.5 5.5 0 3.3-3.8 8-6.5 8-1.2 0-1.5-1.5-1.5-8 0-9 1.1-10 5.5-5.5zM160 164c0 3-.4 4-1.6 4-10.8 0-22.4 12.5-22.4 24s11.6 24 22.4 24c1.3 0 1.6 1.3 1.6 8 0 6.5-.3 8-1.5 8-2 0-6.5-4.5-6.5-6.5 0-1.2-1.5-1.5-8-1.5-6.7 0-8 .3-8 1.6 0 10 12.4 22.4 22.4 22.4 1.2 0 1.6 1 1.6 4v4h16v-4c0-3.2.4-4 1.8-4 4.8 0 11.3-3.4 15.5-8 9.3-10.3 9-22.8-.8-32.5-4.7-4.7-10.2-7.5-14.9-7.5-1.3 0-1.6-1.3-1.6-8 0-6.5.3-8 1.5-8 2 0 6.5 4.5 6.5 6.5 0 1.2 1.5 1.5 8 1.5 6.7 0 8-.3 8-1.6 0-7.6-8-18.2-15.7-20.8-2.6-.9-5.5-1.6-6.5-1.6-1.4 0-1.8-.8-1.8-4v-4h-16v4zm0 28c0 6.5-.3 8-1.5 8-2.7 0-6.5-4.7-6.5-8s3.8-8 6.5-8c1.2 0 1.5 1.5 1.5 8zm21.5 26.5c1.6 1.5 2.5 3.6 2.5 5.5 0 3.3-3.8 8-6.5 8-1.2 0-1.5-1.5-1.5-8 0-9 1.1-10 5.5-5.5z"/></svg>