<svg version="1.0" xmlns="http://www.w3.org/2000/svg" width="682.667" height="682.667" viewBox="0 0 512 512"><path d="M181.3 33.5c-8.1 2.2-13.2 5.2-19.3 11.4-6.4 6.3-10.3 13.8-11.9 22.5-.6 3.3-1.1 15.8-1.1 27.7v21.8l-56.7.3-56.8.3-5.7 2.7c-7.6 3.5-14.1 10.4-16.8 17.5-2 5.4-2.1 6.9-1.8 50.7.3 44.8.3 45.1 2.6 49.4 3.5 6.6 8.8 11.9 15 14.9 5.3 2.6 6.7 2.8 20.3 3.1l14.7.4.4-9.4c.6-12 3.1-18 10.4-24.7 8.2-7.5 12.4-8.6 32.9-8.6 16.3 0 17.2.1 22.6 2.6 6.9 3.3 12.7 8.9 16 15.5 1.9 3.9 2.5 6.8 2.7 14.6l.4 9.8H363v-8.5c0-15 6.2-25.4 18.8-31.3 5.5-2.6 6.3-2.7 22.7-2.7 20.5 0 24.7 1.1 32.9 8.6 7.3 6.7 9.8 12.7 10.4 24.7l.4 9.4 14.7-.4c13.6-.3 15-.5 20.3-3.1 6.2-3 11.5-8.3 15-14.9l2.3-4.3v-93l-2.4-4.9c-3.3-6.6-9.1-12.2-16-15.5l-5.6-2.6-56.7-.3-56.8-.3V95.1c0-11.9-.5-24.4-1.1-27.7-3.1-16.7-15-29.6-31.4-33.9-8.4-2.2-141.1-2.1-149.2 0zM320 96v21H192V75h128v21z"/><path d="M90.1 236.6c-4.5 3.2-5.1 6.7-5.1 30.5 0 24.8.6 27.5 6.5 30.3 4.4 2.1 25 2.2 30 .2 6.1-2.6 6.5-4.7 6.5-31.1 0-32.2.5-31.5-21.8-31.5-11.1 0-14.2.3-16.1 1.6zM389.4 236.1c-4.9 2.5-5.4 5-5.4 30.4 0 26.4.4 28.5 6.5 31.1 5 2 25.6 1.9 30-.2 5.9-2.8 6.5-5.5 6.5-30.3 0-32.2.1-32.1-21.5-32-7.7 0-14.9.5-16.1 1z"/><path d="M21.7 277.7c-1.2 1.2-.8 170.7.4 176.5 2.1 10.3 10 19.8 19.5 23.4 4.8 1.8 10.8 1.9 214.9 1.9h210l5.3-2.4c6.8-3.1 14.4-11.3 16.9-18.3 1.7-5 1.8-10.5 1.8-93.3v-88l-21.1-.3-21.1-.2-.5 9.8c-.4 8.7-.8 10.5-3.8 16.1-3.7 6.9-6.8 9.9-14.4 13.9-5 2.7-5.4 2.7-24.1 2.7-17.7 0-19.3-.2-23.6-2.3-6.7-3.3-12.1-8.3-15.4-14.3-2.5-4.6-3-6.9-3.5-15.4l-.5-10h-213l-.6 10c-.4 7.6-1.1 11-2.8 14.3-3.3 6.5-8.7 11.8-14.9 14.9-5.6 2.8-5.9 2.8-24.7 2.8h-19l-6.3-3.4c-11.5-6.2-16.3-14.5-17-29.4l-.5-9.7H43c-11.4 0-21 .3-21.3.7z"/></svg>