<svg version="1.0" xmlns="http://www.w3.org/2000/svg" width="682.667" height="682.667" viewBox="0 0 512 512"><path d="M231.5 1.1C167.4 7.7 110.4 36.4 66.6 84 4.8 151.1-15.9 248.4 13 336c13.1 39.7 33.8 72.9 64.1 102.7 40.2 39.5 89 63.2 147.4 71.5 11.9 1.7 51.2 1.6 63.5-.1 58.6-8.1 109.1-33.1 149.7-74.2 40.4-40.9 64.1-89.4 72.5-148.4 1.7-11.8 1.7-51.2 0-63-4.8-33.7-14.6-64.1-29.5-91-11.7-21.3-25.3-39.5-43-57.4-39.8-40.3-89.3-65.3-146.2-73.7-12.3-1.8-47.8-2.6-60-1.3zm144 154.3c4.4 1.9 6.5 6.1 6.5 13.1 0 6.4-42.3 207.2-44.5 211.6-3.2 6.2-10.1 8.5-17.1 5.9-2.4-.9-25.5-17.6-59.3-42.7l-8.4-6.2-18.1 17.3c-13.3 12.6-19.1 17.6-21.5 18.1-1.8.4-3.5.5-3.7.2-.3-.3.4-14.8 1.6-32.4l2.1-31.8 7.1-6.5c3.8-3.6 30.9-28.1 60.1-54.5 29.3-26.5 53.2-48.7 53.2-49.5 0-1.1-1.1-1.5-3.5-1.4-2.9.1-17.7 9-77.7 46.7-40.7 25.7-74.6 46.7-75.2 46.7-2.7 0-65.8-20.3-68.8-22.1-6.4-4-5-9.9 3.3-14.6 2.2-1.2 18.1-7.7 35.4-14.3 17.3-6.7 50-19.3 72.5-28 22.6-8.7 62.8-24.2 89.5-34.5 58.5-22.6 57.9-22.4 60.8-22.5 1.2 0 3.8.6 5.7 1.4z"/></svg>