<svg version="1.0" xmlns="http://www.w3.org/2000/svg" width="682.667" height="682.667" viewBox="0 0 512 512"><path d="M116.5 34.9c-16.5 9.5-66.8 67.6-81.2 93.8-3.4 6.1-3.5 6.7-2.9 13.1 2.2 21.4 11.7 52.1 24.8 80.2 14.5 30.9 39 67.9 66.8 101 14.2 16.9 47.5 50.2 64 64.2 59.8 50.4 120.1 82 174.4 91.3 4.9.8 10.2 1.5 11.9 1.5 5.7 0 21.5-10.2 45.4-29.2 30.8-24.6 55.1-48.6 59.2-58.6 3.4-8.1-3.2-15.6-27.1-31.5-34.7-22.9-67-41.1-82.3-46.2-7.1-2.4-7.7-2.5-11.2-1-4.9 2-8 5.1-21.8 21-6.2 7.1-13.3 14.9-15.7 17.3l-4.5 4.3-6.4-1.6c-20.8-5.4-49-20.1-72.4-37.8-10.3-7.9-27.7-24.7-37.3-36.2-18.2-21.7-35.4-52.9-42.3-76.8l-2.2-7.8 5.4-5.5c3-3.1 10.4-9.8 16.4-14.9 14-11.8 19-17.1 20.9-21.7 1.5-3.4 1.4-4.2-.5-10.2-5.6-18.2-46.5-87.1-61.3-103.3-8.2-9-12-10.1-20.1-5.4zM272 48v16h4.8c20.8 0 48.4 6.8 69.9 17 36.7 17.5 64.4 44.6 82.3 80.5 11.2 22.5 16 39.4 18.2 64.7l1.2 13.8H480v-4.4c0-7.7-1.9-24.7-4.1-36.1-5.9-30.9-22.4-66.2-42-89.9C398 66.2 350 39.9 295.2 33.5c-7-.8-15.1-1.5-17.9-1.5H272v16z"/><path d="M272 127.7v16l7.9.7c23.3 1.9 43.6 11.6 60.6 29 16.2 16.5 25.2 36.1 27.1 58.8l.7 7.8H400v-4.1c0-13.8-6.1-38.3-13.1-52.1-12.2-24.3-33.8-46.2-57.4-58-14.9-7.5-31.5-12.1-48.4-13.4l-9.1-.7v16z"/></svg>