<svg xmlns="http://www.w3.org/2000/svg" width="682.667" height="682.667" version="1.0" viewBox="0 0 512 512"><path d="M94.6 17.1c-6.2 1.5-15.3 6.8-19.7 11.6-2.2 2.4-5.5 7.4-7.2 11.1l-3.2 6.7v419.1l3.7 7.6c4.5 9.1 10.3 14.7 19.6 19.1l6.7 3.2h323l6.7-3.2c9.3-4.4 15.1-10 19.6-19.1l3.7-7.6.3-174.5.2-174.6-50.2-50.2L347.5 16l-124.5.1c-71 .1-126.2.5-128.4 1zm241.6 47.7.3 32.8 3.7 7.6c4.5 9.1 10.3 14.7 19.6 19.1l6.7 3.2 32.8.3 32.7.3v165.6c0 127.1-.3 166.5-1.2 169.7-1.6 5.5-9.9 13.8-15.4 15.4-6 1.7-312.8 1.7-318.8 0-5.5-1.6-13.8-9.9-15.4-15.4-1.8-6-1.8-408.8 0-414.8 1.5-5.1 9.9-13.7 14.8-15.3 2.5-.8 38.6-1.1 121.7-1.2l118.2-.1.3 32.8zm60.6 47c-16.2.2-24.7-.1-27.8-1-5.9-1.6-14.1-9.6-15.8-15.4-.8-2.7-1.2-12.2-1.2-28V43.5l34 34 34 34-23.2.3z"/><path d="M114.5 114.5c-1.6 1.5-2.5 3.6-2.5 5.5s.9 4 2.5 5.5l2.4 2.5h102.2l2.4-2.5c1.6-1.5 2.5-3.6 2.5-5.5s-.9-4-2.5-5.5l-2.4-2.5H116.9l-2.4 2.5zM114.5 162.5c-1.6 1.5-2.5 3.6-2.5 5.5s.9 4 2.5 5.5l2.4 2.5h54.2l2.4-2.5c1.6-1.5 2.5-3.6 2.5-5.5s-.9-4-2.5-5.5l-2.4-2.5h-54.2l-2.4 2.5zM194.5 162.5c-1.6 1.5-2.5 3.6-2.5 5.5s.9 4 2.5 5.5l2.4 2.5h198.2l2.4-2.5c1.6-1.5 2.5-3.6 2.5-5.5s-.9-4-2.5-5.5l-2.4-2.5H196.9l-2.4 2.5zM114.5 210.5c-1.6 1.5-2.5 3.6-2.5 5.5s.9 4 2.5 5.5l2.4 2.5h166.2l2.4-2.5c1.6-1.5 2.5-3.6 2.5-5.5s-.9-4-2.5-5.5l-2.4-2.5H116.9l-2.4 2.5zM306.5 210.5c-1.6 1.5-2.5 3.6-2.5 5.5s.9 4 2.5 5.5l2.4 2.5h86.2l2.4-2.5c1.6-1.5 2.5-3.6 2.5-5.5s-.9-4-2.5-5.5l-2.4-2.5h-86.2l-2.4 2.5zM114.5 258.5c-1.6 1.5-2.5 3.6-2.5 5.5s.9 4 2.5 5.5l2.4 2.5h102.2l2.4-2.5c1.6-1.5 2.5-3.6 2.5-5.5s-.9-4-2.5-5.5l-2.4-2.5H116.9l-2.4 2.5zM242.5 258.5c-1.6 1.5-2.5 3.6-2.5 5.5s.9 4 2.5 5.5l2.4 2.5h150.2l2.4-2.5c3.3-3.2 3.3-7.8 0-11l-2.4-2.5H244.9l-2.4 2.5zM114.5 306.5c-1.6 1.5-2.5 3.6-2.5 5.5s.9 4 2.5 5.5l2.4 2.5h198.2l2.4-2.5c1.6-1.5 2.5-3.6 2.5-5.5s-.9-4-2.5-5.5l-2.4-2.5H116.9l-2.4 2.5zM338.5 306.5c-1.6 1.5-2.5 3.6-2.5 5.5s.9 4 2.5 5.5l2.4 2.5h54.2l2.4-2.5c1.6-1.5 2.5-3.6 2.5-5.5s-.9-4-2.5-5.5l-2.4-2.5h-54.2l-2.4 2.5zM114.5 354.5c-1.6 1.5-2.5 3.6-2.5 5.5s.9 4 2.5 5.5l2.4 2.5h70.2l2.4-2.5c1.6-1.5 2.5-3.6 2.5-5.5s-.9-4-2.5-5.5l-2.4-2.5h-70.2l-2.4 2.5zM210.5 354.5c-1.6 1.5-2.5 3.6-2.5 5.5s.9 4 2.5 5.5l2.4 2.5h86.2l2.4-2.5c1.6-1.5 2.5-3.6 2.5-5.5s-.9-4-2.5-5.5l-2.4-2.5h-86.2l-2.4 2.5zM322.5 354.5c-1.6 1.5-2.5 3.6-2.5 5.5s.9 4 2.5 5.5l2.4 2.5h70.2l2.4-2.5c1.6-1.5 2.5-3.6 2.5-5.5s-.9-4-2.5-5.5l-2.4-2.5h-70.2l-2.4 2.5zM114.5 402.5c-1.6 1.5-2.5 3.6-2.5 5.5s.9 4 2.5 5.5l2.4 2.5h102.2l2.4-2.5c1.6-1.5 2.5-3.6 2.5-5.5s-.9-4-2.5-5.5l-2.4-2.5H116.9l-2.4 2.5zM242.5 402.5c-1.6 1.5-2.5 3.6-2.5 5.5s.9 4 2.5 5.5l2.4 2.5h86.2l2.4-2.5c1.6-1.5 2.5-3.6 2.5-5.5s-.9-4-2.5-5.5l-2.4-2.5h-86.2l-2.4 2.5zM354.5 402.5c-1.6 1.5-2.5 3.6-2.5 5.5s.9 4 2.5 5.5c2.4 2.5 2.6 2.5 21.5 2.5s19.1 0 21.5-2.5c1.6-1.5 2.5-3.6 2.5-5.5s-.9-4-2.5-5.5c-2.4-2.5-2.6-2.5-21.5-2.5s-19.1 0-21.5 2.5z"/></svg>