<svg version="1.0" xmlns="http://www.w3.org/2000/svg" width="682.667" height="682.667" viewBox="0 0 512 512"><path d="M211.5 72.6c-85.8 2.8-124.1 5.6-144 10.5-15.4 3.7-27.9 11.2-39.1 23.2-11.8 12.7-17.1 23.6-21 42.6-9.9 48.8-9.9 167.5 0 216.4 3.9 18.9 9.4 30.1 21 42.4C40 420 54.1 428 70.9 431.5c34.6 7.3 153.6 12.1 236.6 9.6 81.2-2.4 122.6-5.7 141-11.2 24.6-7.3 44.1-26.1 52.5-50.5 12.8-37.1 15-172.4 3.8-229.4-4-20.4-11.5-34.9-24.5-47.1-11.4-10.7-23.9-17.2-39.2-20.4-16.8-3.5-53.2-6.6-98.6-8.5-25.4-1.1-112.8-2-131-1.4zm98 40.4c79.1 2.4 119.8 5.9 132.3 11.6 10.1 4.5 17.4 12.1 20.8 21.6 2.7 7.4 5.3 22.9 7.1 41.9 2.2 23.5 2.5 105.6.5 130.4-2.4 28.8-5.3 45.9-9.3 53.7-5 9.9-15.2 17.5-27 20.2-28 6.5-147.8 11-227.4 8.7-64.4-1.9-109.1-4.9-126.8-8.7-18.3-3.8-29.2-15.2-33.1-34.9-8.8-44-8.8-157 0-201 2.1-10.7 5.7-17.9 11.8-24.1 9.6-9.5 18.4-12 50.8-14.8C163 113 245 111.1 309.5 113z"/><path d="M205 257.1v81.1l2.3-1.4c1.2-.8 32.5-18.9 69.5-40.3s67.1-39.3 67-39.7c-.2-.4-29.5-17.6-65.3-38.3-35.7-20.7-66.9-38.7-69.2-40.1l-4.3-2.5v81.2z"/></svg>