<svg version="1.0" xmlns="http://www.w3.org/2000/svg"
  viewBox="0 0 583.000000 233.000000"
 preserveAspectRatio="xMidYMid meet">

<g transform="translate(0.000000,233.000000) scale(0.100000,-0.100000)"
fill="#000000" stroke="none">
<path d="M2140 2314 c-280 -51 -453 -138 -634 -321 -79 -79 -141 -163 -196
-265 -88 -164 -128 -316 -137 -525 l-6 -141 -76 -6 c-207 -15 -259 -17 -264
-9 -2 4 28 139 69 298 40 160 74 296 74 303 0 7 -12 12 -28 12 -25 0 -37 -13
-98 -102 -38 -57 -103 -151 -144 -210 l-74 -108 -40 7 c-44 7 -50 7 -82 5 -22
-2 -33 -24 -26 -54 3 -14 14 -18 48 -18 25 0 44 -5 44 -11 0 -13 -59 -99 -80
-116 -10 -8 -61 -12 -157 -13 -78 0 -166 -5 -195 -11 -65 -14 -128 -45 -128
-63 0 -15 56 -42 120 -56 25 -5 116 -13 203 -16 l159 -7 39 -53 c21 -29 39
-58 39 -63 0 -5 -21 -11 -48 -13 -43 -3 -47 -5 -50 -30 -5 -44 60 -61 130 -33
19 7 28 -5 209 -267 91 -133 104 -148 130 -148 16 0 29 3 29 6 0 7 -137 555
-147 588 -5 18 1 19 168 12 96 -4 183 -9 194 -12 16 -4 25 -21 38 -71 20 -75
87 -215 145 -300 122 -180 318 -335 517 -411 251 -95 566 -103 809 -20 169 58
334 166 469 307 75 79 90 108 65 129 -8 6 -111 13 -240 17 l-226 8 -60 -37
c-211 -128 -508 -139 -730 -27 -147 74 -303 236 -337 349 l-6 22 946 -2 947
-3 25 -69 c107 -297 353 -547 650 -660 301 -115 679 -110 958 12 353 154 600
482 662 876 15 101 15 107 -2 126 -18 20 -33 20 -1013 20 l-995 0 6 98 c6 118
25 192 77 297 107 219 294 375 525 436 111 30 366 33 470 5 185 -49 343 -160
430 -301 47 -76 43 -75 205 -75 130 0 149 2 163 18 25 27 21 55 -17 131 -146
288 -420 480 -774 541 -339 59 -711 -21 -959 -206 -129 -98 -271 -261 -335
-389 -71 -140 -118 -329 -118 -477 0 -59 -3 -79 -12 -76 -8 3 -16 37 -20 94
-40 470 -325 885 -698 1016 -148 52 -199 60 -395 63 -104 2 -201 1 -215 -1z
m388 -320 c269 -56 442 -219 536 -507 19 -59 76 -307 76 -333 0 -2 -369 -4
-821 -4 l-821 0 7 43 c59 375 151 559 340 686 86 57 157 86 275 111 110 24
303 26 408 4z m2897 -1164 c3 -5 -6 -33 -21 -62 -92 -184 -257 -323 -469 -396
-178 -61 -411 -51 -601 24 -145 57 -291 179 -392 329 -87 128 -170 115 712
115 479 0 767 -4 771 -10z"/>
</g>
</svg>
