<?xml version="1.0" encoding="utf-8"?>
<!-- Generator: Adobe Illustrator 22.1.0, SVG Export Plug-In . SVG Version: 6.00 Build 0)  -->
<svg version="1.1" id="Слой_1" xmlns="http://www.w3.org/2000/svg" xmlns:xlink="http://www.w3.org/1999/xlink" x="0px" y="0px"
	 viewBox="0 0 408 366" style="enable-background:new 0 0 408 366;" xml:space="preserve">
<style type="text/css">
	.st0{fill:#E4E0D8;}
	.st1{fill:#69381C;}
	.st2{fill:#E5E3DC;}
	.st3{fill:#F3F0EF;}
	.st4{clip-path:url(#SVGID_4_);}
	.st5{fill:#DB6F34;}
	.st6{fill:#5B6C46;}
	.st7{fill:#F0EEEC;}
	.st8{fill:#9AC9DC;}
	.st9{fill:none;stroke:#000000;stroke-miterlimit:10;}
	.st10{fill:none;stroke:#000000;stroke-width:0.5;stroke-miterlimit:10;}
	.st11{fill:#534942;}
	.st12{fill:#485E3D;}
	.st13{fill:#FFFFFF;}
	.st14{fill:#AC733A;}
	.st15{fill:#A35918;}
	.st16{opacity:0.67;fill:#FFFFFF;}
	.st17{fill:#372013;}
	.st18{clip-path:url(#SVGID_20_);}
</style>
<g>
	<g>
		<path class="st13" d="M176.5,118.3c6.1,0,7.7,7.3,8.2,8.7c0.1,0.2,0.7,0.2,0.7,0.2v-10.8h-40.5c0,0,0,0.5,0.2,0.6
			c1.3,0.5,5.7,0.8,5.7,5.6v45c0,4.8-4.3,5.1-5.7,5.6c-0.2,0.1-0.2,0.7-0.2,0.7h41.4l5-14.1h-0.1c0,0-0.5,0-0.5,0.2
			c-0.5,1.3-7.7,12-14.9,12H163c-1.3-0.1-5.7,0.4-5.7-4.3V146H173c4.8,0,6,6.1,6.5,7.4c0.1,0.2,0.7,0.2,0.7,0.2v-9.5v-7.5
			c0,0-0.6,0-0.7,0.2c-0.5,1.3-1.7,7.3-6.5,7.3h-15.7v-25.8H176.5z"/>
		<path class="st13" d="M200.4,173.8h5.9c0,0,0.1-0.6-0.2-0.7c-1.3-0.5-5.3-0.4-5.2-4.6l4.5-43c5.6,15.3,21.3,23.1,19.9,48.3h2.1
			l3.1-7.9l0.6-0.8c0-0.2,0-0.4,0-0.7l16-40.2l4.6,44.2c0.1,4.3-3.9,4.2-5.2,4.7c-0.2,0.1-0.2,0.7-0.2,0.7h6h6.7h0.1h5.8
			c0,0,0-0.6-0.2-0.7c-1.3-0.5-5.6-0.5-6.2-5.2l-4.8-45.8c0-4.1,3-4.7,4.2-5.2c0.2-0.1,0.2-0.6,0.2-0.6h-5.1h-0.8h-2.1h-1.3h-0.7
			l-17.1,42.9c-1.6-17.9-18.1-27.2-21.2-42.9h-3.6h-1.1H205h-0.5h-5.2c0,0,0.1,0.5,0.3,0.6c1.3,0.5,4.7,1,4.1,6.1l0.1-0.3l-4.7,45.2
			c-0.7,4.8-5,4.8-6.3,5.3c-0.2,0.1-0.2,0.7-0.2,0.7h5.9H200.4z"/>
		<path class="st13" d="M174.2,239.6c-6.1,0-8-20.2-20.1-26.2c22.8-3.2,21.2-30.4-4.6-30.4h-7.1h-6.6h-1.1H130c0,0,0,0.5,0.2,0.6
			c1.3,0.5,5.7,0.8,5.7,5.6v45c0,4.8-4.3,5.1-5.7,5.6c-0.2,0.1-0.2,0.7-0.2,0.7h5.9h6.6h6c0,0,0-0.6-0.2-0.7
			c-1.3-0.5-5.7-0.8-5.7-5.6v-20.5h5.6c8.8,2.2,8.9,27.7,25.9,27.7c3.2,0,5.2-1.9,6.2-4.8l-1.6-0.7
			C177.8,238,176.5,239.6,174.2,239.6z M142.4,211.9V185h5c20.6,0,20.8,26.3,0.6,26.9c-0.4,0-0.8-0.1-1.2-0.1
			c-0.2,0-0.4,0.1-0.7,0.1H142.4z"/>
		<path class="st13" d="M242.9,239.8c-1.3-0.5-4.7-1.6-6.4-5.3L213.2,182h-1.9L188,234.6c-1.7,3.6-5,4.8-6.3,5.2
			c-0.2,0.1-0.2,0.7-0.2,0.7h3.9h0.9h1.1h5.9c0,0,0-0.6-0.2-0.7c-1.3-0.5-4.8-0.9-3.1-5.2l0.4-0.8l0.1,0c3.8-11.1,26.5-3.9,32-11.6
			c0.3-0.4,0.5-0.9,0.7-1.5l6.2,14c1.6,4.2-1.8,4.6-3.1,5.1c-0.2,0.1-0.2,0.7-0.2,0.7h5.9h3.9h3.4h4
			C243.2,240.5,243.1,239.9,242.9,239.8z M221.5,219.3c0,4.5-7.6,4.9-10.8,5.3c-2.1,0.2-4.3,0.3-6.5,0.6c-2.4,0.2-4.8,0.6-7.1,1.1
			c-1.5,0.4-2.9,0.9-4.2,1.7l16.7-37.6l11.2,25.3l-0.1,0C221.2,216.9,221.5,218.1,221.5,219.3z"/>
		<path class="st13" d="M287.3,183.6c1.2,0.5,5.1,0.7,5.7,4.5v40.9c-8.7-16.7-29.3-25.5-37.3-46H246c0,0,0,0.5,0.2,0.6
			c1.3,0.5,5.7,1.8,5.7,7.9v42.7c0,4.8-4.3,5.1-5.7,5.6c-0.2,0.1-0.2,0.7-0.2,0.7h13.8c0,0,0-0.6-0.2-0.7c-1.3-0.5-5.7-0.8-5.7-5.6
			v-41.8c10.2,19.6,30.4,28.1,39.2,48.1h1.9v-51.3c0-4.8,4.3-5.1,5.7-5.6c0.2-0.1,0.2-0.6,0.2-0.6h-13.7
			C287.1,183.1,287.1,183.6,287.3,183.6z"/>
		<path class="st13" d="M351.7,183.1h-19.5h-6.6H306l-2.5,11.1c0,0,0.6-0.1,0.7-0.2c0.5-1.4,4.8-8.9,11.7-8.9h9.6v49.3
			c0,4.8-4.3,5.1-5.7,5.6c-0.2,0.1-0.2,0.7-0.2,0.7h5.9h6.6h5.9c0,0,0-0.6-0.2-0.7c-1.3-0.5-5.7-0.8-5.7-5.6V185h9.6
			c6.8,0,11.2,7.5,11.7,8.9c0.1,0.2,0.6,0.2,0.6,0.2L351.7,183.1z"/>
		<path class="st13" d="M117.6,86.6l2.5-0.1c11.5-2.1,21.1,2.3,21.3,2.4c-0.4,1.6-1.2,3.8-1.7,5.3c-0.5,1.6-1,3.1-1.5,4.7
			c-0.5,1.5-1,3.1-1.4,4.6c-0.5,1.6-1,3.1-1.5,4.7c0.5,0.2,1,0.4,1.5,0.3c0.3,0,0.5-0.1,0.7-0.3c0.1-0.2,0.3-0.4,0.4-0.6
			c0.9-1.2,1.9-2.4,2.8-3.6c0.9-1.2,1.9-2.4,2.8-3.6c0.9-1.2,1.8-2.3,2.7-3.5c0.2-0.3,0.5-0.6,0.7-0.9c0.2,0,0.4,0.1,0.6,0.1
			c0.3,0,0.3,0.2,0.5,0.3c0,0,0.1,0,0.2,0c0.9,0.2,1.9,0.3,2.8,0.2c0.3,0,0.5-0.1,0.5-0.5c0-0.3,0-0.5,0.1-0.8c0-0.2,0-0.4,0-0.6
			c0-0.3-0.1-0.4-0.4-0.4c-0.8-0.2-1.6-0.3-2.4-0.1c-0.1,0-0.3,0-0.5-0.1c0.3-0.4,0.5-0.7,0.8-1c0.6-0.8,1.2-1.5,1.8-2.3
			c0.2-0.3,0.5-0.4,0.8-0.5c0.3-0.1,0.5-0.1,0.8-0.1c2.2,0.1,4.3,0.3,6.5,0.3c0.9,0,1.8,0,2.6-0.1c0.9-0.1,1.8-0.2,2.7-0.5
			c0.6-0.2,1.2-0.4,1.7-0.8c0.2-0.1,0.4-0.3,0.6-0.5c0.1-0.1,0.1-0.2,0-0.3c-0.1-0.1-0.1-0.1-0.2-0.2c-0.7-0.6-1.5-1-2.4-1.3
			c-0.8-0.3-1.6-0.4-2.3-0.6c-1.1-0.2-2.2-0.4-3.3-0.5c-1.9-0.1-3.7-0.2-5.6-0.3c-0.3,0-0.6-0.1-0.9-0.2c-0.3-0.2-0.5-0.5-0.7-0.8
			c-0.6-0.9-1.1-1.8-1.7-2.7c-0.1-0.2-0.2-0.4-0.3-0.6c0.4,0.1,0.8,0.1,1.1,0.2c0.4,0,0.7,0,1.1,0.1c0.4,0,0.7,0,1-0.2
			c0.3-0.7,0.3-1.4,0.1-2.1c-0.1,0-0.2-0.1-0.3-0.1c-0.7-0.2-1.5-0.2-2.2-0.2c-0.4,0-0.9-0.1-1.2,0.3c0,0-0.1,0-0.2,0
			c-0.2,0-0.4,0-0.6,0c-0.1-0.1-0.2-0.3-0.3-0.5c-0.6-1-1.3-2.1-1.9-3.1c-0.7-1.1-1.3-2.2-2-3.3c-0.7-1.1-1.3-2.2-2-3.2
			c-0.6-1-1.3-2.1-1.9-3.1c-0.1-0.2-0.3-0.3-0.5-0.4c-0.6-0.2-1.1,0-1.6,0.2c1.2,6.4,2.3,12.4,3.5,18.7c-3.5-0.5-7.1-0.8-10.7-0.8
			c-39.3,0-71.4,30.4-71.4,67.8c0,15.8,5.8,31.1,16.4,43.2c-2.9,4.4-4.6,10.1-4.6,17.1c0,14.9,9.9,29.9,29.6,29.9
			c4.9,0,9.7-1.5,13.6-4c1.2-0.2,4.8-1.3,4.8,1.8c0,0.9,1.2,0.8,1.2,0.8v-25c0-4.8,4.4-5.1,5.7-5.6c0.2-0.1,0.2-0.7,0.2-0.7H108
			c0,0,0,0.6,0.2,0.7c1.3,0.5,5.7,0.8,5.7,5.6v20.9c-3.3,2.1-7.3,3.2-11.2,3.2c-18.4,0-29.4-24.8-23.7-41.4c0.8,0.9,1.6,1.8,2.5,2.5
			c2.1,1.7,4.4,3,6.8,4c5,2.1,11.9,3.5,17.3,2.3c8-1.8,16-13.8,8.8-20.7c-3.1-3.5-7.6-4.5-13.6-4.5c-8.6,0-18.2,3.5-24.1,11.3
			c0,0-0.1,0-0.1,0c-10.1-11.8-15.6-26.4-15.6-41.7C60.9,119.2,85.4,92.3,117.6,86.6z M101.2,183.6c5.2,0,9.8,1.7,12.2,4.2
			c0,0,0,0,0,0c0.1,0.1,0.2,0.2,0.3,0.4c3.2,4.1,0.8,11.7-3.1,14.5c-3.9,2.9-8,3.2-12.7,2.6c-4.5-0.5-8.9-1.8-12.7-4.2
			c-2.2-1.4-3.8-3.1-5.4-4.9C82.9,188.9,89.8,183.6,101.2,183.6z"/>
		<path class="st13" d="M271.6,173.5c-0.2,0.1-0.2,0.7-0.2,0.7h5.9h6.6h5.9c0,0,0-0.6-0.2-0.7c-1.3-0.5-5.7-0.8-5.7-5.6v-45.2
			c0-4.8,4.4-5.1,5.7-5.6c0.2-0.1,0.2-0.6,0.2-0.6h-5.9h-6.6h-5.9c0,0,0,0.5,0.2,0.6c1.3,0.5,5.7,0.8,5.7,5.6v45.2
			C277.3,172.6,272.9,173,271.6,173.5z"/>
	</g>
	<g>
		<path class="st13" d="M125.5,262.3c0.9-0.2,2.3-0.3,3.7-0.3c2,0,3.3,0.4,4.3,1.1c0.8,0.6,1.3,1.5,1.3,2.8c0,1.5-1,2.8-2.7,3.5v0
			c1.5,0.4,3.2,1.6,3.2,3.9c0,1.4-0.5,2.4-1.3,3.2c-1.1,1-2.9,1.5-5.4,1.5c-1.4,0-2.5-0.1-3.2-0.2V262.3z M127.5,268.7h1.8
			c2.1,0,3.4-1.1,3.4-2.6c0-1.8-1.4-2.6-3.5-2.6c-0.9,0-1.5,0.1-1.8,0.1V268.7z M127.5,276.3c0.4,0.1,1,0.1,1.7,0.1
			c2.1,0,4-0.8,4-3.1c0-2.1-1.8-3-4.1-3h-1.7V276.3z"/>
		<path class="st13" d="M153.8,262.1v9.3c0,3.5,1.6,5,3.7,5c2.3,0,3.8-1.5,3.8-5v-9.3h2.1v9.2c0,4.8-2.5,6.8-6,6.8
			c-3.2,0-5.7-1.8-5.7-6.7v-9.3H153.8z"/>
		<path class="st13" d="M180.2,275.3c0.9,0.6,2.2,1,3.6,1c2.1,0,3.3-1.1,3.3-2.7c0-1.5-0.8-2.3-3-3.1c-2.6-0.9-4.2-2.2-4.2-4.5
			c0-2.5,2-4.3,5.1-4.3c1.6,0,2.8,0.4,3.5,0.8l-0.6,1.7c-0.5-0.3-1.6-0.7-3-0.7c-2.1,0-3,1.3-3,2.4c0,1.5,1,2.2,3.1,3
			c2.7,1,4,2.3,4,4.6c0,2.4-1.8,4.5-5.5,4.5c-1.5,0-3.2-0.4-4-1L180.2,275.3z"/>
		<path class="st13" d="M207.6,262.1v15.7h-2v-15.7H207.6z"/>
		<path class="st13" d="M224.7,277.8v-15.7h2.2l5,8c1.2,1.8,2.1,3.5,2.8,5.1l0,0c-0.2-2.1-0.2-4-0.2-6.5v-6.6h1.9v15.7h-2.1l-5-8
			c-1.1-1.8-2.1-3.6-2.9-5.3l-0.1,0c0.1,2,0.2,3.9,0.2,6.5v6.7H224.7z"/>
		<path class="st13" d="M261.8,270.4h-6.1v5.7h6.8v1.7h-8.9v-15.7h8.5v1.7h-6.5v5h6.1V270.4z"/>
		<path class="st13" d="M278.5,275.3c0.9,0.6,2.2,1,3.6,1c2.1,0,3.3-1.1,3.3-2.7c0-1.5-0.8-2.3-3-3.1c-2.6-0.9-4.2-2.2-4.2-4.5
			c0-2.5,2-4.3,5.1-4.3c1.6,0,2.8,0.4,3.5,0.8l-0.6,1.7c-0.5-0.3-1.6-0.7-3-0.7c-2.1,0-3,1.3-3,2.4c0,1.5,1,2.2,3.1,3
			c2.7,1,4,2.3,4,4.6c0,2.4-1.8,4.5-5.5,4.5c-1.5,0-3.2-0.4-4-1L278.5,275.3z"/>
		<path class="st13" d="M303.6,275.3c0.9,0.6,2.2,1,3.6,1c2.1,0,3.3-1.1,3.3-2.7c0-1.5-0.8-2.3-3-3.1c-2.6-0.9-4.2-2.2-4.2-4.5
			c0-2.5,2-4.3,5.1-4.3c1.6,0,2.8,0.4,3.5,0.8l-0.6,1.7c-0.5-0.3-1.6-0.7-3-0.7c-2.1,0-3,1.3-3,2.4c0,1.5,1,2.2,3.1,3
			c2.7,1,4,2.3,4,4.6c0,2.4-1.8,4.5-5.5,4.5c-1.5,0-3.2-0.4-4-1L303.6,275.3z"/>
	</g>
</g>
</svg>
