<svg version="1.0" xmlns="http://www.w3.org/2000/svg"
 width="499.000000pt" height="300.000000pt" viewBox="0 0 499.000000 300.000000"
 preserveAspectRatio="xMidYMid meet">

<g transform="translate(0.000000,300.000000) scale(0.100000,-0.100000)"
fill="#000000" stroke="none">
<path d="M1316 2932 c-2 -4 7 -63 20 -132 34 -184 47 -166 -107 -161 -540 14
-1008 -319 -1147 -817 -25 -90 -27 -110 -26 -277 0 -166 3 -187 28 -270 36
-120 101 -253 169 -345 l55 -75 -21 -40 c-33 -64 -47 -134 -47 -230 0 -152 42
-259 139 -355 130 -130 342 -167 510 -90 76 35 101 36 116 2 5 -12 13 -22 17
-22 5 0 8 96 8 213 0 235 2 245 63 271 29 13 20 14 -113 15 -143 0 -145 0
-110 -17 56 -27 60 -46 57 -242 l-2 -175 -40 -19 c-55 -27 -178 -33 -242 -12
-62 21 -138 78 -185 141 -80 106 -128 275 -114 405 10 94 17 100 60 62 94 -82
285 -132 393 -103 126 34 219 193 169 290 -22 41 -80 88 -123 100 -48 14 -194
14 -253 0 -72 -16 -161 -65 -213 -114 -57 -55 -56 -55 -128 51 -59 88 -101
178 -136 292 -24 80 -27 102 -27 262 -1 197 10 260 72 408 94 225 293 432 525
546 221 108 463 138 640 80 34 -11 47 -20 43 -30 -19 -50 -86 -273 -86 -287 0
-36 27 -13 100 83 74 97 76 99 115 97 30 -2 40 2 43 16 2 12 -3 17 -17 17 -30
0 -32 14 -6 42 23 25 28 26 102 21 79 -5 158 11 158 32 0 17 -97 44 -162 45
-63 0 -81 9 -103 51 -9 16 -7 19 15 19 18 0 25 5 25 20 0 16 -7 20 -38 20 -37
0 -38 2 -101 104 -58 97 -84 126 -95 108z m-440 -1938 c63 -38 81 -84 63 -157
-28 -117 -137 -172 -294 -147 -82 12 -197 65 -239 109 -27 28 -28 33 -16 55
65 122 175 178 341 173 87 -2 101 -5 145 -33z"/>
<path d="M1430 2110 c0 -5 8 -10 19 -10 10 0 30 -11 45 -25 l26 -24 0 -396 0
-396 -25 -24 c-13 -14 -33 -25 -45 -25 -11 0 -20 -4 -20 -10 0 -6 117 -10 333
-10 l332 0 37 107 c21 59 36 108 34 110 -2 2 -20 -19 -41 -47 -44 -60 -114
-116 -164 -131 -52 -15 -293 -8 -314 10 -15 12 -17 39 -17 207 l0 194 134 0
c152 0 173 -8 206 -84 l19 -41 0 140 0 140 -20 -43 c-34 -77 -45 -81 -201 -82
l-138 0 0 205 0 205 174 0 c199 0 209 -4 242 -85 11 -25 23 -45 27 -45 4 0 7
37 5 83 l-3 82 -322 3 c-214 1 -323 -1 -323 -8z"/>
<path d="M2310 2113 c0 -5 14 -16 30 -25 27 -15 30 -22 30 -65 0 -104 -72
-748 -87 -771 -8 -13 -30 -30 -49 -38 -19 -8 -34 -16 -34 -19 0 -3 47 -5 105
-5 102 0 137 11 75 24 -54 10 -55 24 -21 357 17 167 34 321 37 342 l6 38 42
-74 c24 -41 65 -106 92 -143 134 -185 184 -316 184 -481 0 -55 2 -63 19 -63
15 0 34 41 100 208 191 484 226 571 231 572 3 0 22 -159 42 -353 36 -342 36
-353 19 -377 -10 -14 -27 -27 -37 -28 -10 -2 -23 -8 -28 -13 -6 -5 51 -9 143
-9 141 0 184 9 112 23 -51 10 -61 39 -81 239 -11 101 -28 271 -40 378 -11 107
-20 201 -20 209 0 7 16 29 36 48 l36 34 -81 -3 -82 -3 -128 -320 c-70 -176
-131 -329 -135 -340 -6 -15 -12 -4 -26 50 -22 87 -59 155 -175 322 -79 112
-124 196 -149 276 -5 14 -18 17 -86 17 -44 0 -80 -3 -80 -7z"/>
<path d="M3496 2095 c61 -27 59 -14 62 -421 2 -205 -1 -388 -5 -406 -6 -23
-19 -38 -42 -50 -18 -9 -35 -19 -38 -22 -4 -3 59 -6 138 -6 l144 0 -40 23
c-23 13 -42 33 -46 47 -4 14 -7 192 -8 395 -1 407 -1 408 59 437 35 17 33 17
-110 17 -130 -1 -142 -2 -114 -14z"/>
<path d="M2430 918 c-35 -79 -84 -190 -110 -248 -26 -58 -85 -189 -130 -293
-80 -182 -95 -205 -156 -244 -16 -10 -1 -12 76 -12 86 0 93 1 76 14 -11 8 -23
15 -28 15 -13 0 -9 45 7 84 28 66 89 91 262 106 140 13 198 27 233 56 16 14
31 21 33 17 19 -31 97 -219 97 -234 0 -11 -14 -28 -32 -39 l-33 -20 140 1
c112 0 136 3 121 12 -63 40 -74 59 -266 491 -141 319 -198 436 -210 436 -11 0
-35 -43 -80 -142z m127 -196 c100 -226 107 -246 99 -277 -9 -35 -54 -54 -154
-66 -164 -18 -247 -31 -265 -41 -10 -5 -21 -7 -23 -5 -3 3 47 123 112 268 64
145 120 274 125 287 5 12 12 22 16 22 5 -1 45 -85 90 -188z"/>
<path d="M1226 1021 c23 -10 44 -26 47 -36 4 -9 7 -191 7 -404 0 -378 -1 -389
-21 -415 -11 -14 -29 -26 -39 -26 -10 0 -22 -5 -25 -10 -4 -7 46 -10 142 -9
123 0 143 3 121 12 -14 7 -36 21 -47 31 -20 18 -21 29 -21 203 l0 183 49 0
c70 0 91 -22 168 -176 94 -190 146 -246 243 -264 59 -11 111 4 129 38 26 49 6
55 -37 12 -17 -17 -35 -30 -40 -30 -28 0 -68 54 -121 164 -63 128 -122 212
-165 236 -14 7 -26 16 -26 19 0 3 26 14 58 23 107 32 182 123 182 224 -1 92
-57 171 -155 216 -47 21 -65 23 -270 26 l-220 2 41 -19z m359 -35 c130 -60
172 -202 92 -309 -45 -60 -110 -89 -208 -95 l-79 -5 0 217 0 216 73 0 c54 0
84 -6 122 -24z"/>
<path d="M3060 1036 c0 -2 15 -13 34 -24 25 -15 38 -32 45 -59 14 -50 15 -732
1 -768 -6 -15 -24 -32 -45 -41 -19 -8 -35 -16 -35 -19 0 -3 48 -5 107 -5 64 0
103 4 97 9 -5 5 -18 11 -28 13 -10 1 -27 14 -38 28 -17 24 -18 46 -16 364 l3
338 50 -73 c29 -44 127 -152 237 -262 189 -189 256 -268 310 -364 57 -102 58
-98 58 370 0 467 -2 454 64 483 28 12 22 13 -79 13 -103 -1 -108 -1 -78 -15
64 -27 64 -27 61 -384 l-3 -323 -39 59 c-22 32 -118 135 -213 229 -185 180
-260 271 -312 373 l-31 62 -75 0 c-41 0 -75 -2 -75 -4z"/>
<path d="M4015 1028 c-8 -29 -33 -153 -30 -156 1 -2 18 19 38 46 51 71 99 92
215 92 l92 0 0 -413 c0 -407 0 -414 -21 -433 -11 -10 -33 -24 -47 -31 -22 -9
-2 -12 121 -12 96 -1 146 2 142 9 -3 6 -15 10 -25 10 -10 0 -28 12 -39 26 -20
26 -21 37 -21 436 l0 410 108 -4 c101 -3 111 -5 146 -31 20 -16 49 -46 63 -68
14 -22 28 -38 30 -36 1 2 -5 40 -14 85 l-17 82 -368 0 c-286 0 -369 -3 -373
-12z"/>
</g>
</svg>
